<?xml version="1.0" encoding="utf-8"?>
<!-- Generator: Adobe Illustrator 25.2.0, SVG Export Plug-In . SVG Version: 6.00 Build 0)  -->
<svg version="1.1" id="Layer_1" xmlns="http://www.w3.org/2000/svg" xmlns:xlink="http://www.w3.org/1999/xlink" x="0px" y="0px"
	 viewBox="0 0 448.7 448.7" style="enable-background:new 0 0 448.7 448.7;" xml:space="preserve">
<style type="text/css">
	.st0{fill:#FFFFFF;}
	.st1{fill:none;stroke:#000000;stroke-width:10;stroke-miterlimit:10;}
	.st2{fill:#020202;}
	.st3{fill:#6ABD45;stroke:#FFFFFF;stroke-miterlimit:10;}
	.st4{fill:#ED2024;stroke:#FFFFFF;stroke-miterlimit:10;}
	.st5{fill:#F7901E;stroke:#FFFFFF;stroke-miterlimit:10;}
	.st6{fill:#3C53A4;stroke:#FFFFFF;stroke-miterlimit:10;}
	.st7{stroke:#FFFFFF;stroke-width:6;stroke-miterlimit:10;}
	.st8{clip-path:url(#SVGID_2_);}
	.st9{fill:#DCE0DF;}
	.st10{fill:none;stroke:#DCE0DF;stroke-width:1.3333;stroke-miterlimit:13.3333;}
	.st11{fill:#BDBDBC;}
	.st12{fill:#3D3A36;}
	.st13{fill:#383736;}
	.st14{fill:#181919;}
	.st15{fill:#686868;}
	.st16{fill:#151413;}
	.st17{fill:none;stroke:#686868;stroke-width:2.4;stroke-miterlimit:5.3333;}
	.st18{clip-path:url(#SVGID_4_);}
	.st19{fill:url(#path170_1_);}
	.st20{clip-path:url(#SVGID_6_);}
	.st21{opacity:0.8363;clip-path:url(#SVGID_8_);}
	.st22{fill:none;stroke:#000000;stroke-width:1.3333;stroke-miterlimit:13.3333;}
	.st23{opacity:0.8363;clip-path:url(#SVGID_10_);}
	.st24{fill:#A6A5A2;}
	.st25{clip-path:url(#SVGID_12_);}
	.st26{fill:url(#path334_1_);}
	.st27{clip-path:url(#SVGID_14_);}
	.st28{opacity:0.8363;clip-path:url(#SVGID_16_);}
	.st29{opacity:0.8363;clip-path:url(#SVGID_18_);}
	.st30{fill:#7F7F7F;}
	.st31{fill:none;stroke:#FFFFFF;stroke-width:2;stroke-miterlimit:10;}
</style>
<g>
	<path class="st0" d="M443.7,403.7c0,22-18,40-40,40H45c-22,0-40-18-40-40V45C5,23,23,5,45,5h358.7c22,0,40,18,40,40V403.7z"/>
	<path class="st1" d="M443.7,403.7c0,22-18,40-40,40H45c-22,0-40-18-40-40V45C5,23,23,5,45,5h358.7c22,0,40,18,40,40V403.7z"/>
</g>
<path class="st2" d="M384.5,30v76h16c0,6.4,1.8,15.9-0.6,21.9c-3.7,9.3-12.8,10.9-12.4,23.1c0.4,11.1,10.2,13.4,12.6,22.1
	c3.4,12.4,0.3,30,0.3,42.9c0,5.9,1.2,13.3-0.7,19c-3.5,10.7-12,21.4-17.7,31c-6.3,10.6-12.4,21.4-18.6,32c-2,3.4-4.5,10.2-8.2,12
	c-2.6,1.3-5.5-0.8-7.8-2l-32,57l28,17l17.7-31l8-11.3l11.3,5.3l3-8l-10-5c1.5-5.8-3.5-10.2-1.6-15c10.3-26.6,36.1-48.5,44-76
	c5.5-19-0.2-44.2,0.7-64c0.3-7.2,7.6-8.6,11.3-14c7.4-11.1,2.4-30.4-11.3-33v-24h14V30H384.5L384.5,30z"/>
<circle class="st2" cx="192.7" cy="192.4" r="173.8"/>
<g>
	<circle class="st3" cx="416.6" cy="405.6" r="10.6"/>
	<circle class="st4" cx="416.6" cy="375.1" r="10.6"/>
	<circle class="st5" cx="416.6" cy="344.7" r="10.6"/>
	<circle class="st6" cx="416.6" cy="314.3" r="10.6"/>
</g>
<circle class="st7" cx="192.7" cy="192.4" r="89.1"/>
<g id="g10" transform="matrix(1.3333333,0,0,-1.3333333,0,762.812)">
	<g id="g12">
		<g>
			<defs>
				<rect id="SVGID_1_" x="73.6" y="365.4" width="141.9" height="124.7"/>
			</defs>
			<clipPath id="SVGID_2_">
				<use xlink:href="#SVGID_1_"  style="overflow:visible;"/>
			</clipPath>
			<g id="g14" class="st8">
				<g id="g20" transform="translate(327.5203,560.1566)">
					<path id="path22" class="st9" d="M-182.6-87.5c0,0-1-2.9-1-4c-1,0-4.3-9.1-4.9-11.5c0.4,0.7,1.5,0.9,1.5,0.9
						c-0.8-1.7-4.7-6.7-4.7-6.7c1.9,0.9,3,0.8,2.1-0.1c-1.5-1.5-13.3,0-8.3,16.2c1.9,6.2-4.2,7.9-7.3,4.2c-5-6-25.1-31.5-30.7-35.5
						c4.5-0.3,25.7,18.9,25.7,18.9c0.3-4.6-23-27.8-25.7-30.2c4.9,0.5,23.9,16.1,23.9,16.1c-1.5-5.3-14.2-21.7-19.9-27.8
						c6.2,1.9,22.6,20.1,22.6,20.1c-1.7-7.3-8.6-24.7-8.6-24.7c2.9-1.2,14.6,26.1,14.6,26.1c0.3-3.6-2.5-10.9-4.2-13.8
						c6.2,3.8,10.8,16.4,10.8,16.4s0.5-4.8-2.6-10.6c2.6-0.3,6.4,6.4,7.2,12.6c1.3-3.4,1.8-7.6,0.1-9.3c-4.3-4.2-4.3-14-6-13.5
						c-1,0.1-1,0.1-2.9-1.2c-0.8-0.3-4,0.1-4.1-0.7c-0.2-0.8,0-2.2,0-2.2c-0.7-0.4-0.7-3.5,0.5-3.8c-0.3,0.8-0.3,2.1,0,2.9
						c0.8-0.8,1.5-0.4,1.7,0.1c-0.3,0.8,0.9,3.9,2.7,0.1c0.4-0.8,0.4-2-0.8-3.1c-0.6-0.6,0.3-1.8,0.3-1.8c0.2-0.7-1.3-1.7-1.8-1.4
						c1.5-1.1,2.4,0.7,2.4,0.7c0.9,0,2,0.6,2.1,1.6c-0.4,1.4-0.7,3.9,0.2,6.1c1.6,3.9,7,5.6,8.5,9.5c0.4-4.3-8.7-19.8-9.7-25.5
						c2.1,2,8.8,10.2,8.8,10.2c0.5-4.1-2.6-11.7-2.8-15.3c2.3,1.6,5.8,9.8,8.2,11c0,0,1.3-17.4,2.2-18.8c1.9,4.8,2.9,18.4,2.9,18.4
						s5.2-7.4,7.8-9.6c-0.2,3.7-3.6,9.3-3.1,13.4c0,0,6.6-8.2,8.8-10.2c-1,5.6-10.2,22.2-9.7,26.4c1.5-3.9,7-5.7,8.6-9.6
						c0.9-2.2,0.6-4.7,0.2-6.1c0.1-1.1,1.2-1.6,2.1-1.6c0,0,0.9-1.8,2.4-0.7c-0.4-0.3-2,0.7-1.8,1.4c0,0,0.9,1.2,0.3,1.8
						c-1.2,1.1-1.2,2.3-0.8,3.1c1.8,3.8,2.9,0.7,2.7-0.1c0.2-0.5,1-0.9,1.7-0.1c0.3-0.7,0.3-2,0-2.9c1.3,0.3,1.3,3.5,0.5,3.8
						c0,0,0.2,1.4,0,2.2c-0.2,0.8-3.3,0.4-4.1,0.7c-1.9,1.2-1.9,1.2-2.9,1.2c-1.7-0.5-1.8,8.3-6,12.5c-1.7,1.6-1.2,5.9,0.1,9.3
						c0.8-6.2,4.6-13,7.2-12.6c-3.1,5.8-2.6,10.6-2.6,10.6s4.7-12.6,10.8-16.4c-1.7,2.9-4.4,10.2-4.2,13.8c0,0,11.6-26.3,14.5-25.1
						c0,0-6.8,16.4-8.6,23.7c0,0,16.2-17.3,22.3-19.1c-5.7,6.1-18.2,21.5-19.7,26.8c0,0,18.6-14.6,23.5-15.1
						c-2.7,2.4-25.5,24.6-25.3,29.2c0,0,20.7-17.9,25.3-17.7c-5.6,4-25,29.3-30,35.3c-3.1,3.7-9.2,2.1-7.3-4.2
						c5-16.2-6.9-17.8-8.5-16.2c-0.9,0.9,0.2,1,2.1,0.1c0,0-4,5-4.8,6.7c0,0,1.3-0.3,1.7-0.9c-0.6,2.4-4.1,11.5-5,11.5
						C-181.8-90.5-182.6-87.5-182.6-87.5"/>
				</g>
				<g id="g24" transform="translate(327.5203,560.1566)">
					<path id="path26" class="st10" d="M-182.6-87.5c0,0-1-2.9-1-4c-1,0-4.3-9.1-4.9-11.5c0.4,0.7,1.5,0.9,1.5,0.9
						c-0.8-1.7-4.7-6.7-4.7-6.7c1.9,0.9,3,0.8,2.1-0.1c-1.5-1.5-13.3,0-8.3,16.2c1.9,6.2-4.2,7.9-7.3,4.2c-5-6-25.1-31.5-30.7-35.5
						c4.5-0.3,25.7,18.9,25.7,18.9c0.3-4.6-23-27.8-25.7-30.2c4.9,0.5,23.9,16.1,23.9,16.1c-1.5-5.3-14.2-21.7-19.9-27.8
						c6.2,1.9,22.6,20.1,22.6,20.1c-1.7-7.3-8.6-24.7-8.6-24.7c2.9-1.2,14.6,26.1,14.6,26.1c0.3-3.6-2.5-10.9-4.2-13.8
						c6.2,3.8,10.8,16.4,10.8,16.4s0.5-4.8-2.6-10.6c2.6-0.3,6.4,6.4,7.2,12.6c1.3-3.4,1.8-7.6,0.1-9.3c-4.3-4.2-4.3-14-6-13.5
						c-1,0.1-1,0.1-2.9-1.2c-0.8-0.3-4,0.1-4.1-0.7c-0.2-0.8,0-2.2,0-2.2c-0.7-0.4-0.7-3.5,0.5-3.8c-0.3,0.8-0.3,2.1,0,2.9
						c0.8-0.8,1.5-0.4,1.7,0.1c-0.3,0.8,0.9,3.9,2.7,0.1c0.4-0.8,0.4-2-0.8-3.1c-0.6-0.6,0.3-1.8,0.3-1.8c0.2-0.7-1.3-1.7-1.8-1.4
						c1.5-1.1,2.4,0.7,2.4,0.7c0.9,0,2,0.6,2.1,1.6c-0.4,1.4-0.7,3.9,0.2,6.1c1.6,3.9,7,5.6,8.5,9.5c0.4-4.3-8.7-19.8-9.7-25.5
						c2.1,2,8.8,10.2,8.8,10.2c0.5-4.1-2.6-11.7-2.8-15.3c2.3,1.6,5.8,9.8,8.2,11c0,0,1.3-17.4,2.2-18.8c1.9,4.8,2.9,18.4,2.9,18.4
						s5.2-7.4,7.8-9.6c-0.2,3.7-3.6,9.3-3.1,13.4c0,0,6.6-8.2,8.8-10.2c-1,5.6-10.2,22.2-9.7,26.4c1.5-3.9,7-5.7,8.6-9.6
						c0.9-2.2,0.6-4.7,0.2-6.1c0.1-1.1,1.2-1.6,2.1-1.6c0,0,0.9-1.8,2.4-0.7c-0.4-0.3-2,0.7-1.8,1.4c0,0,0.9,1.2,0.3,1.8
						c-1.2,1.1-1.2,2.3-0.8,3.1c1.8,3.8,2.9,0.7,2.7-0.1c0.2-0.5,1-0.9,1.7-0.1c0.3-0.7,0.3-2,0-2.9c1.3,0.3,1.3,3.5,0.5,3.8
						c0,0,0.2,1.4,0,2.2c-0.2,0.8-3.3,0.4-4.1,0.7c-1.9,1.2-1.9,1.2-2.9,1.2c-1.7-0.5-1.8,8.3-6,12.5c-1.7,1.6-1.2,5.9,0.1,9.3
						c0.8-6.2,4.6-13,7.2-12.6c-3.1,5.8-2.6,10.6-2.6,10.6s4.7-12.6,10.8-16.4c-1.7,2.9-4.4,10.2-4.2,13.8c0,0,11.6-26.3,14.5-25.1
						c0,0-6.8,16.4-8.6,23.7c0,0,16.2-17.3,22.3-19.1c-5.7,6.1-18.2,21.5-19.7,26.8c0,0,18.6-14.6,23.5-15.1
						c-2.7,2.4-25.5,24.6-25.3,29.2c0,0,20.7-17.9,25.3-17.7c-5.6,4-25,29.3-30,35.3c-3.1,3.7-9.2,2.1-7.3-4.2
						c5-16.2-6.9-17.8-8.5-16.2c-0.9,0.9,0.2,1,2.1,0.1c0,0-4,5-4.8,6.7c0,0,1.3-0.3,1.7-0.9c-0.6,2.4-4.1,11.5-5,11.5
						C-181.8-90.5-182.6-87.5-182.6-87.5z"/>
				</g>
				<g id="g28" transform="translate(523.2361,3.9364)">
					<path id="path30" class="st11" d="M-346.4,377.7l-1.9,3.3l1.1,0.7l-2.8,4.8l1,0.9l-0.5,0.9l-3.4-1.9l5.3-9.2L-346.4,377.7z"/>
				</g>
				<g id="g32" transform="translate(529.9861,7.8016)">
					<path id="path34" class="st11" d="M-352,374.5l-1.6,2.8l-0.6-0.3l1.6-2.8L-352,374.5z"/>
				</g>
				<g id="g36" transform="translate(536.9803,11.8085)">
					<path id="path38" class="st11" d="M-357.8,371.1l-1.6,2.8l-0.6-0.3l1.6-2.8L-357.8,371.1z"/>
				</g>
				<g id="g40" transform="translate(543.9754,15.8153)">
					<path id="path42" class="st11" d="M-363.7,367.8l-1.6,2.8l-0.6-0.3l1.6-2.8L-363.7,367.8z"/>
				</g>
				<g id="g44" transform="translate(550.8475,19.7508)">
					<path id="path46" class="st11" d="M-369.4,364.5l-1.6,2.8l-0.6-0.3l1.6-2.8L-369.4,364.5z"/>
				</g>
				<g id="g48" transform="translate(546.5789,43.7079)">
					<path id="path50" class="st11" d="M-365.9,344.5l-2.5,4.4l-1.3-0.4l-2.3,4l-1.7-1l2.3-4l-1-0.9l2.5-4.4L-365.9,344.5z"/>
				</g>
				<g id="g52" transform="translate(557.8162,23.661)">
					<path id="path54" class="st11" d="M-375.3,361.2l-1.6,2.8l-0.6-0.3l1.6-2.8L-375.3,361.2z"/>
				</g>
				<g id="g56" transform="translate(564.8377,27.7635)">
					<path id="path58" class="st11" d="M-381.2,357.8l-1.6,2.8l-0.6-0.3l1.6-2.8L-381.2,357.8z"/>
				</g>
				<g id="g60" transform="translate(575.2684,33.7381)">
					<path id="path62" class="st11" d="M-389.9,352.8l-5.3,9.2l-3.4-2l0.5-0.9l1.3,0.4l2.8-4.8l1.2,0.7l1.9-3.3L-389.9,352.8z"/>
				</g>
				<g id="g64" transform="translate(503.1453,70.7391)">
					<path id="path66" class="st11" d="M-329.5,321.9l-1.9,3.3l2.8,1.6l1.9-3.3l4.3,2.4l-0.5,1.2l-3.1,3.5l-3.6-2.1l-0.5,0.9l3.4,2
						l-0.9,1l-3.2-1.8l-0.5,0.9l3,1.7l-0.9,1l-2.8-1.6l-0.5,0.9l2.6,1.5l-0.9,1l-2.4-1.4l-0.5,0.8l2.2,1.3l-0.9,1l-2-1.1
						c-2.4,4.2-8.9,6.6-24,6.6l0-3.4c13.2,0.2,18.4-1.4,21.2-4.8l-2-1.1l0.4-1.3l2.2,1.3l0.5-0.9l-2.4-1.4l0.4-1.3l2.6,1.5l0.5-0.9
						l-2.8-1.6l0.4-1.3l3,1.7l0.5-0.9l-3.2-1.8l0.4-1.3l3.4,1.9l0.5-0.8l-3.6-2.1l1.5-4.4l0.8-1.1L-329.5,321.9z"/>
				</g>
				<g id="g68" transform="translate(139.6766,-1e-4)">
					<path id="path70" class="st11" d="M-25.5,381l5.3,9.2l-3.4,1.9l-0.5-0.9l1-0.9l-2.8-4.8l1.1-0.7l-1.9-3.3L-25.5,381z"/>
				</g>
				<g id="g72" transform="translate(129.3685,5.9042)">
					<path id="path74" class="st11" d="M-16.9,376.1l1.6,2.8l-0.6,0.3l-1.6-2.8L-16.9,376.1z"/>
				</g>
				<g id="g76" transform="translate(122.3734,9.911)">
					<path id="path78" class="st11" d="M-11,372.7l1.6,2.8l-0.6,0.3l-1.6-2.8L-11,372.7z"/>
				</g>
				<g id="g80" transform="translate(115.3787,13.9169)">
					<path id="path82" class="st11" d="M-5.2,369.4l1.6,2.8l-0.6,0.3l-1.6-2.8L-5.2,369.4z"/>
				</g>
				<g id="g84" transform="translate(108.5067,17.8534)">
					<path id="path86" class="st11" d="M0.6,366.1l1.6,2.8l-0.6,0.3L0,366.4L0.6,366.1z"/>
				</g>
				<g id="g88" transform="translate(133.8567,29.8172)">
					<path id="path90" class="st11" d="M-20.6,356.1l2.5,4.4l-1,0.9l2.3,4l-1.7,1l-2.3-4l-1.3,0.4l-2.5-4.4L-20.6,356.1z"/>
				</g>
				<g id="g92" transform="translate(101.5379,21.7635)">
					<path id="path94" class="st11" d="M6.4,362.8l1.6,2.8L7.5,366l-1.6-2.8L6.4,362.8z"/>
				</g>
				<g id="g96" transform="translate(94.5428,25.7694)">
					<path id="path98" class="st11" d="M12.2,359.5l1.6,2.8l-0.6,0.3l-1.6-2.8L12.2,359.5z"/>
				</g>
				<g id="g100" transform="translate(87.5482,29.7762)">
					<path id="path102" class="st11" d="M18.1,356.1l1.9,3.3l1.2-0.7l2.8,4.8l1.3-0.4l0.5,0.9l-3.4,2l-5.3-9.2L18.1,356.1z"/>
				</g>
				<g id="g104" transform="translate(178.6658,55.9784)">
					<path id="path106" class="st11" d="M-58.1,334.2l0.8,1.1l1.5,4.4l-3.6,2.1l0.5,0.8l3.4-1.9l0.4,1.3l-3.2,1.8l0.5,0.9l3-1.7
						l0.4,1.3l-2.8,1.6l0.5,0.9l2.6-1.5l0.4,1.3l-2.4,1.4l0.5,0.9l2.2-1.3l0.4,1.3l-2,1.1c2.8,3.4,8,5,21.2,4.8l0,3.4
						c-15.1,0.1-21.7-2.4-24-6.6l-2,1.1l-0.9-1l2.2-1.3l-0.5-0.8l-2.4,1.4l-0.9-1l2.6-1.5l-0.5-0.9l-2.8,1.6l-0.9-1l3-1.7l-0.5-0.9
						l-3.2,1.8l-0.9-1l3.4-2l-0.5-0.9l-3.6,2.1l-3.1-3.5l-0.5-1.2l4.3-2.4l1.9,3.3l2.8-1.6l-1.9-3.3L-58.1,334.2z"/>
				</g>
				<g id="g108" transform="translate(446.783,422.7845)">
					<path id="path110" class="st12" d="M-282.4,27.4c1.6-1.8,2-1.9,2.3-3.9"/>
				</g>
				<g id="g112" transform="translate(98.6976,153.6522)">
					<path id="path114" class="st13" d="M8.8,252.5c-1.1,0-1.9,0.1-1.8,0.2c0.1,0.1,4.8,3.4,10.4,7.3c15.8,11,30.3,21.8,41.5,30.8
						c3.7,2.9,6.7,5.4,6.7,5.4s0.5-0.7,1-1.6c0.9-1.5,1-1.7,0.7-2.1c-0.4-0.6-4.7-3.8-16.3-12.3c-9.1-6.6-28.5-20.5-35.2-25.4
						C12.2,252.3,12.4,252.4,8.8,252.5L8.8,252.5z"/>
				</g>
				<g id="g116" transform="translate(121.242,153.4169)">
					<path id="path118" class="st14" d="M-10.1,252.7L-10.1,252.7c-0.1,0.1-0.1,0.2-0.2,0.2c-0.1,0.1-0.1,0.2-0.2,0.4
						c-0.1,0.1-0.1,0.2-0.2,0.3c-0.1,0.1-0.1,0.2-0.2,0.3c0,0.1-0.1,0.2-0.1,0.2c0,0.1,0,0.1,0.1,0.2c0.1,0.1,0.2,0.1,0.2,0.2
						c0.1,0.1,0.2,0.2,0.3,0.3c0.1,0.1,0.2,0.2,0.3,0.3c0.1,0.1,0.2,0.1,0.4,0.2c0.1,0.1,0.3,0.1,0.4,0.1c0.1,0,0.3,0.1,0.4,0.1
						c0.1,0,0.3,0,0.4,0c0.1,0,0.2,0,0.4,0c0.1,0,0.3,0.1,0.4,0.1c0.1,0,0.2,0.1,0.3,0.1c0.1,0,0.2,0.1,0.4,0.2
						c0.1,0.1,0.2,0.2,0.3,0.3c0.1,0.1,0.2,0.2,0.4,0.3c0.1,0.1,0.2,0.2,0.4,0.3c0.1,0.1,0.2,0.2,0.4,0.3c0.1,0.1,0.2,0.2,0.4,0.3
						c0.1,0.1,0.2,0.2,0.3,0.3c0.1,0.1,0.3,0.2,0.4,0.2c0.2,0.1,0.3,0.2,0.5,0.3c0.2,0.1,0.3,0.2,0.5,0.3c0.2,0.1,0.3,0.2,0.5,0.3
						c0.2,0.1,0.3,0.2,0.5,0.3c0.2,0.1,0.4,0.2,0.5,0.3c0.2,0.1,0.4,0.3,0.6,0.4c0.2,0.2,0.4,0.3,0.6,0.5c0.2,0.2,0.4,0.4,0.5,0.5
						c0.2,0.2,0.3,0.4,0.5,0.5c0.2,0.2,0.4,0.3,0.6,0.5c0.2,0.2,0.4,0.3,0.6,0.4c0.2,0.1,0.3,0.2,0.5,0.3c0.2,0.1,0.4,0.2,0.6,0.3
						c0.2,0.1,0.4,0.2,0.7,0.3c0.3,0.1,0.5,0.2,0.8,0.4c0.2,0.1,0.4,0.2,0.6,0.3c0.2,0.1,0.3,0.2,0.5,0.4c0.2,0.1,0.3,0.3,0.5,0.5
						c0.2,0.2,0.3,0.3,0.5,0.5c0.2,0.2,0.3,0.3,0.5,0.5c0.2,0.2,0.3,0.3,0.5,0.5c0.2,0.1,0.3,0.3,0.5,0.4c0.2,0.1,0.3,0.2,0.5,0.3
						c0.2,0.1,0.4,0.2,0.6,0.3c0.2,0.1,0.4,0.2,0.6,0.3c0.2,0.1,0.3,0.1,0.5,0.2c0.1,0.1,0.3,0.1,0.4,0.2c0.2,0.1,0.3,0.1,0.5,0.2
						c0.2,0.1,0.3,0.2,0.5,0.3c0.1,0.1,0.3,0.2,0.4,0.3c0.2,0.1,0.3,0.3,0.4,0.4c0.2,0.2,0.4,0.4,0.6,0.6c0.2,0.2,0.3,0.3,0.5,0.5
						c0.1,0.1,0.3,0.3,0.4,0.4c0.1,0.1,0.3,0.3,0.5,0.4c0.2,0.1,0.3,0.3,0.5,0.4c0.2,0.1,0.3,0.3,0.5,0.4c0.2,0.1,0.3,0.3,0.5,0.4
						c0.2,0.2,0.4,0.3,0.6,0.5c0.2,0.2,0.4,0.3,0.6,0.4c0.2,0.1,0.3,0.2,0.5,0.3c0.2,0.1,0.5,0.2,0.8,0.3c0.2,0.1,0.4,0.1,0.6,0.2
						c0.2,0.1,0.4,0.2,0.6,0.3c0.2,0.1,0.3,0.2,0.5,0.3c0.2,0.1,0.3,0.2,0.4,0.3c0.2,0.1,0.3,0.3,0.5,0.4c0.2,0.2,0.3,0.3,0.5,0.5
						c0.1,0.1,0.3,0.3,0.4,0.4c0.2,0.2,0.3,0.3,0.5,0.5c0.2,0.2,0.4,0.4,0.5,0.6c0.2,0.2,0.3,0.4,0.5,0.6c0.1,0.2,0.3,0.4,0.5,0.5
						c0.1,0.1,0.3,0.3,0.4,0.4c0.1,0.1,0.3,0.2,0.4,0.3c0.2,0.1,0.3,0.2,0.5,0.3c0.2,0.1,0.4,0.2,0.5,0.3c0.2,0.1,0.4,0.2,0.6,0.3
						c0.2,0.1,0.4,0.2,0.6,0.2c0.2,0.1,0.3,0.1,0.5,0.2c0.2,0.1,0.3,0.1,0.5,0.1c0.2,0,0.3,0.1,0.5,0.2c0.1,0,0.2,0.1,0.3,0.2
						c0.1,0.1,0.3,0.2,0.4,0.3c0.1,0.1,0.3,0.2,0.4,0.3c0.1,0.1,0.3,0.3,0.4,0.4c0.1,0.1,0.2,0.3,0.4,0.4c0.1,0.1,0.2,0.3,0.4,0.4
						c0.1,0.1,0.3,0.3,0.4,0.4c0.1,0.1,0.2,0.3,0.4,0.4c0.1,0.1,0.2,0.2,0.3,0.4c0.1,0.1,0.2,0.2,0.3,0.3c0.1,0.1,0.2,0.2,0.3,0.3
						c0.1,0.1,0.2,0.2,0.3,0.2c0.1,0.1,0.2,0.1,0.4,0.2c0.2,0.1,0.3,0.1,0.5,0.2c0.2,0.1,0.3,0.1,0.5,0.2c0.1,0,0.3,0.1,0.4,0.1
						c0.1,0,0.2,0.1,0.3,0.1c0.1,0.1,0.3,0.1,0.4,0.2c0.1,0.1,0.3,0.2,0.4,0.3c0.1,0.1,0.3,0.2,0.4,0.3c0.1,0.1,0.2,0.2,0.4,0.4
						c0.1,0.1,0.2,0.2,0.3,0.4c0.1,0.1,0.2,0.2,0.3,0.3c0.1,0.1,0.2,0.3,0.4,0.4c0.1,0.1,0.2,0.2,0.4,0.3c0.1,0.1,0.2,0.2,0.4,0.3
						c0.1,0.1,0.2,0.1,0.3,0.2c0.1,0.1,0.2,0.1,0.3,0.2c0.1,0.1,0.2,0.1,0.4,0.2c0.1,0,0,0,0.1,0.1l0.1,0c-0.1,0,0,0-0.1-0.1
						c-0.1-0.1-0.2-0.1-0.4-0.2c-0.1,0-0.2-0.1-0.3-0.2c-0.1-0.1-0.2-0.1-0.3-0.2c-0.1-0.1-0.2-0.2-0.4-0.3
						c-0.1-0.1-0.3-0.2-0.4-0.3c-0.1-0.1-0.2-0.3-0.4-0.4c-0.1-0.1-0.2-0.2-0.3-0.3c-0.1-0.1-0.2-0.2-0.3-0.4
						c-0.1-0.1-0.2-0.2-0.4-0.4c-0.1-0.1-0.2-0.2-0.4-0.3c-0.1-0.1-0.3-0.2-0.4-0.3c-0.1-0.1-0.2-0.2-0.4-0.2
						c-0.1-0.1-0.3-0.1-0.4-0.2c-0.1,0-0.3-0.1-0.4-0.1c-0.1,0-0.2-0.1-0.4-0.1c-0.2-0.1-0.3-0.1-0.5-0.2c-0.1-0.1-0.3-0.1-0.4-0.2
						c-0.1-0.1-0.2-0.2-0.3-0.2c-0.1-0.1-0.2-0.2-0.3-0.3c-0.1-0.1-0.2-0.2-0.3-0.3c-0.1-0.1-0.2-0.2-0.3-0.4
						c-0.1-0.1-0.2-0.3-0.4-0.4c-0.1-0.1-0.3-0.3-0.4-0.4c-0.1-0.1-0.2-0.3-0.4-0.4c-0.1-0.1-0.2-0.3-0.4-0.4
						c-0.1-0.1-0.3-0.3-0.4-0.4c-0.1-0.1-0.3-0.2-0.4-0.3c-0.1-0.1-0.3-0.2-0.4-0.3c-0.2-0.1-0.3-0.1-0.5-0.2
						c-0.2-0.1-0.3-0.1-0.5-0.2c-0.2-0.1-0.3-0.1-0.5-0.1c-0.2-0.1-0.3-0.1-0.5-0.2c-0.2-0.1-0.3-0.1-0.5-0.2
						c-0.2-0.1-0.4-0.2-0.6-0.3c-0.2-0.1-0.4-0.2-0.5-0.3c-0.2-0.1-0.3-0.2-0.5-0.3c-0.1-0.1-0.3-0.2-0.4-0.3
						c-0.1-0.1-0.3-0.3-0.4-0.4c-0.2-0.2-0.3-0.3-0.5-0.5c-0.2-0.2-0.3-0.4-0.5-0.6c-0.2-0.2-0.4-0.4-0.5-0.6
						c-0.2-0.2-0.3-0.4-0.5-0.5c-0.1-0.1-0.3-0.3-0.4-0.4c-0.2-0.2-0.3-0.3-0.5-0.5c-0.2-0.1-0.3-0.3-0.5-0.4
						c-0.1-0.1-0.3-0.2-0.4-0.3c-0.2-0.1-0.3-0.2-0.5-0.3c-0.2-0.1-0.4-0.2-0.6-0.3c-0.2-0.1-0.5-0.2-0.7-0.3
						c-0.2-0.1-0.4-0.2-0.6-0.3c-0.2-0.1-0.4-0.2-0.5-0.3c-0.2-0.1-0.4-0.3-0.6-0.4c-0.2-0.2-0.4-0.3-0.6-0.5
						c-0.2-0.1-0.3-0.3-0.5-0.4c-0.2-0.1-0.3-0.3-0.5-0.4c-0.2-0.1-0.3-0.3-0.5-0.4c-0.2-0.1-0.3-0.3-0.5-0.4
						c-0.1-0.1-0.3-0.3-0.4-0.4c-0.2-0.2-0.3-0.3-0.5-0.5c-0.2-0.2-0.4-0.4-0.6-0.6c-0.1-0.1-0.3-0.3-0.4-0.4
						c-0.1-0.1-0.3-0.2-0.4-0.3c-0.2-0.1-0.3-0.2-0.5-0.3c-0.2-0.1-0.3-0.2-0.5-0.2c-0.1-0.1-0.3-0.1-0.4-0.2
						c-0.2-0.1-0.3-0.1-0.5-0.2c-0.2-0.1-0.4-0.2-0.6-0.3c-0.2-0.1-0.4-0.2-0.6-0.3c-0.2-0.1-0.3-0.2-0.5-0.3
						c-0.2-0.1-0.3-0.3-0.5-0.4c-0.2-0.2-0.3-0.3-0.5-0.5c-0.1-0.2-0.3-0.3-0.5-0.5c-0.2-0.2-0.3-0.3-0.5-0.5
						c-0.2-0.2-0.3-0.3-0.5-0.5c-0.2-0.1-0.3-0.3-0.5-0.4c-0.2-0.1-0.4-0.2-0.6-0.4c-0.3-0.1-0.5-0.3-0.8-0.4
						c-0.2-0.1-0.4-0.2-0.7-0.3c-0.2-0.1-0.4-0.2-0.6-0.3c-0.2-0.1-0.4-0.2-0.5-0.3c-0.2-0.1-0.4-0.3-0.6-0.4
						c-0.2-0.2-0.4-0.3-0.6-0.5c-0.2-0.2-0.3-0.3-0.5-0.5c-0.2-0.2-0.4-0.4-0.5-0.5c-0.2-0.2-0.4-0.3-0.6-0.5
						c-0.2-0.2-0.4-0.3-0.6-0.4c-0.2-0.1-0.3-0.2-0.5-0.3c-0.2-0.1-0.4-0.2-0.5-0.3c-0.2-0.1-0.3-0.2-0.5-0.3
						c-0.2-0.1-0.3-0.2-0.5-0.3c-0.2-0.1-0.3-0.2-0.5-0.3c-0.1-0.1-0.3-0.2-0.4-0.2c-0.1-0.1-0.2-0.2-0.3-0.3
						c-0.1-0.1-0.2-0.2-0.4-0.3c-0.1-0.1-0.2-0.2-0.4-0.3c-0.1-0.1-0.2-0.2-0.4-0.3c-0.1-0.1-0.2-0.2-0.4-0.3
						c-0.1-0.1-0.2-0.2-0.3-0.3c-0.1-0.1-0.2-0.1-0.4-0.2c-0.2-0.1-0.3-0.1-0.5-0.2c-0.1,0-0.3-0.1-0.4-0.1c-0.1,0-0.2,0-0.4,0
						c-0.1,0-0.3,0-0.4,0c-0.1,0-0.3,0-0.4-0.1c-0.1,0-0.2,0-0.3-0.1c-0.1-0.1-0.2-0.1-0.4-0.2c-0.1-0.1-0.2-0.2-0.3-0.3
						c-0.1-0.1-0.2-0.2-0.3-0.3c-0.1-0.1-0.2-0.1-0.2-0.2c0,0-0.1-0.1-0.1-0.2c0-0.1,0-0.2,0.1-0.2c0.1-0.1,0.1-0.2,0.2-0.3
						c0.1-0.1,0.1-0.2,0.2-0.3c0.1-0.1,0.1-0.2,0.2-0.4L-10.1,252.7z"/>
				</g>
				<g id="g120" transform="translate(414.9383,374.764)">
					<path id="path122" class="st14" d="M-255.8,67.5L-255.8,67.5c0,0,0.1,0,0.1,0.1c0.1,0,0.1,0.1,0.2,0.1c0.1,0,0.1,0.1,0.2,0.1
						c0.1,0,0.1,0,0.2,0c0.1,0,0.1,0,0.2,0c0.1,0,0.1,0,0.2,0.1c0.1,0,0.1,0,0.2,0.1c0.1,0,0.1,0.1,0.2,0.1c0.1,0,0.1,0.1,0.2,0.1
						c0.1,0,0.1,0.1,0.2,0.1c0.1,0,0.1,0.1,0.2,0.1c0.1,0.1,0.1,0.1,0.2,0.2c0.1,0.1,0.1,0.1,0.2,0.2c0.1,0.1,0.1,0.1,0.1,0.2
						c0,0.1,0.1,0.1,0.1,0.2c0.2,0.3,0.4,0.6,0.7,0.8c0.2,0.3,0.5,0.6,0.7,0.8c0.2,0.2,0.3,0.3,0.5,0.5c0.1,0.1,0.3,0.2,0.4,0.3
						c0.1,0.1,0.2,0.1,0.3,0.2c0.1,0.1,0.2,0.1,0.3,0.1c0.1,0,0.2,0.1,0.3,0.1c0.1,0,0.2,0,0.2,0.1c0.1,0,0.1,0,0.2,0.1
						c0.1,0,0.1,0,0.2,0.1c0.1,0,0.1,0.1,0.2,0.1c0,0,0.1,0.1,0.1,0.1l0,0c0,0-0.1-0.1-0.1-0.1c-0.1,0-0.1-0.1-0.2-0.1
						c-0.1,0-0.1-0.1-0.2-0.1c-0.1,0-0.1,0-0.2-0.1c-0.1,0-0.2,0-0.2-0.1c-0.1,0-0.2-0.1-0.3-0.1c-0.1,0-0.2-0.1-0.3-0.1
						c-0.1-0.1-0.2-0.1-0.3-0.2c-0.1-0.1-0.3-0.2-0.4-0.3c-0.2-0.2-0.3-0.3-0.5-0.5c-0.2-0.3-0.5-0.6-0.7-0.8
						c-0.2-0.3-0.4-0.6-0.7-0.8c0-0.1-0.1-0.1-0.1-0.2c0-0.1-0.1-0.1-0.1-0.2c-0.1-0.1-0.1-0.1-0.2-0.2c-0.1-0.1-0.1-0.1-0.2-0.2
						c-0.1-0.1-0.1-0.1-0.2-0.2c-0.1,0-0.1-0.1-0.2-0.1c-0.1,0-0.1-0.1-0.2-0.1c-0.1,0-0.1-0.1-0.2-0.1c-0.1,0-0.2-0.1-0.2-0.1
						c-0.1,0-0.1,0-0.2-0.1c-0.1,0-0.1,0-0.2,0c-0.1,0-0.1,0-0.2,0c-0.1,0-0.1,0-0.2,0c-0.1,0-0.1-0.1-0.2-0.1
						C-255.7,67.6-255.7,67.6-255.8,67.5z"/>
				</g>
				<g id="g124" transform="translate(280.4207,272.0995)">
					<path id="path126" class="st14" d="M-143.2,153.4l-0.4,0.3l0.2,0.2c0.7,0.5,1.2,0.9,1.4,1c0.1,0.1,0.5,0.2,0.8,0.3
						c0.5,0.2,1.3,0.6,1.7,0.8c0.3,0.2,0.6,0.4,1,0.8c0.6,0.6,0.7,0.7,1.8,2c0.5,0.6,1.1,1.2,1.2,1.3c0.7,0.6,1.6,1.1,3.2,1.6
						c1,0.3,1.3,0.4,1.7,0.7c0.5,0.4,0.8,0.7,1.9,1.9c0.8,0.9,1.4,1.5,1.8,1.7c0.2,0.1,0.6,0.3,1.2,0.5c1.1,0.4,1.7,0.8,2.9,2.2
						c0.7,0.7,1.1,1.1,1.9,1.4c0.3,0.1,0.6,0.3,0.8,0.3c0.3,0.1,0.6,0.2,0.9,0.5c0.2,0.2,0.3,0.3,1.3,1.5c1.3,1.6,1.6,1.9,2.8,2.3
						c0.3,0.1,0.5,0.2,0.6,0.2c0.2,0.1,0.2,0.1,0.3-0.2c0.1-0.4,0.1-0.6-0.2-0.9c-0.7-0.7-2.3-1.9-6.3-4.9c-4-3-13.3-9.7-20.5-15
						l-1.4-1L-143.2,153.4z"/>
				</g>
				<g id="g128" transform="translate(117.5408,161.0838)">
					<path id="path130" class="st14" d="M-7,246.3c-0.1,0.3-0.1,0.3,0.4,0.8c0.6,0.5,0.8,0.6,1.7,0.7c1.4,0.2,1.7,0.3,3.1,1.6
						c0.7,0.6,1.7,1.3,2.9,1.9c0.8,0.4,1.4,0.8,2.1,1.5c1.2,1.2,1.4,1.3,1.9,1.7c0.3,0.2,1,0.6,1.5,0.9c2,0.9,2.3,1.2,3.3,2.3
						c1.3,1.4,1.9,1.8,3.6,2.6c1.2,0.5,1.7,0.8,2.5,1.6c0.3,0.3,0.8,0.8,1,1c0.4,0.4,2.3,1.9,2.3,1.9c0,0,0.2-0.1,0.4-0.3
						c0.4-0.3,0.4-0.3,0.3-0.4c-0.1,0-1.4-1-3.1-2.2c-4.3-3.1-19.8-14.2-21.1-15.1c-1-0.7-1.7-1.1-2.1-1.3l-0.2-0.1l-0.2,0.3
						C-6.8,245.9-6.9,246.1-7,246.3L-7,246.3z"/>
				</g>
				<g id="g132" transform="translate(280.4383,272.162)">
					<path id="path134" class="st14" d="M-143.3,153.4l-0.4,0.3l0.6,0.4c0.8,0.6,0.9,0.7,1.9,1.1c2,0.8,2.2,1,3.9,3
						c2.4,2.7,2.3,2.6,5.3,3.7c1.2,0.4,1.5,0.6,2.7,1.9c1.2,1.3,1.8,1.9,2.2,2.2c0.2,0.1,0.7,0.4,1.2,0.5s1,0.4,1.2,0.5
						c0.4,0.2,1.1,0.9,2.1,1.9c0.7,0.8,1,1,2.2,1.5c0.4,0.2,0.9,0.4,1.1,0.5c0.2,0.1,0.7,0.8,1.5,1.6c1.4,1.7,1.5,1.7,2.6,2.2
						c0.4,0.2,0.8,0.3,0.8,0.3c0.1,0.1,0.1,0,0.2-0.3c0.1-0.4,0.1-0.6-0.5-1.1c-0.3-0.2-0.5-0.4-0.5-0.5c0,0,0-0.1-0.1,0
						c0,0-0.4-0.2-0.6-0.5c0,0-0.1-0.1-0.2-0.1c-0.2-0.1-0.6-0.4-0.6-0.5c0,0,0-0.1-0.1-0.1c-0.1,0-0.6-0.4-0.7-0.5
						c0,0,0-0.1-0.1-0.1c-0.1,0-2.9-2.1-2.9-2.2c0,0,0-0.1-0.1,0c0,0-0.1,0-0.1-0.1c0-0.1-0.1-0.1-0.1-0.1c0,0-0.1,0-0.1-0.1
						s-0.1-0.1-0.1-0.1c0,0-0.1,0-0.1-0.1c0-0.1-0.1-0.1-0.1-0.1c-0.1,0-3.5-2.5-3.5-2.6c0,0,0-0.1-0.1,0c-0.1,0-1.3-0.8-1.3-0.9
						c0,0,0-0.1-0.1-0.1c-0.1,0-1-0.7-1-0.8c0,0,0-0.1-0.1,0c0,0-0.1,0-0.1-0.1c0-0.1-0.1-0.1-0.1-0.1c-0.1,0-1-0.7-1-0.8
						c0,0,0-0.1-0.1-0.1c-0.1,0-1-0.7-1-0.8c0,0,0-0.1-0.1,0c0,0-0.1,0-0.1-0.1c0-0.1-0.1-0.1-0.1-0.1c-0.1,0-0.8-0.5-0.8-0.6
						c0,0,0-0.1-0.1-0.1c-0.1,0-0.8-0.5-0.8-0.6c0,0,0-0.1-0.1-0.1c-0.1,0-0.8-0.5-0.8-0.6c0,0,0-0.1-0.1-0.1
						c-0.1,0-0.8-0.5-0.8-0.6c0,0,0-0.1-0.1,0c0,0-0.7-0.4-0.8-0.6c0,0-0.1-0.1-0.1-0.1c-0.1,0-0.8-0.5-0.8-0.6c0,0,0,0-0.1,0
						c0,0-0.7-0.4-0.8-0.6c0,0-0.1-0.1-0.1-0.1c-0.1,0-0.8-0.5-0.8-0.6c0,0,0,0-0.1,0c0,0-0.3-0.1-0.6-0.4c0,0-0.1-0.1-0.1-0.1
						c-0.2-0.1-0.7-0.5-0.8-0.5c0,0-0.1-0.1-0.1-0.1c-0.2-0.1-0.7-0.5-0.8-0.5c0,0-0.1-0.1-0.1-0.1c-0.2-0.1-0.7-0.5-0.8-0.5
						c0,0-0.1-0.1-0.1-0.1c-0.2-0.1-0.7-0.5-0.8-0.5c0,0-0.1-0.1-0.1-0.1c-0.2-0.1-0.7-0.5-0.8-0.5c0,0-0.1-0.1-0.1-0.1
						c-0.1,0-0.3-0.2-0.4-0.3l-0.3-0.2L-143.3,153.4z"/>
				</g>
				<g id="g136" transform="translate(122.2625,154.3465)">
					<path id="path138" class="st15" d="M-10.9,251.9c-0.8,0.8-0.8,1.4-0.9,1.5c-0.4,0.4-1.9-0.4-2.9,0c-0.8-0.6-2-1-2.4-1.6
						c-0.3-0.5-0.3-0.2-0.3-0.2"/>
				</g>
				<g id="g140" transform="translate(117.077,163.8133)">
					<path id="path142" class="st16" d="M-6.6,244L-6.6,244c0,0-0.1,0.1-0.1,0.2c0,0.1,0,0.2-0.1,0.2c0,0.1-0.1,0.2-0.1,0.3
						c0,0.1-0.1,0.1-0.1,0.2c0,0.1-0.1,0.1-0.1,0.2c0,0.1-0.1,0.1-0.1,0.2c0,0.1-0.1,0.1-0.1,0.2l0,0l0,0l0,0c0-0.1,0.1-0.1,0.1-0.2
						c0-0.1,0.1-0.1,0.1-0.2c0-0.1,0.1-0.1,0.1-0.2c0-0.1,0.1-0.1,0.1-0.2c0-0.1,0.1-0.2,0.1-0.3c0-0.1,0-0.2,0.1-0.2
						C-6.6,244.1-6.6,244.1-6.6,244"/>
				</g>
				<g id="g144" transform="translate(100.2674,163.787)">
					<path id="path146" d="M7.5,244c0.2,0.1,2,1.4,2,1.4c0,0,0.4-0.6,0.5-0.8c0-0.1,0.1-0.2,0.1-0.4l0.1-0.2l-0.1,0
						c-0.2,0.1-0.4,0-1.1-0.1C8.2,243.9,7.7,243.9,7.5,244C7.4,244,7.4,244,7.5,244"/>
				</g>
				<g id="g148" transform="translate(449.6033,416.0965)">
					<path id="path150" class="st17" d="M-284.8,33l-1.4-1.7c-1.4-1.7-53-38.8-53-38.8"/>
				</g>
			</g>
		</g>
	</g>
	<g id="g152">
		<g>
			<defs>
				<polygon id="SVGID_3_" points="162,448.3 164.6,444.7 167.4,446.9 164.8,450.5 				"/>
			</defs>
			<clipPath id="SVGID_4_">
				<use xlink:href="#SVGID_3_"  style="overflow:visible;"/>
			</clipPath>
			<g id="g154" class="st18">
				<g id="g160">
					<g id="g162">
						
							<linearGradient id="path170_1_" gradientUnits="userSpaceOnUse" x1="-66.8143" y1="84.1895" x2="-66.6508" y2="84.1895" gradientTransform="matrix(-21.1034 29.3249 28.5823 22.0987 -3650.3823 544.6534)">
							<stop  offset="0" style="stop-color:#000000"/>
							<stop  offset="1" style="stop-color:#DCE0DF"/>
						</linearGradient>
						<path id="path170" class="st19" d="M162,448.3l2.6-3.6l2.8,2.2l-2.6,3.6L162,448.3z"/>
					</g>
				</g>
			</g>
		</g>
	</g>
	<g id="g172">
		<g>
			<defs>
				<rect id="SVGID_5_" x="73.6" y="365.4" width="141.9" height="124.7"/>
			</defs>
			<clipPath id="SVGID_6_">
				<use xlink:href="#SVGID_5_"  style="overflow:visible;"/>
			</clipPath>
			<g id="g174" class="st20">
				<g id="g180">
					<g id="g182">
					</g>
					<g id="g194">
						<g>
							<defs>
								<rect id="SVGID_7_" x="160" y="442.9" width="10.9" height="11.3"/>
							</defs>
							<clipPath id="SVGID_8_">
								<use xlink:href="#SVGID_7_"  style="overflow:visible;"/>
							</clipPath>
							<g id="g192" class="st21">
								<g id="g190" transform="translate(463.1219,422.0331)">
									<path id="path188" class="st9" d="M-296.1,28L-296.1,28c0.2-0.2,1.4-1.9,1.5-2c0.1-0.1,0.1-0.1,0-0.1c0,0,0-0.1,0.1-0.1
										c0.1,0,0.3-0.7,0.5-1c0.3-0.6,0.4-1,0.3-1.9l0-0.1c-0.8-0.6-1.5-0.5-2.1-0.1c-0.2,0.2-0.4,0.3-0.6,0.6
										c-0.2,0.2-0.3,0.4-0.6,0.6c0,0.3,0.5,0.4,0.8,0.7l0.1,0.1l-0.1,0.2c-0.1,0.1-0.2,0.2-0.2,0.3c-0.1,0.1-0.1,0.2-0.2,0.4
										c-0.1,0.5-0.2,0.6-0.6,1.1c-0.2,0.3-0.5,0.6-0.7,0.8c-0.2,0.2-0.5,0.5-0.6,0.6c-0.1,0.1-0.2,0.2-0.2,0.2c0,0,0,0,0-0.1
										l0-0.1l-0.3-0.2c-0.2-0.1-0.9-0.7-1.6-1.2l-1.3-1l0.8,0.6c0.4,0.3,0.9,0.7,1,0.8c0.2,0.1,0.3,0.2,0.3,0.2
										c0,0,0.2,0.2,0.5,0.4l0.5,0.4l-0.1,0.1l0.1,0l-0.4-0.3c-0.2-0.2-0.5-0.3-0.6-0.4l-0.2-0.1l-0.1,0.1
										c-1.1,1.3-1.2,2.8-0.6,3.1c0.3,0.2,0.9,0.1,1.6-0.2C-298,30-297,29.2-296.1,28L-296.1,28z"/>
								</g>
							</g>
						</g>
					</g>
				</g>
				<g id="g196" transform="translate(565.4061,514.3964)">
					<path id="path198" class="st9" d="M-381.6-49.3c0.7-0.4,1.1-0.8,1.2-1.4c0.1-0.5,0-1.2-0.2-1.5c-0.3-0.3-4.2-3.8-11.8-10.5
						c-2.3-2-4.3-3.7-4.3-3.8c-0.1,0-0.5,0.4-1.2,1.4c-0.6,0.8-1.3,1.6-1.5,1.8l-0.3,0.3l2.4,1.8c1.6,1.3,3.1,2.5,4.7,3.8
						c3.5,3,9,7.9,9.4,8.3c0.3,0.3,0.3,0.3,0.7,0.2C-382.4-48.8-382-49.1-381.6-49.3L-381.6-49.3z"/>
				</g>
				<g id="g200" transform="translate(565.4061,514.3964)">
					<path id="path202" class="st22" d="M-381.6-49.3c0.7-0.4,1.1-0.8,1.2-1.4c0.1-0.5,0-1.2-0.2-1.5c-0.3-0.3-4.2-3.8-11.8-10.5
						c-2.3-2-4.3-3.7-4.3-3.8c-0.1,0-0.5,0.4-1.2,1.4c-0.6,0.8-1.3,1.6-1.5,1.8l-0.3,0.3l2.4,1.8c1.6,1.3,3.1,2.5,4.7,3.8
						c3.5,3,9,7.9,9.4,8.3c0.3,0.3,0.3,0.3,0.7,0.2C-382.4-48.8-382-49.1-381.6-49.3L-381.6-49.3z"/>
				</g>
				<g id="g204">
					<g id="g206">
					</g>
					<g id="g218">
						<g>
							<defs>
								<rect id="SVGID_9_" x="164.6" y="447.6" width="19.6" height="16.2"/>
							</defs>
							<clipPath id="SVGID_10_">
								<use xlink:href="#SVGID_9_"  style="overflow:visible;"/>
							</clipPath>
							<g id="g216" class="st23">
								<g id="g214" transform="translate(463.2645,419.6615)">
									<path id="path212" class="st24" d="M-296.2,30c-0.2,0.2,3,3.1,7,6.4c4.1,3.4,7.5,5.9,7.6,5.7c0.2-0.2-3-3.1-7-6.4
										C-292.6,32.3-296,29.8-296.2,30"/>
								</g>
							</g>
						</g>
					</g>
				</g>
				<g id="g220" transform="translate(474.0399,429.5482)">
					<path id="path222" class="st16" d="M-305.2,21.7l0.3-1.4l-1.2,0.7l-0.3,1.4L-305.2,21.7z"/>
				</g>
				<g id="g224" transform="translate(482.3143,436.5706)">
					<path id="path226" class="st16" d="M-312.1,15.8l0.3-1.4l-1.2,0.7l-0.3,1.4L-312.1,15.8z"/>
				</g>
				<g id="g228" transform="translate(490.4666,442.7606)">
					<path id="path230" class="st16" d="M-318.9,10.7l0.3-1.4l-1.2,0.7l-0.3,1.4L-318.9,10.7z"/>
				</g>
				<g id="g232" transform="translate(498.2567,449.4315)">
					<path id="path234" class="st16" d="M-325.5,5.1l0.3-1.4l-1.2,0.7l-0.3,1.4L-325.5,5.1z"/>
				</g>
				<g id="g236" transform="translate(506.409,455.6214)">
					<path id="path238" class="st16" d="M-332.3-0.1l0.3-1.4l-1.2,0.7l-0.3,1.4L-332.3-0.1z"/>
				</g>
				<g id="g240" transform="translate(514.5613,461.8114)">
					<path id="path242" class="st16" d="M-339.1-5.3l0.3-1.4l-1.2,0.7l-0.3,1.4L-339.1-5.3z"/>
				</g>
				<g id="g244" transform="translate(522.1043,469.7997)">
					<path id="path246" class="st16" d="M-345.4-12l0.3-1.4l-1.2,0.7l-0.3,1.4L-345.4-12z"/>
				</g>
				<g id="g248" transform="translate(529.534,476.9437)">
					<path id="path250" class="st16" d="M-351.6-17.9l0.3-1.4l-1.2,0.7l-0.3,1.4L-351.6-17.9z"/>
				</g>
				<g id="g252" transform="translate(538.5096,486.035)">
					<path id="path254" class="st16" d="M-359.1-25.5l0.3-1.4l-1.2,0.7l-0.3,1.4L-359.1-25.5z"/>
				</g>
				<g id="g256" transform="translate(546.784,493.0575)">
					<path id="path258" class="st16" d="M-366-31.4l0.3-1.4l-1.2,0.7l-0.3,1.4L-366-31.4z"/>
				</g>
				<g id="g260" transform="translate(553.8445,500.6864)">
					<path id="path262" class="st16" d="M-372-37.8l0.3-1.4l-1.2,0.7l-0.3,1.4L-372-37.8z"/>
				</g>
				<g id="g264" transform="translate(562.8865,515.184)">
					<path id="path266" class="st9" d="M-379.5-49.9c1-0.5,1.4-0.9,1.5-1.6c0.1-0.5-0.1-1.3-0.3-1.5c-0.2-0.1-0.2-0.1-0.4,0.4
						c-0.3,0.6-1.3,1.8-1.9,2.3l-0.4,0.4l0.7,0.5L-379.5-49.9z"/>
				</g>
				<g id="g268" transform="translate(562.8865,515.184)">
					<path id="path270" class="st22" d="M-379.5-49.9c1-0.5,1.4-0.9,1.5-1.6c0.1-0.5-0.1-1.3-0.3-1.5c-0.2-0.1-0.2-0.1-0.4,0.4
						c-0.3,0.6-1.3,1.8-1.9,2.3l-0.4,0.4l0.7,0.5L-379.5-49.9z"/>
				</g>
				<g id="g272" transform="translate(194.6922,399.1898)">
					<path id="path274" class="st12" d="M-71.5,47.1c0.3,2,0.7,2,2.3,3.9"/>
				</g>
				<g id="g276" transform="translate(556.952,153.6503)">
					<path id="path278" class="st13" d="M-374.6,252.5c-3.6-0.1-3.4-0.2-7,2.4c-6.8,4.8-26.2,18.8-35.2,25.4
						c-11.6,8.5-16,11.7-16.3,12.3c-0.2,0.4-0.2,0.6,0.7,2.1c0.5,0.9,1,1.6,1,1.6s3-2.5,6.7-5.4c11.2-9,25.8-19.8,41.5-30.8
						c5.7-4,10.3-7.3,10.4-7.3C-372.7,252.6-373.5,252.5-374.6,252.5L-374.6,252.5z"/>
				</g>
				<g id="g280" transform="translate(534.4041,153.4169)">
					<path id="path282" class="st14" d="M-355.7,252.7l0.1,0.3c0.1,0.1,0.1,0.2,0.2,0.4c0.1,0.1,0.1,0.2,0.2,0.3
						c0.1,0.1,0.1,0.2,0.2,0.3c0,0.1,0.1,0.2,0.1,0.2c0,0.1,0,0.1-0.1,0.2c-0.1,0.1-0.2,0.1-0.2,0.2c-0.1,0.1-0.2,0.2-0.3,0.3
						c-0.1,0.1-0.2,0.2-0.3,0.3c-0.1,0.1-0.2,0.1-0.4,0.2c-0.1,0-0.2,0.1-0.3,0.1c-0.1,0-0.3,0.1-0.4,0.1c-0.1,0-0.3,0-0.4,0
						c-0.1,0-0.2,0-0.4,0c-0.1,0-0.3,0.1-0.4,0.1c-0.2,0-0.3,0.1-0.5,0.2c-0.1,0-0.2,0.1-0.4,0.2c-0.1,0.1-0.2,0.2-0.3,0.3
						c-0.1,0.1-0.2,0.2-0.4,0.3c-0.1,0.1-0.2,0.2-0.4,0.3c-0.1,0.1-0.2,0.2-0.4,0.3c-0.1,0.1-0.2,0.2-0.4,0.3
						c-0.1,0.1-0.2,0.2-0.3,0.3c-0.1,0.1-0.3,0.2-0.4,0.2c-0.2,0.1-0.3,0.2-0.5,0.3c-0.2,0.1-0.3,0.2-0.5,0.3
						c-0.2,0.1-0.3,0.2-0.5,0.3c-0.2,0.1-0.3,0.2-0.5,0.3c-0.2,0.1-0.4,0.2-0.5,0.3c-0.2,0.1-0.4,0.3-0.6,0.4
						c-0.2,0.2-0.4,0.3-0.6,0.5c-0.2,0.2-0.4,0.4-0.5,0.5c-0.2,0.2-0.3,0.4-0.5,0.5c-0.2,0.2-0.4,0.3-0.6,0.5
						c-0.2,0.2-0.4,0.3-0.6,0.4c-0.2,0.1-0.3,0.2-0.5,0.3c-0.2,0.1-0.4,0.2-0.6,0.3c-0.2,0.1-0.4,0.2-0.7,0.3
						c-0.3,0.1-0.5,0.2-0.8,0.4c-0.2,0.1-0.4,0.2-0.6,0.4c-0.2,0.1-0.3,0.2-0.5,0.4c-0.2,0.1-0.3,0.3-0.5,0.5
						c-0.2,0.2-0.3,0.3-0.5,0.5c-0.2,0.2-0.3,0.3-0.5,0.5c-0.2,0.2-0.3,0.3-0.5,0.5c-0.2,0.1-0.3,0.3-0.5,0.4
						c-0.2,0.1-0.3,0.2-0.5,0.3c-0.2,0.1-0.4,0.2-0.6,0.3c-0.2,0.1-0.4,0.2-0.6,0.3c-0.2,0.1-0.3,0.1-0.5,0.2
						c-0.1,0.1-0.3,0.1-0.4,0.2c-0.2,0.1-0.3,0.1-0.5,0.2c-0.2,0.1-0.3,0.2-0.5,0.3c-0.1,0.1-0.3,0.2-0.4,0.3
						c-0.2,0.1-0.3,0.3-0.4,0.4c-0.2,0.2-0.4,0.4-0.6,0.6c-0.2,0.2-0.3,0.3-0.5,0.5c-0.1,0.1-0.3,0.3-0.4,0.4
						c-0.1,0.1-0.3,0.3-0.5,0.4c-0.2,0.1-0.3,0.3-0.5,0.4c-0.2,0.1-0.3,0.3-0.5,0.4c-0.2,0.1-0.3,0.3-0.5,0.4
						c-0.2,0.2-0.4,0.3-0.6,0.5c-0.2,0.2-0.4,0.3-0.6,0.4c-0.2,0.1-0.3,0.2-0.5,0.3c-0.2,0.1-0.4,0.2-0.6,0.3
						c-0.2,0.1-0.5,0.2-0.7,0.3c-0.2,0.1-0.4,0.2-0.6,0.3c-0.2,0.1-0.3,0.2-0.5,0.3c-0.2,0.1-0.3,0.2-0.4,0.3
						c-0.2,0.1-0.3,0.3-0.5,0.4c-0.2,0.2-0.3,0.3-0.5,0.5c-0.1,0.1-0.3,0.3-0.4,0.4c-0.2,0.2-0.3,0.3-0.5,0.5
						c-0.2,0.2-0.4,0.4-0.5,0.6c-0.2,0.2-0.3,0.4-0.5,0.6c-0.1,0.2-0.3,0.4-0.5,0.5c-0.1,0.1-0.3,0.3-0.4,0.4
						c-0.1,0.1-0.3,0.2-0.4,0.3c-0.2,0.1-0.3,0.2-0.5,0.3c-0.2,0.1-0.4,0.2-0.5,0.3c-0.2,0.1-0.4,0.2-0.6,0.3
						c-0.2,0.1-0.3,0.1-0.5,0.2c-0.2,0.1-0.3,0.1-0.5,0.2c-0.2,0.1-0.3,0.1-0.5,0.1c-0.2,0-0.3,0.1-0.5,0.2
						c-0.2,0.1-0.3,0.1-0.5,0.2c-0.1,0.1-0.3,0.2-0.4,0.3c-0.1,0.1-0.3,0.2-0.4,0.3c-0.1,0.1-0.3,0.3-0.4,0.4
						c-0.1,0.1-0.2,0.3-0.4,0.4c-0.1,0.1-0.2,0.3-0.4,0.4c-0.1,0.1-0.3,0.3-0.4,0.4c-0.1,0.1-0.2,0.3-0.4,0.4
						c-0.1,0.1-0.2,0.2-0.3,0.4c-0.1,0.1-0.2,0.2-0.3,0.3c-0.1,0.1-0.2,0.2-0.3,0.3c-0.1,0.1-0.2,0.2-0.3,0.2
						c-0.1,0.1-0.2,0.1-0.4,0.2c-0.2,0.1-0.3,0.1-0.5,0.2c-0.1,0-0.2,0.1-0.4,0.1c-0.1,0-0.3,0.1-0.4,0.1c-0.1,0.1-0.3,0.1-0.4,0.2
						c-0.1,0.1-0.3,0.1-0.4,0.2c-0.1,0.1-0.3,0.2-0.4,0.3c-0.1,0.1-0.3,0.2-0.4,0.3c-0.1,0.1-0.2,0.2-0.4,0.4
						c-0.1,0.1-0.2,0.2-0.3,0.4c-0.1,0.1-0.2,0.2-0.3,0.3c-0.1,0.1-0.2,0.3-0.4,0.4c-0.1,0.1-0.2,0.2-0.4,0.3
						c-0.1,0.1-0.2,0.2-0.4,0.3c-0.1,0.1-0.2,0.1-0.3,0.2c-0.1,0.1-0.2,0.1-0.3,0.2c-0.1,0.1-0.2,0.1-0.4,0.2c-0.1,0,0,0-0.1,0.1
						l0.1,0c0.1,0,0,0,0.1-0.1c0.1-0.1,0.2-0.1,0.4-0.2c0.1,0,0.2-0.1,0.3-0.2c0.1-0.1,0.2-0.1,0.3-0.2c0.1-0.1,0.2-0.2,0.4-0.3
						c0.1-0.1,0.3-0.2,0.4-0.3c0.1-0.1,0.2-0.3,0.4-0.4c0.1-0.1,0.2-0.2,0.3-0.3c0.1-0.1,0.2-0.2,0.3-0.4c0.1-0.1,0.2-0.2,0.4-0.4
						c0.1-0.1,0.2-0.2,0.4-0.3c0.1-0.1,0.3-0.2,0.4-0.3c0.1-0.1,0.2-0.2,0.4-0.2c0.1,0,0.2-0.1,0.3-0.1c0.1,0,0.3-0.1,0.4-0.1
						c0.2-0.1,0.3-0.1,0.5-0.2c0.2-0.1,0.3-0.1,0.5-0.2c0.1-0.1,0.3-0.1,0.4-0.2c0.1-0.1,0.2-0.2,0.3-0.2c0.1-0.1,0.2-0.2,0.3-0.3
						c0.1-0.1,0.2-0.2,0.3-0.3c0.1-0.1,0.2-0.2,0.3-0.4c0.1-0.1,0.2-0.3,0.4-0.4c0.1-0.1,0.3-0.3,0.4-0.4c0.1-0.1,0.2-0.3,0.4-0.4
						c0.1-0.1,0.2-0.3,0.4-0.4c0.1-0.1,0.3-0.3,0.4-0.4c0.1-0.1,0.3-0.2,0.4-0.3c0.1-0.1,0.3-0.2,0.4-0.3c0.1-0.1,0.2-0.1,0.3-0.2
						c0.2-0.1,0.3-0.1,0.5-0.2c0.2-0.1,0.3-0.1,0.5-0.1c0.2-0.1,0.3-0.1,0.5-0.2c0.2-0.1,0.4-0.1,0.6-0.2c0.2-0.1,0.4-0.2,0.6-0.3
						c0.2-0.1,0.4-0.2,0.5-0.3c0.2-0.1,0.3-0.2,0.5-0.3c0.1-0.1,0.3-0.2,0.4-0.3c0.1-0.1,0.3-0.3,0.4-0.4c0.2-0.2,0.3-0.3,0.5-0.5
						c0.2-0.2,0.3-0.4,0.5-0.6c0.2-0.2,0.4-0.4,0.5-0.6c0.2-0.2,0.3-0.4,0.5-0.5c0.1-0.1,0.3-0.3,0.4-0.4c0.2-0.2,0.3-0.3,0.5-0.5
						c0.2-0.1,0.3-0.3,0.5-0.4c0.1-0.1,0.3-0.2,0.4-0.3c0.2-0.1,0.3-0.2,0.5-0.3c0.2-0.1,0.4-0.2,0.6-0.3c0.2-0.1,0.4-0.1,0.6-0.2
						c0.3-0.1,0.5-0.2,0.8-0.3c0.2-0.1,0.4-0.2,0.5-0.3c0.2-0.1,0.4-0.3,0.6-0.4c0.2-0.2,0.4-0.3,0.6-0.5c0.2-0.1,0.3-0.3,0.5-0.4
						c0.2-0.1,0.3-0.3,0.5-0.4c0.2-0.1,0.3-0.3,0.5-0.4c0.2-0.1,0.3-0.3,0.5-0.4c0.1-0.1,0.3-0.3,0.4-0.4c0.2-0.2,0.3-0.3,0.5-0.5
						c0.2-0.2,0.4-0.4,0.6-0.6c0.1-0.1,0.3-0.3,0.4-0.4c0.1-0.1,0.3-0.2,0.4-0.3c0.2-0.1,0.3-0.2,0.5-0.3c0.2-0.1,0.3-0.2,0.5-0.2
						c0.1-0.1,0.3-0.1,0.4-0.2c0.2-0.1,0.3-0.1,0.5-0.2c0.2-0.1,0.4-0.2,0.6-0.3c0.2-0.1,0.4-0.2,0.6-0.3c0.2-0.1,0.3-0.2,0.5-0.3
						c0.2-0.1,0.3-0.3,0.5-0.4c0.2-0.2,0.3-0.3,0.5-0.5c0.1-0.2,0.3-0.3,0.5-0.5c0.2-0.2,0.3-0.3,0.5-0.5c0.2-0.2,0.3-0.3,0.5-0.5
						c0.2-0.1,0.3-0.3,0.5-0.4c0.2-0.1,0.4-0.2,0.6-0.3c0.3-0.1,0.5-0.3,0.8-0.4c0.2-0.1,0.4-0.2,0.7-0.3c0.2-0.1,0.4-0.2,0.6-0.3
						c0.2-0.1,0.4-0.2,0.5-0.3c0.2-0.1,0.4-0.3,0.6-0.4c0.2-0.2,0.4-0.3,0.6-0.5c0.2-0.2,0.3-0.3,0.5-0.5c0.2-0.2,0.4-0.4,0.5-0.5
						c0.2-0.2,0.4-0.3,0.6-0.5c0.2-0.2,0.4-0.3,0.6-0.4c0.2-0.1,0.3-0.2,0.5-0.3c0.2-0.1,0.4-0.2,0.5-0.3c0.2-0.1,0.3-0.2,0.5-0.3
						c0.2-0.1,0.3-0.2,0.5-0.3c0.2-0.1,0.3-0.2,0.5-0.3c0.1-0.1,0.3-0.2,0.4-0.2c0.1-0.1,0.2-0.2,0.3-0.3c0.1-0.1,0.2-0.2,0.4-0.3
						c0.1-0.1,0.2-0.2,0.4-0.3c0.1-0.1,0.2-0.2,0.4-0.3c0.1-0.1,0.2-0.2,0.4-0.3c0.1-0.1,0.2-0.2,0.3-0.3c0.1-0.1,0.2-0.1,0.4-0.2
						c0.1,0,0.2-0.1,0.3-0.1c0.1,0,0.3-0.1,0.4-0.1c0.1,0,0.2,0,0.4,0c0.1,0,0.3,0,0.4,0c0.1,0,0.3,0,0.4-0.1c0.2,0,0.3-0.1,0.4-0.1
						c0.1-0.1,0.2-0.1,0.4-0.2c0.1-0.1,0.2-0.2,0.3-0.3c0.1-0.1,0.2-0.2,0.3-0.3c0.1-0.1,0.2-0.1,0.2-0.2c0,0,0.1-0.1,0.1-0.2
						c0-0.1,0-0.2-0.1-0.2c-0.1-0.1-0.1-0.2-0.2-0.3c-0.1-0.1-0.1-0.2-0.2-0.3c-0.1-0.1-0.1-0.2-0.2-0.4
						C-355.6,252.8-355.6,252.8-355.7,252.7L-355.7,252.7z"/>
				</g>
				<g id="g284" transform="translate(240.7083,374.7645)">
					<path id="path286" class="st14" d="M-110,67.5c-0.1,0-0.1,0-0.2,0.1c-0.1,0-0.1,0.1-0.2,0.1c-0.1,0-0.1,0-0.2,0
						c-0.1,0-0.1,0-0.2,0c-0.1,0-0.1,0-0.2,0c-0.1,0-0.1,0-0.2,0.1c-0.1,0-0.2,0.1-0.2,0.1c-0.1,0-0.1,0.1-0.2,0.1
						c-0.1,0-0.1,0.1-0.2,0.1c-0.1,0-0.1,0.1-0.2,0.1c-0.1,0-0.1,0.1-0.2,0.2c-0.1,0.1-0.1,0.1-0.2,0.2c-0.1,0.1-0.1,0.1-0.2,0.2
						c-0.1,0.1-0.1,0.1-0.1,0.2c0,0.1-0.1,0.1-0.1,0.2c-0.2,0.3-0.4,0.6-0.7,0.8c-0.2,0.3-0.5,0.6-0.7,0.8c-0.2,0.2-0.3,0.3-0.5,0.5
						c-0.1,0.1-0.3,0.2-0.4,0.3c-0.1,0.1-0.2,0.1-0.3,0.2c-0.1,0-0.2,0.1-0.3,0.1c-0.1,0-0.2,0.1-0.3,0.1c-0.1,0-0.2,0-0.2,0.1
						c-0.1,0-0.1,0-0.2,0.1c-0.1,0-0.2,0.1-0.2,0.1c-0.1,0-0.1,0.1-0.2,0.1c0,0-0.1,0.1-0.1,0.1l0,0c0,0,0.1-0.1,0.1-0.1
						c0.1,0,0.1-0.1,0.2-0.1c0.1,0,0.1,0,0.2-0.1c0.1,0,0.1,0,0.2-0.1c0.1,0,0.2,0,0.2-0.1c0.1,0,0.2-0.1,0.3-0.1
						c0.1,0,0.2-0.1,0.3-0.1c0.1-0.1,0.2-0.1,0.3-0.2c0.1-0.1,0.3-0.2,0.4-0.3c0.2-0.2,0.3-0.3,0.5-0.5c0.2-0.3,0.5-0.6,0.7-0.8
						c0.2-0.3,0.4-0.6,0.7-0.8c0-0.1,0.1-0.1,0.1-0.2c0-0.1,0.1-0.1,0.1-0.2c0.1-0.1,0.1-0.1,0.2-0.2c0.1-0.1,0.1-0.1,0.2-0.2
						c0.1-0.1,0.1-0.1,0.2-0.1c0.1,0,0.1-0.1,0.2-0.1c0.1,0,0.1-0.1,0.2-0.1c0.1,0,0.1-0.1,0.2-0.1c0.1,0,0.1,0,0.2-0.1
						c0.1,0,0.1,0,0.2-0.1c0.1,0,0.1,0,0.2,0c0.1,0,0.1,0,0.2,0c0.1,0,0.2,0,0.2-0.1c0.1,0,0.1-0.1,0.2-0.1
						C-110.1,67.6-110,67.6-110,67.5L-110,67.5z"/>
				</g>
				<g id="g288" transform="translate(375.2254,272.0995)">
					<path id="path290" class="st14" d="M-222.5,153.4l-0.4-0.3l-1.4,1c-7.3,5.2-16.5,12-20.5,15c-4,3-5.6,4.2-6.3,4.9
						c-0.3,0.2-0.3,0.5-0.2,0.9c0.1,0.3,0.1,0.3,0.3,0.2c0.1-0.1,0.4-0.2,0.6-0.2c1.1-0.4,1.5-0.7,2.8-2.3c1-1.2,1-1.3,1.3-1.5
						c0.4-0.3,0.6-0.4,0.9-0.5c0.2,0,0.5-0.2,0.8-0.3c0.8-0.4,1.2-0.7,1.9-1.4c1.2-1.4,1.8-1.8,2.9-2.2c0.6-0.2,1.1-0.4,1.2-0.5
						c0.4-0.3,1-0.8,1.8-1.7c1-1.2,1.4-1.5,1.9-1.9c0.4-0.3,0.7-0.4,1.7-0.7c1.6-0.5,2.5-1,3.2-1.6c0.1-0.1,0.7-0.7,1.2-1.3
						c1-1.2,1.2-1.4,1.8-2c0.4-0.4,0.7-0.7,1-0.8c0.4-0.2,1.2-0.6,1.7-0.8c0.3-0.1,0.7-0.3,0.8-0.3c0.2-0.1,0.7-0.5,1.4-1l0.2-0.2
						L-222.5,153.4L-222.5,153.4z"/>
				</g>
				<g id="g292" transform="translate(538.1033,161.0858)">
					<path id="path294" class="st14" d="M-358.8,246.3c-0.1-0.2-0.2-0.4-0.3-0.6l-0.2-0.3l-0.2,0.1c-0.4,0.2-1,0.6-2.1,1.3
						c-1.2,0.8-16.8,12-21.1,15.1c-1.6,1.2-3,2.2-3.1,2.2c-0.1,0.1,0,0.1,0.3,0.4c0.2,0.2,0.4,0.3,0.4,0.3c0.1,0,1.9-1.5,2.3-1.9
						c0.2-0.2,0.6-0.6,1-1c0.7-0.7,1.2-1.1,2.5-1.6c1.7-0.7,2.3-1.1,3.6-2.6c1-1.1,1.3-1.3,3.3-2.3c0.5-0.3,1.2-0.7,1.5-0.9
						c0.5-0.4,0.7-0.6,1.9-1.7c0.7-0.7,1.2-1.1,2.1-1.5c1.2-0.6,2.2-1.3,2.9-1.9c1.4-1.2,1.7-1.4,3.1-1.6c0.9-0.1,1.1-0.2,1.7-0.7
						C-358.6,246.6-358.6,246.6-358.8,246.3L-358.8,246.3z"/>
				</g>
				<g id="g296" transform="translate(375.2078,272.162)">
					<path id="path298" class="st14" d="M-222.5,153.4l-0.4-0.3l-0.3,0.2c-0.2,0.1-0.4,0.3-0.4,0.3c-0.1,0-0.1,0.1-0.1,0.1
						c0,0-0.6,0.4-0.8,0.5c-0.1,0-0.1,0.1-0.1,0.1c0,0-0.6,0.4-0.8,0.5c-0.1,0-0.1,0.1-0.1,0.1c0,0-0.6,0.4-0.8,0.5
						c-0.1,0-0.1,0.1-0.1,0.1c0,0-0.6,0.4-0.8,0.5c-0.1,0-0.1,0.1-0.1,0.1c0,0-0.6,0.4-0.8,0.5c-0.1,0-0.1,0.1-0.1,0.1
						c-0.3,0.2-0.5,0.4-0.6,0.4c0,0-0.1,0-0.1,0c0,0.1-0.7,0.6-0.8,0.6c0,0-0.1,0-0.1,0.1c-0.1,0.2-0.8,0.6-0.8,0.6c0,0-0.1,0-0.1,0
						c0,0.1-0.7,0.6-0.8,0.6c0,0-0.1,0-0.1,0.1c-0.1,0.2-0.8,0.6-0.8,0.6c0,0-0.1,0-0.1,0c0,0.1-0.7,0.6-0.8,0.6c0,0-0.1,0-0.1,0.1
						c0,0.1-0.7,0.6-0.8,0.6c0,0-0.1,0-0.1,0.1c0,0.1-0.7,0.6-0.8,0.6c0,0-0.1,0-0.1,0.1c0,0.1-0.7,0.6-0.8,0.6c0,0-0.1,0-0.1,0.1
						c0,0.1-0.1,0.1-0.1,0.1c0,0-0.1,0-0.1,0c0,0.1-1,0.8-1,0.8c0,0-0.1,0-0.1,0.1c0,0.1-1,0.8-1,0.8c0,0-0.1,0-0.1,0.1
						c0,0.1-0.1,0.1-0.1,0.1c0,0-0.1,0-0.1,0c0,0.1-1,0.8-1,0.8c0,0-0.1,0-0.1,0.1c0,0.1-1.2,1-1.3,0.9c0,0-0.1,0-0.1,0
						c0,0.1-3.4,2.6-3.5,2.6c0,0-0.1,0-0.1,0.1c0,0.1-0.1,0.1-0.1,0.1c0,0-0.1,0-0.1,0.1c0,0.1-0.1,0.1-0.1,0.1c0,0-0.1,0-0.1,0.1
						c0,0.1-0.1,0.1-0.1,0.1c0,0-0.1,0-0.1,0c0,0.1-2.8,2.2-2.9,2.2c0,0-0.1,0-0.1,0.1c0,0.1-0.5,0.5-0.7,0.5c-0.1,0-0.1,0-0.1,0.1
						c0,0.1-0.4,0.4-0.6,0.5c-0.1,0-0.1,0.1-0.2,0.1c-0.2,0.3-0.6,0.5-0.6,0.5c0,0-0.1,0-0.1,0c0,0-0.2,0.3-0.5,0.5
						c-0.5,0.5-0.6,0.6-0.5,1.1c0.1,0.3,0.2,0.4,0.2,0.3c0,0,0.4-0.2,0.8-0.3c1.1-0.5,1.2-0.5,2.6-2.2c0.7-0.9,1.3-1.5,1.5-1.6
						c0.1-0.1,0.6-0.3,1.1-0.5c1.1-0.5,1.4-0.7,2.2-1.5c0.9-1,1.7-1.6,2.1-1.9c0.2-0.1,0.7-0.4,1.2-0.5c0.5-0.2,1-0.4,1.2-0.5
						c0.3-0.2,0.9-0.8,2.2-2.2c1.2-1.3,1.5-1.5,2.7-1.9c3-1.1,3-1,5.3-3.7c1.8-2,1.9-2.1,3.9-3c1-0.4,1.1-0.5,1.9-1.1l0.6-0.4
						L-222.5,153.4L-222.5,153.4z"/>
				</g>
				<g id="g300" transform="translate(572.9461,152.6766)">
					<path id="path302" class="st15" d="M-387.9,253.3c0,0,0-0.4-0.3,0.2c-0.4,0.6-1.5,0.9-2.4,1.6c-0.9-0.3-2.5,0.4-2.9,0
						c-0.1-0.1-0.1-0.8-0.9-1.5"/>
				</g>
				<g id="g304" transform="translate(538.5692,163.8133)">
					<path id="path306" class="st16" d="M-359.2,244c0,0.1,0,0.1,0,0.2c0,0.1,0,0.2,0.1,0.2c0,0.1,0.1,0.2,0.1,0.3
						c0,0.1,0.1,0.1,0.1,0.2c0,0.1,0.1,0.1,0.1,0.2c0,0.1,0.1,0.1,0.1,0.2c0,0.1,0.1,0.1,0.1,0.2l0,0l0,0l0,0c0-0.1-0.1-0.1-0.1-0.2
						c0-0.1-0.1-0.1-0.1-0.2c0-0.1-0.1-0.1-0.1-0.2c0-0.1-0.1-0.1-0.1-0.2c0-0.1-0.1-0.2-0.1-0.3c0-0.1,0-0.2-0.1-0.2
						C-359.1,244.1-359.1,244-359.2,244L-359.2,244z"/>
				</g>
				<g id="g308" transform="translate(555.3182,163.2938)">
					<path id="path310" d="M-373.2,244.4c-0.2,0-0.8,0-1.4,0.1c-0.7,0.1-0.9,0.1-1.1,0.1l-0.1,0l0.1,0.2c0,0.1,0.1,0.3,0.1,0.4
						c0.1,0.2,0.5,0.8,0.5,0.8C-375.2,245.9-373.4,244.6-373.2,244.4C-373.1,244.5-373.1,244.4-373.2,244.4"/>
				</g>
				<g id="g312" transform="translate(538.7029,168.1766)">
					<path id="path314" class="st17" d="M-359.3,240.3c0,0-51.6,37.1-53,38.8l-1.4,1.7"/>
				</g>
			</g>
		</g>
	</g>
	<g id="g316">
		<g>
			<defs>
				<polygon id="SVGID_11_" points="122.5,446.9 125.3,444.7 127.9,448.3 125.1,450.5 				"/>
			</defs>
			<clipPath id="SVGID_12_">
				<use xlink:href="#SVGID_11_"  style="overflow:visible;"/>
			</clipPath>
			<g id="g318" class="st25">
				<g id="g324">
					<g id="g326">
						
							<linearGradient id="path334_1_" gradientUnits="userSpaceOnUse" x1="-70.6664" y1="89.3011" x2="-70.5028" y2="89.3011" gradientTransform="matrix(21.1034 29.3249 -28.5823 22.0987 4167.6416 544.6534)">
							<stop  offset="0" style="stop-color:#000000"/>
							<stop  offset="1" style="stop-color:#DCE0DF"/>
						</linearGradient>
						<path id="path334" class="st26" d="M122.5,446.9l2.8-2.2l2.6,3.6l-2.8,2.2L122.5,446.9z"/>
					</g>
				</g>
			</g>
		</g>
	</g>
	<g id="g336">
		<g>
			<defs>
				<rect id="SVGID_13_" x="73.6" y="365.4" width="141.9" height="124.7"/>
			</defs>
			<clipPath id="SVGID_14_">
				<use xlink:href="#SVGID_13_"  style="overflow:visible;"/>
			</clipPath>
			<g id="g338" class="st27">
				<g id="g344">
					<g id="g346">
					</g>
					<g id="g358">
						<g>
							<defs>
								<rect id="SVGID_15_" x="118.9" y="442.9" width="10.9" height="11.3"/>
							</defs>
							<clipPath id="SVGID_16_">
								<use xlink:href="#SVGID_15_"  style="overflow:visible;"/>
							</clipPath>
							<g id="g356" class="st28">
								<g id="g354" transform="translate(192.5237,422.0326)">
									<path id="path352" class="st9" d="M-69.7,28c1,1.2,2,2,2.9,2.4c0.7,0.3,1.3,0.4,1.6,0.2c0.6-0.3,0.5-1.8-0.6-3.1l-0.1-0.1
										l-0.2,0.1c-0.1,0.1-0.4,0.2-0.6,0.4l-0.4,0.3l0.1,0l-0.1-0.1l0.5-0.4c0.3-0.2,0.5-0.4,0.5-0.4c0,0,0.1-0.1,0.3-0.2
										c0.2-0.1,0.6-0.5,1-0.8l0.8-0.6l-1.3,1c-0.7,0.5-1.4,1.1-1.6,1.2l-0.3,0.2l0,0.1c0,0,0,0.1,0,0.1c0,0-0.1-0.1-0.2-0.2
										c-0.1-0.1-0.4-0.4-0.6-0.6c-0.2-0.3-0.5-0.6-0.7-0.8c-0.4-0.5-0.4-0.6-0.6-1.1c-0.1-0.2-0.1-0.3-0.2-0.4
										c-0.1-0.1-0.1-0.2-0.2-0.3l-0.1-0.2l0.1-0.1c0.3-0.4,0.8-0.4,0.8-0.7c-0.3-0.2-0.4-0.4-0.6-0.6c-0.2-0.2-0.4-0.4-0.6-0.6
										c-0.6-0.4-1.3-0.5-2.1,0.1l0,0.1c-0.1,0.9,0.1,1.3,0.3,1.9c0.2,0.4,0.5,1,0.5,1c0.1,0,0.1,0.1,0.1,0.1c0,0,0,0.1,0,0.1
										C-71.1,26.1-69.9,27.8-69.7,28z"/>
								</g>
							</g>
						</g>
					</g>
				</g>
				<g id="g360" transform="translate(90.2376,514.3988)">
					<path id="path362" class="st9" d="M15.8-49.3c0.3,0.2,0.8,0.4,1,0.5c0.4,0.1,0.4,0.1,0.7-0.2c0.4-0.4,5.9-5.3,9.4-8.3
						c1.6-1.4,3-2.6,4.7-3.8l2.4-1.8l-0.3-0.3c-0.2-0.2-0.9-1-1.5-1.8c-0.8-1-1.2-1.5-1.2-1.4c0,0-2,1.7-4.3,3.8
						C19-56,15.1-52.5,14.8-52.2c-0.2,0.3-0.3,1-0.2,1.5C14.8-50.1,15.1-49.7,15.8-49.3L15.8-49.3z"/>
				</g>
				<g id="g364" transform="translate(90.2376,514.3988)">
					<path id="path366" class="st22" d="M15.8-49.3c0.3,0.2,0.8,0.4,1,0.5c0.4,0.1,0.4,0.1,0.7-0.2c0.4-0.4,5.9-5.3,9.4-8.3
						c1.6-1.4,3-2.6,4.7-3.8l2.4-1.8l-0.3-0.3c-0.2-0.2-0.9-1-1.5-1.8c-0.8-1-1.2-1.5-1.2-1.4c0,0-2,1.7-4.3,3.8
						C19-56,15.1-52.5,14.8-52.2c-0.2,0.3-0.3,1-0.2,1.5C14.8-50.1,15.1-49.7,15.8-49.3L15.8-49.3z"/>
				</g>
				<g id="g368">
					<g id="g370">
					</g>
					<g id="g382">
						<g>
							<defs>
								<rect id="SVGID_17_" x="105.6" y="447.6" width="19.6" height="16.2"/>
							</defs>
							<clipPath id="SVGID_18_">
								<use xlink:href="#SVGID_17_"  style="overflow:visible;"/>
							</clipPath>
							<g id="g380" class="st29">
								<g id="g378" transform="translate(145.6526,454.5706)">
									<path id="path376" class="st24" d="M-30.5,0.8c-4.1,3.4-7.2,6.2-7,6.4c0.2,0.2,3.6-2.4,7.6-5.7c4.1-3.4,7.2-6.2,7-6.4
										C-23-5.1-26.4-2.6-30.5,0.8"/>
								</g>
							</g>
						</g>
					</g>
				</g>
				<g id="g384" transform="translate(189.2493,433.7406)">
					<path id="path386" class="st16" d="M-67,18.2l-0.3-1.4l-1.2-0.7l0.3,1.4L-67,18.2z"/>
				</g>
				<g id="g388" transform="translate(180.9744,440.7625)">
					<path id="path390" class="st16" d="M-60.1,12.3l-0.3-1.4l-1.2-0.7l0.3,1.4L-60.1,12.3z"/>
				</g>
				<g id="g392" transform="translate(172.8226,446.9525)">
					<path id="path394" class="st16" d="M-53.2,7.2l-0.3-1.4L-54.8,5l0.3,1.4L-53.2,7.2z"/>
				</g>
				<g id="g396" transform="translate(165.032,453.6239)">
					<path id="path398" class="st16" d="M-46.7,1.6L-47,0.1l-1.2-0.7l0.3,1.4L-46.7,1.6z"/>
				</g>
				<g id="g400" transform="translate(156.8802,459.8133)">
					<path id="path402" class="st16" d="M-39.9-3.6L-40.2-5l-1.2-0.7l0.3,1.4L-39.9-3.6z"/>
				</g>
				<g id="g404" transform="translate(148.7278,466.0033)">
					<path id="path406" class="st16" d="M-33.1-8.8l-0.3-1.4l-1.2-0.7l0.3,1.4L-33.1-8.8z"/>
				</g>
				<g id="g408" transform="translate(141.1844,473.992)">
					<path id="path410" class="st16" d="M-26.8-15.5l-0.3-1.4l-1.2-0.7l0.3,1.4L-26.8-15.5z"/>
				</g>
				<g id="g412" transform="translate(133.7547,481.1356)">
					<path id="path414" class="st16" d="M-20.6-21.4l-0.3-1.4l-1.2-0.7l0.3,1.4L-20.6-21.4z"/>
				</g>
				<g id="g416" transform="translate(124.7796,490.2274)">
					<path id="path418" class="st16" d="M-13-29l-0.3-1.4l-1.2-0.7l0.3,1.4L-13-29z"/>
				</g>
				<g id="g420" transform="translate(116.5047,497.2498)">
					<path id="path422" class="st16" d="M-6.1-34.9l-0.3-1.4L-7.6-37l0.3,1.4L-6.1-34.9z"/>
				</g>
				<g id="g424" transform="translate(109.4442,504.8788)">
					<path id="path426" class="st16" d="M-0.2-41.3l-0.3-1.4l-1.2-0.7l0.3,1.4L-0.2-41.3z"/>
				</g>
				<g id="g428" transform="translate(92.7596,515.1835)">
					<path id="path430" class="st9" d="M13.7-49.9l0.9,0.5l0.7-0.5l-0.4-0.4c-0.6-0.5-1.6-1.7-1.9-2.3c-0.3-0.5-0.3-0.5-0.4-0.4
						c-0.2,0.2-0.4,0.9-0.3,1.5C12.3-50.9,12.7-50.5,13.7-49.9z"/>
				</g>
				<g id="g432" transform="translate(92.7596,515.1835)">
					<path id="path434" class="st22" d="M13.7-49.9l0.9,0.5l0.7-0.5l-0.4-0.4c-0.6-0.5-1.6-1.7-1.9-2.3c-0.3-0.5-0.3-0.5-0.4-0.4
						c-0.2,0.2-0.4,0.9-0.3,1.5C12.3-50.9,12.7-50.5,13.7-49.9z"/>
				</g>
			</g>
		</g>
	</g>
</g>
<circle class="st30" cx="192.7" cy="192.4" r="5.8"/>
<circle class="st31" cx="192.7" cy="192.4" r="101.8"/>
<circle class="st31" cx="192.7" cy="192.4" r="167.5"/>
<g>
	<path d="M68.7,377.5c0,1.5-0.5,2.8-1.6,3.9c-1.1,1.1-2.4,1.6-3.9,1.6h-33v-27.5h33c1.5,0,2.8,0.5,3.9,1.6c1.1,1.1,1.6,2.4,1.6,3.9
		V377.5z M57.7,376.4v-14.3c0-0.7-0.4-1.1-1.1-1.1H41.2v16.5h15.4C57.4,377.5,57.7,377.2,57.7,376.4z"/>
	<path d="M112.7,377.5c0,1.5-0.5,2.8-1.6,3.9c-1.1,1.1-2.4,1.6-3.9,1.6h-33v-5.5h26.4c0.7,0,1.1-0.4,1.1-1.1v-20.9h11V377.5z"/>
	<path d="M55.6,416.2c0,1-0.4,1.9-1.1,2.7c-0.7,0.7-1.6,1.1-2.7,1.1H29.4v-3.8h18c0.5,0,0.8-0.2,0.8-0.8v-2.2c0-0.5-0.3-0.8-0.8-0.8
		H33.1c-1,0-1.9-0.4-2.7-1.1c-0.7-0.7-1.1-1.6-1.1-2.7v-3.8c0-1,0.4-1.9,1.1-2.7c0.7-0.7,1.6-1.1,2.7-1.1h22.5v3.8h-18
		c-0.5,0-0.8,0.3-0.8,0.8v2.2c0,0.5,0.2,0.8,0.8,0.8h14.2c1,0,1.9,0.4,2.7,1.1c0.7,0.7,1.1,1.6,1.1,2.7V416.2z"/>
	<path d="M85.6,416.2c0,1-0.4,1.9-1.1,2.7c-0.7,0.7-1.6,1.1-2.7,1.1H63.1c-1,0-1.9-0.4-2.7-1.1c-0.7-0.7-1.1-1.6-1.1-2.7v-15h7.5
		v14.2c0,0.5,0.2,0.8,0.8,0.8h9.8c0.5,0,0.8-0.2,0.8-0.8v-14.2h7.5V416.2z"/>
	<path d="M115.6,408.7c0,1-0.4,1.9-1.1,2.7c-0.7,0.7-1.6,1.1-2.7,1.1h-15v7.5h-7.5v-18.8h22.5c1,0,1.9,0.4,2.7,1.1
		c0.7,0.7,1.1,1.6,1.1,2.7V408.7z M108.1,407.9v-2.2c0-0.5-0.3-0.8-0.8-0.8H96.9v3.8h10.5C107.9,408.7,108.1,408.4,108.1,407.9z"/>
	<path d="M145.6,419.9h-26.2v-18.8h26.2v3.8h-18.8v3.8h7.5v3.8h-7.5v3.8h18.8V419.9z"/>
	<path d="M175.6,419.9h-7.5l-7.5-7.5h-3.8v7.5h-7.5v-18.8h22.5c1,0,1.9,0.4,2.7,1.1c0.7,0.7,1.1,1.6,1.1,2.7v3.8
		c0,1-0.4,1.9-1.1,2.7c-0.7,0.7-1.6,1.1-2.7,1.1h-3.7L175.6,419.9z M168.1,407.9v-2.2c0-0.5-0.3-0.8-0.8-0.8h-10.5v3.8h10.5
		C167.9,408.7,168.1,408.4,168.1,407.9z"/>
	<path d="M205.6,404.9h-9.4v15h-7.5v-15h-9.4v-3.8h26.2V404.9z"/>
	<path d="M235.6,419.9h-26.2v-18.8h26.2v3.8h-18.8v3.8h7.5v3.8h-7.5v3.8h18.8V419.9z"/>
	<path d="M265.6,419.9h-22.5c-1,0-1.9-0.4-2.7-1.1c-0.7-0.7-1.1-1.6-1.1-2.7v-11.2c0-1,0.4-1.9,1.1-2.7c0.7-0.7,1.6-1.1,2.7-1.1
		h22.5v3.8h-18c-0.5,0-0.8,0.3-0.8,0.8v9.8c0,0.5,0.2,0.8,0.8,0.8h18V419.9z"/>
	<path d="M295.6,419.9h-7.5v-7.5h-11.2v7.5h-7.5v-18.8h7.5v7.5h11.2v-7.5h7.5V419.9z"/>
	<path d="M325.6,419.9h-22.5c-1,0-1.9-0.4-2.7-1.1c-0.7-0.7-1.1-1.6-1.1-2.7v-11.2c0-1,0.4-1.9,1.1-2.7c0.7-0.7,1.6-1.1,2.7-1.1
		h22.5v3.8h-18c-0.5,0-0.8,0.3-0.8,0.8v9.8c0,0.5,0.2,0.8,0.8,0.8h10.5v-3.8h-7.5v-3.8h15V419.9z"/>
	<path d="M355.6,416.2c0,1-0.4,1.9-1.1,2.7c-0.7,0.7-1.6,1.1-2.7,1.1h-18.8c-1,0-1.9-0.4-2.7-1.1c-0.7-0.7-1.1-1.6-1.1-2.7v-15h7.5
		v14.2c0,0.5,0.2,0.8,0.8,0.8h9.8c0.5,0,0.8-0.2,0.8-0.8v-14.2h7.5V416.2z"/>
	<path d="M385.6,401.2l-9.4,9.4v9.3h-7.5v-9.3l-9.4-9.4h7.5l5.6,5.6l5.6-5.6H385.6z"/>
</g>
</svg>
