<?xml version="1.0" encoding="UTF-8" standalone="no"?>
<!-- Created with Inkscape (http://www.inkscape.org/) -->

<svg
   xmlns:dc="http://purl.org/dc/elements/1.1/"
   xmlns:cc="http://creativecommons.org/ns#"
   xmlns:rdf="http://www.w3.org/1999/02/22-rdf-syntax-ns#"
   xmlns:svg="http://www.w3.org/2000/svg"
   xmlns="http://www.w3.org/2000/svg"
   xmlns:sodipodi="http://sodipodi.sourceforge.net/DTD/sodipodi-0.dtd"
   xmlns:inkscape="http://www.inkscape.org/namespaces/inkscape"
   version="1.1"
   id="svg2"
   xml:space="preserve"
   width="867.95068"
   height="762.81201"
   viewBox="0 0 867.95068 762.81201"
   sodipodi:docname="supertechguy-avatar-fixed.svg"
   inkscape:version="0.92.3 (2405546, 2018-03-11)"><metadata
     id="metadata8"><rdf:RDF><cc:Work
         rdf:about=""><dc:format>image/svg+xml</dc:format><dc:type
           rdf:resource="http://purl.org/dc/dcmitype/StillImage" /><dc:title></dc:title></cc:Work></rdf:RDF></metadata><defs
     id="defs6"><clipPath
       clipPathUnits="userSpaceOnUse"
       id="clipPath18"><path
         d="M 0,572.109 H 650.963 V 0 H 0 Z"
         id="path16"
         inkscape:connector-curvature="0" /></clipPath><clipPath
       clipPathUnits="userSpaceOnUse"
       id="clipPath158"><path
         d="m 432.029,411.603 15.828,-21.993 17.082,13.208 -15.827,21.993 z"
         id="path156"
         inkscape:connector-curvature="0" /></clipPath><linearGradient
       x1="0"
       y1="0"
       x2="1"
       y2="0"
       gradientUnits="userSpaceOnUse"
       gradientTransform="matrix(-15.827573,21.993669,21.436712,16.57403,456.39835,396.21359)"
       spreadMethod="pad"
       id="linearGradient168"><stop
         style="stop-opacity:1;stop-color:#ffffff"
         offset="0"
         id="stop164" /><stop
         style="stop-opacity:1;stop-color:#231f20"
         offset="1"
         id="stop166" /></linearGradient><clipPath
       clipPathUnits="userSpaceOnUse"
       id="clipPath178"><path
         d="M 0,572.109 H 650.963 V 0 H 0 Z"
         id="path176"
         inkscape:connector-curvature="0" /></clipPath><clipPath
       clipPathUnits="userSpaceOnUse"
       id="clipPath186"><path
         d="m 428.301,438.829 h 50.102 V 386.98 h -50.102 z"
         id="path184"
         inkscape:connector-curvature="0" /></clipPath><clipPath
       clipPathUnits="userSpaceOnUse"
       id="clipPath210"><path
         d="m 463.227,493.949 h 89.896 v -74.354 h -89.896 z"
         id="path208"
         inkscape:connector-curvature="0" /></clipPath><clipPath
       clipPathUnits="userSpaceOnUse"
       id="clipPath322"><path
         d="m 190.706,402.818 17.083,-13.208 15.828,21.993 -17.082,13.208 z"
         id="path320"
         inkscape:connector-curvature="0" /></clipPath><linearGradient
       x1="0"
       y1="0"
       x2="1"
       y2="0"
       gradientUnits="userSpaceOnUse"
       gradientTransform="matrix(15.827573,21.993669,-21.436712,16.57403,199.24812,396.21359)"
       spreadMethod="pad"
       id="linearGradient332"><stop
         style="stop-opacity:1;stop-color:#ffffff"
         offset="0"
         id="stop328" /><stop
         style="stop-opacity:1;stop-color:#231f20"
         offset="1"
         id="stop330" /></linearGradient><clipPath
       clipPathUnits="userSpaceOnUse"
       id="clipPath342"><path
         d="M 0,572.109 H 650.963 V 0 H 0 Z"
         id="path340"
         inkscape:connector-curvature="0" /></clipPath><clipPath
       clipPathUnits="userSpaceOnUse"
       id="clipPath350"><path
         d="m 177.244,438.829 h 50.101 V 386.98 h -50.101 z"
         id="path348"
         inkscape:connector-curvature="0" /></clipPath><clipPath
       clipPathUnits="userSpaceOnUse"
       id="clipPath374"><path
         d="M 102.523,493.949 H 192.42 V 419.595 H 102.523 Z"
         id="path372"
         inkscape:connector-curvature="0" /></clipPath></defs><sodipodi:namedview
     pagecolor="#ffffff"
     bordercolor="#666666"
     borderopacity="1"
     objecttolerance="10"
     gridtolerance="10"
     guidetolerance="10"
     inkscape:pageopacity="0"
     inkscape:pageshadow="2"
     inkscape:window-width="1853"
     inkscape:window-height="1025"
     id="namedview4"
     showgrid="false"
     inkscape:zoom="0.3093816"
     inkscape:cx="433.97534"
     inkscape:cy="639.98635"
     inkscape:window-x="67"
     inkscape:window-y="27"
     inkscape:window-maximized="1"
     inkscape:current-layer="g10" /><g
     id="g10"
     inkscape:groupmode="layer"
     inkscape:label="supertechguy-avatar"
     transform="matrix(1.3333333,0,0,-1.3333333,0,762.812)"><g
       id="g12"><g
         id="g14"
         clip-path="url(#clipPath18)"><g
           id="g20"
           transform="translate(327.5203,560.1566)"><path
             d="m 0,0 c 0,0 -6.38,-17.908 -6.378,-24.5 -6.25,0.001 -26.341,-55.655 -30,-70.25 2.61,4.17 9.25,5.749 9.25,5.749 -4.701,-10.425 -28.498,-40.807 -28.498,-40.807 11.495,5.562 18.286,4.866 12.541,-0.695 -9.405,-9.382 -81.364,-0.043 -50.813,99.299 11.754,38.224 -25.395,48.402 -44.373,25.531 -30.451,-36.699 -153.27,-192.596 -187.751,-216.921 27.689,-1.564 156.894,115.29 156.894,115.29 1.565,-28.147 -140.439,-170.188 -156.894,-184.784 29.777,3.128 145.922,98.26 145.922,98.26 -9.404,-32.319 -87.053,-132.996 -121.924,-170.004 37.615,11.464 137.989,123.09 137.989,123.09 -10.58,-44.826 -52.593,-151.091 -52.593,-151.091 18.025,-7.299 89.032,159.432 89.032,159.432 1.567,-21.891 -15.151,-66.717 -25.598,-84.44 37.614,23.328 66.349,100.077 66.349,100.077 0,0 2.873,-29.189 -16.196,-64.634 15.673,-2.083 39.313,39.093 44.016,77.144 7.967,-20.851 10.819,-46.636 0.653,-56.643 -26.122,-25.714 -26.428,-85.667 -36.899,-82.714 -6.006,0.35 -6.006,0.35 -17.698,-7.286 -5.026,-1.648 -24.226,0.565 -25.205,-4.126 -0.98,-4.69 0,-13.158 0,-13.158 -4.507,-2.35 -4.507,-21.372 3.33,-23.457 -1.763,4.951 -1.763,13.03 -0.197,17.462 4.704,-4.694 9.404,-2.348 10.581,0.518 -1.569,4.953 5.425,23.576 16.259,0.522 2.287,-4.864 2.159,-12.334 -5.156,-19.112 -3.867,-3.578 1.696,-11.12 1.696,-11.12 1.306,-4.169 -8.096,-10.418 -10.709,-8.683 9.403,-6.953 14.629,4.168 14.629,4.168 5.221,0 12.276,3.467 12.799,10.075 -2.351,8.342 -4.543,23.888 1.044,37.183 9.926,23.627 42.84,34.401 52.245,58.377 2.609,-26.06 -53.029,-121.272 -59.298,-155.678 13.061,12.511 53.548,62.551 53.548,62.551 3.136,-25.367 -15.857,-71.338 -16.977,-93.822 14.007,10.002 35.656,60.115 50.154,67.411 0,0 8.164,-106.677 13.388,-115.02 11.494,29.191 17.957,112.242 17.957,112.242 0,0 31.87,-45.175 47.677,-58.886 -1.125,22.479 -22.204,56.636 -19.069,82.003 0,0 40.488,-50.038 53.548,-62.546 -6.267,34.4 -62.183,135.681 -59.57,161.745 9.404,-23.979 42.595,-34.819 52.518,-58.446 5.585,-13.298 3.396,-28.845 1.045,-37.185 0.521,-6.606 7.575,-10.076 12.8,-10.076 0,0 5.223,-11.117 14.626,-4.169 -2.611,-1.735 -12.014,4.521 -10.71,8.688 0,0 5.563,7.544 1.7,11.116 -7.315,6.78 -7.446,14.247 -5.159,19.117 10.833,23.05 17.827,4.432 16.26,-0.521 1.177,-2.864 5.878,-5.213 10.579,-0.522 1.569,-4.43 1.569,-12.507 -0.196,-17.46 7.837,2.085 7.837,21.111 3.331,23.455 0,0 0.981,8.469 0,13.163 -0.978,4.69 -20.179,2.474 -25.206,4.119 -11.691,7.64 -11.691,7.64 -17.698,7.289 -10.469,-2.956 -10.776,51.004 -36.898,76.716 -10.167,10.011 -7.313,35.794 0.654,56.644 4.702,-38.051 28.341,-79.229 44.013,-77.144 -19.066,35.445 -16.194,64.635 -16.194,64.635 0,0 28.734,-76.755 66.35,-100.079 -10.449,17.722 -27.168,62.55 -25.599,84.442 0,0 70.759,-160.663 88.784,-153.367 0,0 -41.766,100.2 -52.347,145.027 0,0 99.006,-105.558 136.622,-117.026 -34.871,37.012 -111.152,131.622 -120.556,163.936 0,0 113.741,-89.064 143.521,-92.192 -16.458,14.592 -156.059,150.572 -154.49,178.718 0,0 126.801,-109.549 154.49,-107.985 -34.48,24.324 -153.185,178.897 -183.635,215.597 -18.977,22.87 -56.189,12.703 -44.434,-25.52 30.552,-99.343 -42.275,-108.69 -51.681,-99.309 -5.745,5.561 1.046,6.257 12.541,0.695 0,0 -24.663,30.466 -29.364,40.892 0,0 7.89,-1.58 10.5,-5.75 C 32.213,-80.155 10.743,-24.5 5.372,-24.5 5.12,-17.908 0,0 0,0"
             style="fill:#231f20;fill-opacity:1;fill-rule:nonzero;stroke:none"
             id="path22"
             inkscape:connector-curvature="0" /></g><g
           id="g24"
           transform="translate(327.5203,560.1566)"><path
             d="m 0,0 c 0,0 -6.38,-17.908 -6.378,-24.5 -6.25,0.001 -26.341,-55.655 -30,-70.25 2.61,4.17 9.25,5.749 9.25,5.749 -4.701,-10.425 -28.498,-40.807 -28.498,-40.807 11.495,5.562 18.286,4.866 12.541,-0.695 -9.405,-9.382 -81.364,-0.043 -50.813,99.299 11.754,38.224 -25.395,48.402 -44.373,25.531 -30.451,-36.699 -153.27,-192.596 -187.751,-216.921 27.689,-1.564 156.894,115.29 156.894,115.29 1.565,-28.147 -140.439,-170.188 -156.894,-184.784 29.777,3.128 145.922,98.26 145.922,98.26 -9.404,-32.319 -87.053,-132.996 -121.924,-170.004 37.615,11.464 137.989,123.09 137.989,123.09 -10.58,-44.826 -52.593,-151.091 -52.593,-151.091 18.025,-7.299 89.032,159.432 89.032,159.432 1.567,-21.891 -15.151,-66.717 -25.598,-84.44 37.614,23.328 66.349,100.077 66.349,100.077 0,0 2.873,-29.189 -16.196,-64.634 15.673,-2.083 39.313,39.093 44.016,77.144 7.967,-20.851 10.819,-46.636 0.653,-56.643 -26.122,-25.714 -26.428,-85.667 -36.899,-82.714 -6.006,0.35 -6.006,0.35 -17.698,-7.286 -5.026,-1.648 -24.226,0.565 -25.205,-4.126 -0.98,-4.69 0,-13.158 0,-13.158 -4.507,-2.35 -4.507,-21.372 3.33,-23.457 -1.763,4.951 -1.763,13.03 -0.197,17.462 4.704,-4.694 9.404,-2.348 10.581,0.518 -1.569,4.953 5.425,23.576 16.259,0.522 2.287,-4.864 2.159,-12.334 -5.156,-19.112 -3.867,-3.578 1.696,-11.12 1.696,-11.12 1.306,-4.169 -8.096,-10.418 -10.709,-8.683 9.403,-6.953 14.629,4.168 14.629,4.168 5.221,0 12.276,3.467 12.799,10.075 -2.351,8.342 -4.543,23.888 1.044,37.183 9.926,23.627 42.84,34.401 52.245,58.377 2.609,-26.06 -53.029,-121.272 -59.298,-155.678 13.061,12.511 53.548,62.551 53.548,62.551 3.136,-25.367 -15.857,-71.338 -16.977,-93.822 14.007,10.002 35.656,60.115 50.154,67.411 0,0 8.164,-106.677 13.388,-115.02 11.494,29.191 17.957,112.242 17.957,112.242 0,0 31.87,-45.175 47.677,-58.886 -1.125,22.479 -22.204,56.636 -19.069,82.003 0,0 40.488,-50.038 53.548,-62.546 -6.267,34.4 -62.183,135.681 -59.57,161.745 9.404,-23.979 42.595,-34.819 52.518,-58.446 5.585,-13.298 3.396,-28.845 1.045,-37.185 0.521,-6.606 7.575,-10.076 12.8,-10.076 0,0 5.223,-11.117 14.626,-4.169 -2.611,-1.735 -12.014,4.521 -10.71,8.688 0,0 5.563,7.544 1.7,11.116 -7.315,6.78 -7.446,14.247 -5.159,19.117 10.833,23.05 17.827,4.432 16.26,-0.521 1.177,-2.864 5.878,-5.213 10.579,-0.522 1.569,-4.43 1.569,-12.507 -0.196,-17.46 7.837,2.085 7.837,21.111 3.331,23.455 0,0 0.981,8.469 0,13.163 -0.978,4.69 -20.179,2.474 -25.206,4.119 -11.691,7.64 -11.691,7.64 -17.698,7.289 -10.469,-2.956 -10.776,51.004 -36.898,76.716 -10.167,10.011 -7.313,35.794 0.654,56.644 4.702,-38.051 28.341,-79.229 44.013,-77.144 -19.066,35.445 -16.194,64.635 -16.194,64.635 0,0 28.734,-76.755 66.35,-100.079 -10.449,17.722 -27.168,62.55 -25.599,84.442 0,0 70.759,-160.663 88.784,-153.367 0,0 -41.766,100.2 -52.347,145.027 0,0 99.006,-105.558 136.622,-117.026 -34.871,37.012 -111.152,131.622 -120.556,163.936 0,0 113.741,-89.064 143.521,-92.192 -16.458,14.592 -156.059,150.572 -154.49,178.718 0,0 126.801,-109.549 154.49,-107.985 -34.48,24.324 -153.185,178.897 -183.635,215.597 -18.977,22.87 -56.189,12.703 -44.434,-25.52 30.552,-99.343 -42.275,-108.69 -51.681,-99.309 -5.745,5.561 1.046,6.257 12.541,0.695 0,0 -24.663,30.466 -29.364,40.892 0,0 7.89,-1.58 10.5,-5.75 C 32.213,-80.155 10.743,-24.5 5.372,-24.5 5.12,-17.908 0,0 0,0 Z"
             style="fill:none;stroke:#231f20;stroke-width:1;stroke-linecap:butt;stroke-linejoin:miter;stroke-miterlimit:10;stroke-dasharray:none;stroke-opacity:1"
             id="path26"
             inkscape:connector-curvature="0" /></g><g
           id="g28"
           transform="translate(523.2361,3.9364)"><path
             d="m 0,0 -11.483,19.906 6.995,4.007 -16.869,29.452 5.914,5.75 -2.926,5.251 -20.739,-11.879 32.236,-56.424 z"
             style="fill:#414142;fill-opacity:1;fill-rule:nonzero;stroke:none"
             id="path30"
             inkscape:connector-curvature="0" /></g><g
           id="g32"
           transform="translate(529.9861,7.8016)"><path
             d="M 0,0 -9.885,17.4 -13.321,15.432 -3.313,-1.897 Z"
             style="fill:#414142;fill-opacity:1;fill-rule:nonzero;stroke:none"
             id="path34"
             inkscape:connector-curvature="0" /></g><g
           id="g36"
           transform="translate(536.9803,11.8085)"><path
             d="M 0,0 -9.884,17.399 -13.32,15.432 -3.313,-1.897 Z"
             style="fill:#414142;fill-opacity:1;fill-rule:nonzero;stroke:none"
             id="path38"
             inkscape:connector-curvature="0" /></g><g
           id="g40"
           transform="translate(543.9754,15.8153)"><path
             d="M 0,0 -9.884,17.399 -13.32,15.432 -3.313,-1.898 Z"
             style="fill:#414142;fill-opacity:1;fill-rule:nonzero;stroke:none"
             id="path42"
             inkscape:connector-curvature="0" /></g><g
           id="g44"
           transform="translate(550.8475,19.7508)"><path
             d="M 0,0 -9.884,17.399 -13.32,15.432 -3.313,-1.897 Z"
             style="fill:#414142;fill-opacity:1;fill-rule:nonzero;stroke:none"
             id="path46"
             inkscape:connector-curvature="0" /></g><g
           id="g48"
           transform="translate(546.5789,43.7079)"><path
             d="m 0,0 -15.394,26.875 -7.953,-2.191 -13.917,24.297 -10.43,-5.974 13.917,-24.298 -6.011,-5.725 15.393,-26.875 z"
             style="fill:#414142;fill-opacity:1;fill-rule:nonzero;stroke:none"
             id="path50"
             inkscape:connector-curvature="0" /></g><g
           id="g52"
           transform="translate(557.8162,23.661)"><path
             d="M 0,0 -9.884,17.399 -13.32,15.432 -3.313,-1.897 Z"
             style="fill:#414142;fill-opacity:1;fill-rule:nonzero;stroke:none"
             id="path54"
             inkscape:connector-curvature="0" /></g><g
           id="g56"
           transform="translate(564.8377,27.7635)"><path
             d="M 0,0 -9.885,17.4 -13.32,15.432 -3.34,-1.994 Z"
             style="fill:#414142;fill-opacity:1;fill-rule:nonzero;stroke:none"
             id="path58"
             inkscape:connector-curvature="0" /></g><g
           id="g60"
           transform="translate(575.2684,33.7381)"><path
             d="m 0,0 -32.333,56.45 -20.861,-11.949 3.022,-5.276 7.979,2.288 16.842,-29.549 7.119,4.077 11.457,-20.003 z"
             style="fill:#414142;fill-opacity:1;fill-rule:nonzero;stroke:none"
             id="path62"
             inkscape:connector-curvature="0" /></g><g
           id="g64"
           transform="translate(503.1453,70.7391)"><path
             d="M 0,0 -11.457,20.003 5.969,29.983 17.426,9.98 43.442,24.882 40.392,32.343 21.565,53.829 -0.4,41.247 l -3.023,5.277 20.985,12.02 -5.383,6.125 -19.512,-11.176 -3.022,5.277 18.503,10.517 -5.382,6.125 -17.058,-9.77 -3.022,5.277 16.049,9.111 -5.382,6.125 -14.603,-8.364 -2.952,5.154 13.524,7.828 -5.382,6.125 -12.149,-6.958 c -14.377,25.644 -54.711,40.644 -146.916,40.312 l 0.001,-20.668 c 80.538,1 112.538,-8.667 129.472,-29.31 l -12.15,-6.958 2.561,-7.742 13.621,7.802 3.022,-5.276 -14.603,-8.365 2.56,-7.742 15.953,9.138 3.023,-5.277 -17.058,-9.77 2.56,-7.742 18.504,10.517 2.927,-5.251 -19.513,-11.175 2.56,-7.743 20.958,11.923 3.049,-5.179 -21.967,-12.582 9.009,-27.11 4.865,-6.503 z"
             style="fill:#414142;fill-opacity:1;fill-rule:nonzero;stroke:none"
             id="path66"
             inkscape:connector-curvature="0" /></g><g
           id="g68"
           transform="translate(139.6766,-1e-4)"><path
             d="M 0,0 32.236,56.424 11.497,68.303 8.571,63.052 14.485,57.302 -2.384,27.85 4.611,23.843 -6.872,3.937 Z"
             style="fill:#414142;fill-opacity:1;fill-rule:nonzero;stroke:none"
             id="path70"
             inkscape:connector-curvature="0" /></g><g
           id="g72"
           transform="translate(129.3685,5.9042)"><path
             d="M 0,0 10.007,17.329 6.571,19.298 -3.313,1.897 Z"
             style="fill:#414142;fill-opacity:1;fill-rule:nonzero;stroke:none"
             id="path74"
             inkscape:connector-curvature="0" /></g><g
           id="g76"
           transform="translate(122.3734,9.911)"><path
             d="M 0,0 10.007,17.329 6.571,19.297 -3.313,1.897 Z"
             style="fill:#414142;fill-opacity:1;fill-rule:nonzero;stroke:none"
             id="path78"
             inkscape:connector-curvature="0" /></g><g
           id="g80"
           transform="translate(115.3787,13.9169)"><path
             d="M 0,0 10.007,17.33 6.571,19.298 -3.313,1.898 Z"
             style="fill:#414142;fill-opacity:1;fill-rule:nonzero;stroke:none"
             id="path82"
             inkscape:connector-curvature="0" /></g><g
           id="g84"
           transform="translate(108.5067,17.8534)"><path
             d="M 0,0 10.007,17.329 6.571,19.297 -3.313,1.897 Z"
             style="fill:#414142;fill-opacity:1;fill-rule:nonzero;stroke:none"
             id="path86"
             inkscape:connector-curvature="0" /></g><g
           id="g88"
           transform="translate(133.8567,29.8172)"><path
             d="M 0,0 15.393,26.875 9.382,32.6 23.299,56.897 12.869,62.872 -1.049,38.574 -9.001,40.766 -24.395,13.891 Z"
             style="fill:#414142;fill-opacity:1;fill-rule:nonzero;stroke:none"
             id="path90"
             inkscape:connector-curvature="0" /></g><g
           id="g92"
           transform="translate(101.5379,21.7635)"><path
             d="M 0,0 10.007,17.329 6.571,19.297 -3.313,1.897 Z"
             style="fill:#414142;fill-opacity:1;fill-rule:nonzero;stroke:none"
             id="path94"
             inkscape:connector-curvature="0" /></g><g
           id="g96"
           transform="translate(94.5428,25.7694)"><path
             d="M 0,0 9.981,17.426 6.545,19.395 -3.339,1.994 Z"
             style="fill:#414142;fill-opacity:1;fill-rule:nonzero;stroke:none"
             id="path98"
             inkscape:connector-curvature="0" /></g><g
           id="g100"
           transform="translate(87.5482,29.7762)"><path
             d="m 0,0 11.457,20.003 7.118,-4.077 16.842,29.549 7.979,-2.288 3.023,5.276 L 25.557,60.412 -6.776,3.962 Z"
             style="fill:#414142;fill-opacity:1;fill-rule:nonzero;stroke:none"
             id="path102"
             inkscape:connector-curvature="0" /></g><g
           id="g104"
           transform="translate(178.6658,55.9784)"><path
             d="m 0,0 4.865,6.503 9.009,27.109 -21.966,12.582 3.048,5.18 20.959,-11.923 2.56,7.742 -19.513,11.176 2.927,5.251 18.504,-10.517 2.56,7.742 -17.058,9.77 3.022,5.277 15.954,-9.138 2.56,7.742 -14.604,8.364 3.023,5.277 13.621,-7.802 2.56,7.742 -12.149,6.958 c 16.934,20.643 48.934,30.31 129.472,29.31 l 10e-4,20.668 C 57.149,145.345 16.816,130.345 2.438,104.701 l -12.148,6.958 -5.383,-6.125 13.525,-7.828 -2.952,-5.154 -14.604,8.364 -5.382,-6.125 16.05,-9.111 -3.023,-5.278 -17.057,9.771 -5.383,-6.125 18.504,-10.518 -3.022,-5.276 -19.512,11.176 -5.383,-6.125 20.985,-12.02 -3.023,-5.277 -21.966,12.582 -18.826,-21.486 -3.05,-7.461 26.016,-14.902 11.457,20.003 17.426,-9.98 -11.458,-20.003 z"
             style="fill:#414142;fill-opacity:1;fill-rule:nonzero;stroke:none"
             id="path106"
             inkscape:connector-curvature="0" /></g><g
           id="g108"
           transform="translate(446.783,422.7845)"><path
             d="M 0,0 C 9.763,-11.295 12.049,-11.345 14.171,-23.595"
             style="fill:#c2c5c9;fill-opacity:1;fill-rule:nonzero;stroke:none"
             id="path110"
             inkscape:connector-curvature="0" /></g><g
           id="g112"
           transform="translate(98.6976,153.6522)"><path
             d="m 0,0 c -6.492,0.161 -11.451,0.725 -11.021,1.253 0.432,0.528 29.08,20.742 63.666,44.921 96.552,67.498 185.496,133.531 254.061,188.616 22.389,17.988 40.818,32.841 40.952,33.005 0.134,0.164 2.988,-4.268 6.342,-9.85 5.382,-8.955 5.903,-10.46 4.422,-12.798 -2.19,-3.459 -28.726,-23.436 -99.79,-75.128 C 203.08,129.611 84.609,44.341 43.079,14.874 20.764,-0.96 21.962,-0.547 -0.003,-0.002 Z"
             style="fill:#c7c8ca;fill-opacity:1;fill-rule:nonzero;stroke:none"
             id="path114"
             inkscape:connector-curvature="0" /></g><g
           id="g116"
           transform="translate(121.242,153.4169)"><path
             d="m 0,0 -0.398,-0.15 c -0.237,0.551 -0.474,1.103 -0.709,1.656 -0.315,0.761 -0.714,1.479 -1.147,2.178 -0.453,0.645 -0.872,1.307 -1.229,2.01 -0.33,0.633 -0.622,1.284 -0.961,1.911 -0.257,0.48 -0.484,0.975 -0.542,1.519 -0.035,0.437 0.23,0.693 0.535,0.959 0.46,0.37 0.936,0.718 1.388,1.099 0.692,0.547 1.335,1.153 1.999,1.734 0.677,0.605 1.375,1.187 2.13,1.691 0.706,0.44 1.437,0.836 2.206,1.152 0.873,0.406 1.799,0.628 2.733,0.832 0.818,0.175 1.643,0.32 2.475,0.41 0.776,0.086 1.552,0.17 2.33,0.239 0.734,0.026 1.465,0.106 2.194,0.197 0.888,0.136 1.738,0.432 2.596,0.687 0.666,0.213 1.397,0.441 2.008,0.674 0.783,0.288 1.527,0.66 2.243,1.087 0.747,0.454 1.442,0.984 2.118,1.538 0.754,0.633 1.461,1.318 2.163,2.007 0.729,0.675 1.454,1.354 2.166,2.048 0.722,0.671 1.453,1.332 2.214,1.958 0.772,0.603 1.506,1.253 2.264,1.874 0.666,0.58 1.395,1.076 2.125,1.57 0.765,0.511 1.559,0.973 2.333,1.47 0.99,0.635 1.971,1.285 2.972,1.905 0.969,0.597 1.932,1.205 2.918,1.774 0.959,0.556 1.93,1.092 2.916,1.601 1.056,0.556 2.137,1.059 3.207,1.589 1.09,0.55 2.142,1.176 3.164,1.844 1.233,0.839 2.412,1.753 3.562,2.702 1.19,0.996 2.34,2.04 3.465,3.107 1.125,1.078 2.205,2.201 3.282,3.327 1.025,1.095 2.043,2.194 3.128,3.23 1.134,1.077 2.324,2.092 3.553,3.06 1.156,0.923 2.366,1.772 3.595,2.591 1.027,0.708 2.094,1.354 3.184,1.959 1.188,0.64 2.404,1.223 3.625,1.796 1.348,0.618 2.694,1.241 4.036,1.874 1.564,0.737 3.107,1.517 4.646,2.304 1.299,0.653 2.561,1.374 3.797,2.137 1.096,0.67 2.13,1.427 3.101,2.265 1.009,0.898 1.956,1.858 2.892,2.829 0.954,0.99 1.884,2.005 2.804,3.027 0.929,1.033 1.843,2.079 2.754,3.128 0.945,1.08 1.937,2.115 2.941,3.139 0.921,0.882 1.889,1.714 2.893,2.499 0.972,0.734 2.017,1.362 3.068,1.973 1.22,0.721 2.462,1.405 3.722,2.052 1.151,0.592 2.297,1.195 3.478,1.729 0.977,0.419 1.953,0.849 2.945,1.233 0.875,0.332 1.759,0.637 2.623,0.999 1.006,0.375 1.973,0.836 2.927,1.328 1.031,0.533 2.047,1.088 3.029,1.709 0.913,0.582 1.78,1.231 2.629,1.902 0.964,0.75 1.831,1.609 2.681,2.482 1.165,1.223 2.292,2.479 3.461,3.697 0.978,0.96 1.955,1.921 2.955,2.857 0.862,0.792 1.715,1.592 2.586,2.374 0.916,0.787 1.826,1.581 2.762,2.344 1.042,0.867 2.074,1.748 3.127,2.602 1.032,0.84 2.036,1.714 3.054,2.572 0.968,0.837 1.953,1.652 2.938,2.469 1.168,0.967 2.384,1.874 3.568,2.821 1.17,0.943 2.357,1.864 3.57,2.752 1.027,0.804 2.131,1.491 3.279,2.107 1.479,0.735 3.047,1.265 4.592,1.839 1.222,0.474 2.488,0.841 3.689,1.368 1.314,0.554 2.585,1.203 3.883,1.794 1.067,0.464 2.102,0.993 3.111,1.572 0.927,0.479 1.806,1.032 2.653,1.638 1.031,0.751 1.962,1.625 2.881,2.506 0.981,0.951 1.935,1.928 2.883,2.912 0.817,0.851 1.619,1.715 2.416,2.585 0.964,1.053 1.891,2.139 2.817,3.225 1.123,1.32 2.239,2.646 3.353,3.973 1.032,1.232 2.06,2.466 3.087,3.702 0.883,1.102 1.818,2.158 2.795,3.177 0.822,0.869 1.671,1.71 2.531,2.541 0.75,0.709 1.57,1.338 2.392,1.96 0.921,0.657 1.883,1.249 2.877,1.788 1.084,0.578 2.156,1.179 3.261,1.714 1.212,0.572 2.458,1.067 3.702,1.562 1.224,0.486 2.464,0.919 3.719,1.316 1.02,0.315 2.035,0.647 3.056,0.962 1.015,0.308 2.042,0.578 3.057,0.886 0.954,0.289 1.902,0.606 2.836,0.954 0.733,0.254 1.432,0.591 2.117,0.951 0.825,0.473 1.611,1.014 2.383,1.567 0.849,0.606 1.643,1.28 2.414,1.979 0.825,0.761 1.621,1.553 2.409,2.353 0.751,0.768 1.484,1.554 2.21,2.345 0.731,0.791 1.443,1.6 2.15,2.413 0.79,0.9 1.548,1.828 2.346,2.72 0.742,0.804 1.486,1.606 2.223,2.414 0.678,0.755 1.401,1.467 2.109,2.193 0.683,0.724 1.381,1.434 2.115,2.108 0.683,0.593 1.336,1.22 2.016,1.817 0.607,0.521 1.242,1.012 1.916,1.444 0.707,0.487 1.499,0.81 2.288,1.137 0.932,0.406 1.878,0.778 2.827,1.143 0.981,0.417 2.006,0.712 3.014,1.056 0.83,0.278 1.653,0.58 2.481,0.867 0.61,0.215 1.234,0.497 1.852,0.791 0.805,0.415 1.571,0.897 2.317,1.408 0.84,0.562 1.657,1.159 2.449,1.787 0.798,0.639 1.552,1.328 2.295,2.029 0.735,0.694 1.442,1.418 2.141,2.148 0.678,0.71 1.341,1.434 2,2.162 0.624,0.691 1.24,1.391 1.851,2.094 0.724,0.844 1.436,1.696 2.187,2.516 0.708,0.74 1.489,1.405 2.283,2.05 0.68,0.597 1.424,1.111 2.165,1.628 0.671,0.447 1.367,0.855 2.073,1.242 0.628,0.363 1.3,0.636 1.957,0.939 0.752,0.335 1.508,0.662 2.255,1.007 0.541,0.236 0.271,0.118 0.807,0.353 l 0.417,0.089 c -0.537,-0.235 -0.268,-0.118 -0.809,-0.352 -0.746,-0.347 -1.502,-0.673 -2.255,-1.007 -0.655,-0.304 -1.329,-0.574 -1.957,-0.936 -0.707,-0.385 -1.402,-0.794 -2.074,-1.238 -0.741,-0.517 -1.487,-1.027 -2.166,-1.625 -0.794,-0.643 -1.575,-1.307 -2.284,-2.044 -0.752,-0.819 -1.465,-1.669 -2.188,-2.515 -0.611,-0.702 -1.226,-1.403 -1.85,-2.095 -0.659,-0.728 -1.322,-1.452 -2,-2.163 -0.7,-0.731 -1.407,-1.455 -2.141,-2.15 -0.743,-0.701 -1.497,-1.392 -2.294,-2.032 -0.792,-0.63 -1.607,-1.228 -2.448,-1.79 -0.745,-0.513 -1.512,-0.996 -2.315,-1.415 -0.859,-0.411 -1.738,-0.779 -2.638,-1.091 -0.827,-0.289 -1.65,-0.588 -2.481,-0.867 -0.743,-0.252 -1.501,-0.465 -2.228,-0.759 -0.95,-0.363 -1.895,-0.737 -2.828,-1.142 -0.787,-0.327 -1.582,-0.643 -2.289,-1.13 -0.675,-0.428 -1.309,-0.919 -1.918,-1.438 -0.681,-0.595 -1.332,-1.225 -2.016,-1.816 -0.735,-0.672 -1.433,-1.381 -2.115,-2.105 -0.707,-0.726 -1.431,-1.437 -2.11,-2.192 -0.736,-0.808 -1.48,-1.61 -2.222,-2.414 -0.8,-0.89 -1.557,-1.82 -2.347,-2.719 -0.707,-0.813 -1.419,-1.622 -2.149,-2.415 -0.727,-0.791 -1.459,-1.577 -2.21,-2.346 -0.788,-0.8 -1.584,-1.593 -2.409,-2.355 -0.77,-0.701 -1.564,-1.376 -2.412,-1.983 -0.772,-0.555 -1.558,-1.096 -2.382,-1.573 -0.933,-0.494 -1.9,-0.913 -2.901,-1.255 -0.936,-0.345 -1.882,-0.663 -2.836,-0.951 -1.017,-0.306 -2.043,-0.577 -3.059,-0.886 -1.02,-0.315 -2.035,-0.648 -3.054,-0.963 -0.989,-0.312 -1.97,-0.64 -2.935,-1.018 -1.243,-0.496 -2.49,-0.989 -3.701,-1.56 -1.107,-0.532 -2.179,-1.134 -3.262,-1.712 -0.995,-0.537 -1.956,-1.127 -2.878,-1.782 -0.822,-0.62 -1.643,-1.247 -2.394,-1.954 -0.86,-0.831 -1.71,-1.671 -2.531,-2.54 -0.978,-1.018 -1.914,-2.072 -2.797,-3.174 -1.027,-1.236 -2.054,-2.471 -3.086,-3.702 -1.114,-1.328 -2.231,-2.654 -3.353,-3.974 -0.927,-1.086 -1.853,-2.173 -2.817,-3.226 -0.796,-0.87 -1.598,-1.735 -2.415,-2.586 -0.948,-0.984 -1.903,-1.962 -2.883,-2.914 -0.919,-0.882 -1.85,-1.758 -2.879,-2.511 -0.847,-0.609 -1.724,-1.166 -2.652,-1.643 -1.009,-0.58 -2.043,-1.112 -3.111,-1.576 -1.299,-0.589 -2.569,-1.239 -3.882,-1.796 -1.48,-0.586 -2.974,-1.135 -4.474,-1.666 -1.283,-0.477 -2.583,-0.919 -3.808,-1.536 -1.148,-0.614 -2.255,-1.296 -3.281,-2.102 -1.213,-0.887 -2.401,-1.805 -3.57,-2.75 -1.184,-0.947 -2.4,-1.853 -3.568,-2.82 -0.984,-0.816 -1.971,-1.632 -2.939,-2.469 -1.017,-0.857 -2.022,-1.731 -3.054,-2.571 -1.053,-0.855 -2.084,-1.735 -3.126,-2.604 -0.937,-0.761 -1.846,-1.555 -2.762,-2.34 -0.872,-0.783 -1.725,-1.582 -2.587,-2.373 -1.001,-0.936 -1.976,-1.899 -2.955,-2.856 -1.169,-1.218 -2.298,-2.474 -3.461,-3.697 -0.85,-0.875 -1.716,-1.736 -2.68,-2.487 -0.849,-0.672 -1.715,-1.324 -2.628,-1.908 -0.981,-0.621 -1.997,-1.179 -3.028,-1.713 -0.954,-0.492 -1.919,-0.956 -2.927,-1.329 -0.863,-0.364 -1.743,-0.681 -2.622,-1.001 -0.993,-0.382 -1.968,-0.813 -2.946,-1.231 -1.181,-0.531 -2.327,-1.135 -3.478,-1.728 -1.261,-0.644 -2.503,-1.327 -3.722,-2.049 -1.052,-0.609 -2.097,-1.236 -3.07,-1.966 -1.005,-0.784 -1.972,-1.615 -2.894,-2.494 -1.004,-1.024 -1.997,-2.058 -2.942,-3.136 -0.911,-1.05 -1.825,-2.097 -2.754,-3.13 -0.92,-1.023 -1.849,-2.037 -2.803,-3.028 -0.937,-0.971 -1.884,-1.934 -2.892,-2.832 -0.97,-0.841 -2.003,-1.601 -3.099,-2.272 -1.236,-0.766 -2.498,-1.487 -3.797,-2.141 -1.539,-0.788 -3.081,-1.568 -4.646,-2.305 -1.34,-0.634 -2.687,-1.256 -4.035,-1.874 -1.221,-0.573 -2.437,-1.154 -3.626,-1.793 -1.09,-0.605 -2.158,-1.248 -3.184,-1.955 -1.23,-0.82 -2.441,-1.666 -3.596,-2.588 -1.23,-0.966 -2.42,-1.982 -3.555,-3.058 -1.085,-1.034 -2.104,-2.132 -3.128,-3.226 -1.076,-1.126 -2.156,-2.25 -3.281,-3.329 -1.125,-1.07 -2.275,-2.114 -3.464,-3.111 -1.15,-0.95 -2.33,-1.864 -3.562,-2.706 -1.021,-0.671 -2.072,-1.297 -3.162,-1.849 -1.069,-0.531 -2.152,-1.033 -3.208,-1.588 -0.985,-0.508 -1.956,-1.043 -2.915,-1.6 -0.987,-0.567 -1.95,-1.176 -2.919,-1.772 -1.001,-0.621 -1.983,-1.268 -2.972,-1.905 -0.773,-0.498 -1.568,-0.96 -2.333,-1.468 -0.73,-0.495 -1.461,-0.986 -2.127,-1.567 -0.759,-0.619 -1.49,-1.271 -2.263,-1.874 -0.762,-0.625 -1.492,-1.285 -2.215,-1.955 -0.711,-0.693 -1.436,-1.373 -2.166,-2.047 -0.702,-0.69 -1.409,-1.376 -2.162,-2.012 -0.675,-0.554 -1.37,-1.086 -2.117,-1.543 C 19.55,19.55 18.808,19.174 18.024,18.886 17.104,18.528 16.175,18.199 15.229,17.915 14.372,17.659 13.519,17.366 12.63,17.233 11.901,17.144 11.17,17.066 10.436,17.039 9.658,16.969 8.882,16.886 8.106,16.799 7.275,16.706 6.451,16.562 5.633,16.385 4.95,16.235 4.254,16.095 3.688,15.847 2.917,15.536 2.188,15.14 1.48,14.704 0.723,14.202 0.025,13.623 -0.652,13.018 -1.316,12.438 -1.957,11.829 -2.65,11.283 -3.101,10.9 -3.575,10.551 -4.038,10.185 -4.336,9.93 -4.615,9.692 -4.585,9.266 -4.53,8.726 -4.302,8.236 -4.049,7.762 -3.71,7.133 -3.417,6.482 -3.088,5.85 -2.731,5.147 -2.312,4.487 -1.86,3.843 -1.426,3.142 -1.026,2.421 -0.71,1.658 Z"
             style="fill:#e6e6e6;fill-opacity:1;fill-rule:nonzero;stroke:none"
             id="path118"
             inkscape:connector-curvature="0" /></g><g
           id="g120"
           transform="translate(414.9383,374.764)"><path
             d="m 0,0 -0.208,-0.043 c 0.312,0.147 0.622,0.301 0.936,0.448 0.416,0.205 0.836,0.398 1.262,0.583 0.444,0.189 0.905,0.33 1.374,0.438 0.431,0.101 0.863,0.198 1.295,0.289 0.44,0.1 0.884,0.18 1.323,0.284 0.457,0.089 0.898,0.233 1.335,0.394 0.354,0.149 0.709,0.291 1.057,0.455 0.411,0.215 0.802,0.467 1.189,0.721 0.388,0.26 0.777,0.52 1.154,0.797 0.379,0.282 0.755,0.568 1.122,0.865 0.357,0.291 0.698,0.602 1.034,0.917 0.353,0.333 0.687,0.684 1.02,1.035 0.329,0.349 0.652,0.705 0.972,1.063 0.311,0.361 0.576,0.759 0.827,1.164 0.249,0.416 0.511,0.824 0.79,1.22 1.315,1.716 2.67,3.4 4.019,5.089 1.383,1.761 2.813,3.483 4.318,5.141 0.977,1.053 1.999,2.063 3.073,3.017 0.756,0.639 1.554,1.224 2.375,1.778 0.608,0.412 1.261,0.749 1.926,1.061 0.632,0.308 1.287,0.56 1.944,0.81 0.538,0.2 1.087,0.368 1.628,0.558 0.466,0.16 0.943,0.291 1.412,0.445 0.423,0.135 0.846,0.264 1.269,0.399 0.344,0.081 0.648,0.217 0.961,0.369 0.367,0.183 0.708,0.411 1.04,0.651 0.221,0.16 0.431,0.335 0.64,0.511 l 0.206,0.05 C 41.085,30.333 40.875,30.158 40.653,29.997 40.322,29.756 39.981,29.527 39.615,29.343 39.181,29.129 38.729,28.952 38.261,28.824 37.838,28.689 37.414,28.56 36.992,28.425 36.522,28.271 36.047,28.14 35.58,27.979 35.039,27.79 34.49,27.621 33.953,27.42 33.427,27.223 32.908,27.003 32.4,26.761 31.736,26.45 31.082,26.114 30.474,25.703 29.653,25.149 28.854,24.565 28.097,23.929 27.023,22.975 26.002,21.964 25.023,20.913 23.519,19.255 22.087,17.534 20.704,15.773 19.356,14.084 18.001,12.401 16.687,10.686 16.408,10.29 16.146,9.883 15.896,9.467 15.646,9.061 15.381,8.662 15.071,8.299 14.751,7.941 14.428,7.585 14.099,7.236 13.766,6.884 13.431,6.533 13.08,6.2 12.744,5.883 12.402,5.573 12.045,5.281 11.679,4.983 11.302,4.698 10.924,4.415 10.547,4.138 10.158,3.877 9.771,3.617 9.383,3.362 8.991,3.11 8.582,2.893 8.108,2.669 7.621,2.477 7.133,2.287 6.695,2.127 6.254,1.986 5.796,1.895 5.357,1.792 4.913,1.712 4.474,1.612 4.04,1.521 3.608,1.424 3.179,1.323 2.842,1.245 2.507,1.158 2.198,1.032 1.772,0.848 1.351,0.656 0.935,0.45 0.621,0.304 0.312,0.15 0,0 Z"
             style="fill:#e6e6e6;fill-opacity:1;fill-rule:nonzero;stroke:none"
             id="path122"
             inkscape:connector-curvature="0" /></g><g
           id="g124"
           transform="translate(280.4207,272.0995)"><path
             d="m 0,0 -2.617,2.058 1.499,1.188 c 4.085,3.238 7.166,5.423 8.623,6.115 0.875,0.416 3.17,1.35 5.101,2.076 3.3,1.24 8.179,3.453 10.57,4.794 1.719,0.965 3.696,2.588 6.11,5.017 3.49,3.51 4.45,4.579 10.825,12.049 3.269,3.831 6.53,7.539 7.245,8.239 4.055,3.964 9.535,6.724 19.434,9.787 6.295,1.948 8.079,2.706 10.419,4.43 2.917,2.15 4.929,4.164 11.344,11.361 5.135,5.76 8.593,9.091 11.053,10.647 0.996,0.63 3.815,1.776 7.568,3.076 6.818,2.364 10.268,4.976 17.533,13.278 3.997,4.568 6.551,6.527 11.371,8.721 1.664,0.758 3.874,1.614 4.909,1.903 1.969,0.549 3.45,1.378 5.594,3.131 1.484,1.214 1.791,1.577 7.659,9.048 7.668,9.764 10.024,11.715 16.827,13.935 1.568,0.511 3.272,1.197 3.787,1.524 1.083,0.688 1.175,0.62 1.935,-1.436 0.815,-2.201 0.511,-3.721 -1.04,-5.205 C 171.416,121.589 161.68,114.054 137.013,95.757 112.332,77.45 55.836,36.303 11.468,4.323 l -8.851,-6.38 z"
             style="fill:#e6e6e6;fill-opacity:1;fill-rule:nonzero;stroke:none"
             id="path126"
             inkscape:connector-curvature="0" /></g><g
           id="g128"
           transform="translate(117.5408,161.0838)"><path
             d="m 0,0 c -0.855,1.939 -0.881,1.892 2.593,4.717 3.795,3.088 4.774,3.489 10.432,4.281 8.525,1.191 10.165,2.039 18.662,9.648 4.331,3.877 10.647,8.081 17.734,11.798 5.067,2.66 8.465,5.145 12.672,9.268 7.207,7.065 8.457,8.196 11.607,10.49 1.823,1.328 6.019,3.717 9.323,5.308 12.031,5.791 13.951,7.117 19.944,13.78 7.964,8.854 11.379,11.314 22.021,15.862 7.609,3.252 10.561,5.162 15.005,9.71 1.972,2.019 4.643,4.662 5.935,5.874 2.609,2.451 13.765,11.809 14.089,11.82 0.113,0.004 1.346,-0.8 2.74,-1.786 2.221,-1.571 2.462,-1.843 1.941,-2.197 -0.328,-0.222 -8.792,-6.33 -18.809,-13.572 C 119.771,76.118 24.501,7.856 17.011,2.659 10.612,-1.782 6.868,-4.112 4.434,-5.17 L 3.093,-5.751 1.921,-3.722 C 1.277,-2.605 0.413,-0.93 0.002,0.002 Z"
             style="fill:#e6e6e6;fill-opacity:1;fill-rule:nonzero;stroke:none"
             id="path130"
             inkscape:connector-curvature="0" /></g><g
           id="g132"
           transform="translate(280.4383,272.162)"><path
             d="M 0,0 -2.406,1.962 0.96,4.519 c 4.983,3.785 5.551,4.108 11.751,6.685 12.163,5.055 13.323,5.929 24.078,18.133 14.455,16.403 14.111,16.164 32.557,22.654 7.333,2.58 9.041,3.803 16.307,11.673 7.501,8.125 11.223,11.84 13.192,13.171 1.002,0.678 4.182,2.15 7.068,3.272 2.886,1.122 6.214,2.603 7.397,3.29 2.392,1.392 6.796,5.413 12.565,11.475 4.497,4.725 6.355,5.968 13.255,8.872 2.732,1.15 5.662,2.594 6.511,3.21 0.919,0.667 4.537,4.708 8.956,10.002 8.574,10.273 8.97,10.608 15.846,13.383 2.514,1.015 4.67,1.968 4.793,2.118 0.372,0.456 0.76,-0.101 1.291,-1.854 0.816,-2.689 0.4,-3.619 -2.895,-6.475 -1.562,-1.353 -2.868,-2.676 -2.903,-2.94 -0.035,-0.265 -0.204,-0.367 -0.375,-0.227 -0.266,0.217 -2.366,-1.352 -3.867,-2.89 -0.246,-0.252 -0.717,-0.61 -1.048,-0.794 -1.354,-0.757 -3.674,-2.63 -3.642,-2.941 0.018,-0.183 -0.225,-0.393 -0.539,-0.465 -0.83,-0.192 -3.921,-2.595 -3.987,-3.1 -0.031,-0.236 -0.221,-0.377 -0.422,-0.314 -0.497,0.155 -17.787,-12.813 -17.864,-13.398 -0.034,-0.256 -0.235,-0.323 -0.449,-0.149 -0.225,0.184 -0.541,-0.019 -0.753,-0.484 -0.202,-0.441 -0.517,-0.677 -0.704,-0.526 -0.185,0.152 -0.502,-0.085 -0.703,-0.525 -0.201,-0.44 -0.518,-0.676 -0.703,-0.525 -0.186,0.151 -0.498,-0.077 -0.694,-0.506 -0.197,-0.43 -0.5,-0.739 -0.674,-0.687 -0.483,0.144 -21.424,-15.333 -21.496,-15.887 -0.036,-0.267 -0.204,-0.372 -0.373,-0.233 -0.364,0.296 -7.71,-5.096 -7.792,-5.719 -0.031,-0.234 -0.222,-0.372 -0.425,-0.307 -0.518,0.163 -6.261,-4.037 -6.339,-4.636 -0.036,-0.271 -0.239,-0.349 -0.453,-0.175 -0.222,0.181 -0.54,-0.017 -0.744,-0.465 -0.197,-0.43 -0.502,-0.737 -0.679,-0.683 -0.465,0.143 -6.217,-4.076 -6.287,-4.612 -0.032,-0.246 -0.218,-0.4 -0.413,-0.343 -0.491,0.145 -6.286,-4.105 -6.359,-4.662 -0.033,-0.249 -0.234,-0.31 -0.447,-0.136 -0.223,0.18 -0.541,-0.018 -0.745,-0.466 -0.196,-0.43 -0.494,-0.743 -0.662,-0.696 -0.447,0.125 -4.835,-3.073 -4.901,-3.572 -0.03,-0.232 -0.213,-0.377 -0.408,-0.32 -0.476,0.14 -4.877,-3.021 -4.947,-3.554 -0.03,-0.233 -0.214,-0.377 -0.408,-0.32 -0.477,0.14 -4.877,-3.021 -4.948,-3.554 -0.03,-0.233 -0.213,-0.377 -0.408,-0.32 -0.499,0.146 -4.879,-3.034 -4.952,-3.597 -0.034,-0.256 -0.198,-0.354 -0.366,-0.217 -0.261,0.212 -4.058,-2.498 -4.85,-3.462 -0.149,-0.181 -0.418,-0.333 -0.597,-0.337 -0.526,-0.012 -4.85,-3.36 -4.908,-3.799 -0.028,-0.219 -0.188,-0.287 -0.356,-0.151 -0.261,0.213 -4.058,-2.498 -4.85,-3.462 -0.149,-0.18 -0.418,-0.332 -0.598,-0.336 -0.525,-0.013 -4.849,-3.361 -4.906,-3.799 -0.029,-0.22 -0.197,-0.282 -0.373,-0.138 -0.262,0.214 -1.879,-0.913 -3.451,-2.406 -0.171,-0.162 -0.582,-0.445 -0.913,-0.628 -1.039,-0.576 -4.472,-3.023 -4.615,-3.29 -0.074,-0.14 -0.407,-0.403 -0.739,-0.586 C 27.571,16.225 24.125,13.77 23.981,13.501 23.906,13.361 23.574,13.098 23.242,12.915 22.216,12.351 18.769,9.896 18.625,9.627 18.551,9.487 18.218,9.224 17.886,9.041 16.86,8.477 13.414,6.021 13.27,5.753 13.195,5.613 12.863,5.35 12.531,5.167 11.504,4.603 8.058,2.147 7.915,1.879 7.84,1.739 7.506,1.476 7.173,1.294 6.84,1.112 5.631,0.306 4.487,-0.498 L 2.406,-1.961 Z"
             style="fill:#e6e6e6;fill-opacity:1;fill-rule:nonzero;stroke:none"
             id="path134"
             inkscape:connector-curvature="0" /></g><g
           id="g136"
           transform="translate(122.2625,154.3465)"><path
             d="M 0,0 C -4.733,4.646 -4.983,8.763 -5.578,9.417 -7.737,11.79 -17.504,7.246 -23.116,9.121 -28.145,5.161 -35.253,3.247 -37.557,-0.558 -39.53,-3.815 -39.563,-1.67 -39.563,-1.67"
             style="fill:#989898;fill-opacity:1;fill-rule:nonzero;stroke:none"
             id="path138"
             inkscape:connector-curvature="0" /></g><g
           id="g140"
           transform="translate(117.077,163.8133)"><path
             d="m 0,0 -0.201,-0.07 c -0.06,0.363 -0.125,0.725 -0.197,1.087 -0.099,0.509 -0.219,1.015 -0.378,1.51 -0.191,0.528 -0.399,1.049 -0.616,1.567 -0.192,0.471 -0.447,0.911 -0.698,1.353 -0.23,0.408 -0.492,0.799 -0.741,1.197 -0.198,0.365 -0.424,0.713 -0.64,1.069 -0.197,0.341 -0.42,0.664 -0.656,0.978 l -0.122,0.156 0.197,0.082 0.122,-0.157 c 0.235,-0.315 0.459,-0.639 0.657,-0.98 0.215,-0.355 0.441,-0.704 0.64,-1.069 0.248,-0.398 0.51,-0.788 0.74,-1.198 0.251,-0.442 0.506,-0.883 0.7,-1.355 C -0.977,3.652 -0.768,3.13 -0.577,2.602 -0.418,2.105 -0.298,1.6 -0.198,1.088 -0.126,0.727 -0.061,0.363 0,0"
             style="fill:#ececed;fill-opacity:1;fill-rule:nonzero;stroke:none"
             id="path142"
             inkscape:connector-curvature="0" /></g><g
           id="g144"
           transform="translate(100.2674,163.787)"><path
             d="m 0,0 c 1.094,0.826 12.236,8.676 12.391,8.73 0.191,0.068 2.38,-3.42 2.967,-4.727 0.216,-0.482 0.55,-1.502 0.742,-2.267 l 0.348,-1.39 -0.821,0.193 C 14.108,0.896 13.208,0.84 8.802,0.11 4.773,-0.557 1.473,-0.784 0.061,-0.493 -0.479,-0.381 -0.482,-0.363 0,0"
             style="fill:#ffffff;fill-opacity:1;fill-rule:nonzero;stroke:none"
             id="path146"
             inkscape:connector-curvature="0" /></g><g
           id="g148"
           transform="translate(449.6033,416.0965)"><path
             d="M 0,0 -8.608,-10.561 C -17.219,-21.123 -332.66,-247.92 -332.66,-247.92"
             style="fill:none;stroke:#989898;stroke-width:1.79999995;stroke-linecap:butt;stroke-linejoin:miter;stroke-miterlimit:4;stroke-dasharray:none;stroke-opacity:1"
             id="path150"
             inkscape:connector-curvature="0" /></g></g></g><g
       id="g152"><g
         id="g154"
         clip-path="url(#clipPath158)"><g
           id="g160"><g
             id="g162"><path
               d="m 432.029,411.603 15.828,-21.993 17.082,13.208 -15.827,21.993 z"
               style="fill:url(#linearGradient168);stroke:none"
               id="path170"
               inkscape:connector-curvature="0" /></g></g></g></g><g
       id="g172"><g
         id="g174"
         clip-path="url(#clipPath178)"><g
           id="g180"><g
             id="g182" /><g
             id="g194"><g
               clip-path="url(#clipPath186)"
               id="g192"
               style="opacity:0.83627301"><g
                 transform="translate(463.1219,422.0331)"
                 id="g190"><path
                   d="m 0,0 v 0 c 0.993,-1.174 8.789,-11.658 9.32,-12.534 0.315,-0.518 0.399,-0.784 0.277,-0.877 -0.2,-0.151 0.212,-0.788 0.536,-0.831 0.318,-0.042 2.078,-3.99 3.088,-6.151 1.589,-3.397 2.392,-5.993 1.93,-11.383 l -0.069,-0.806 c -4.767,-3.474 -9.252,-3 -12.97,-0.343 -1.37,0.979 -2.625,1.939 -3.912,3.382 -1.007,1.128 -1.929,2.705 -3.63,3.808 -0.168,1.887 3.104,2.242 4.691,4.48 l 0.785,0.596 -0.671,1.05 c -0.369,0.577 -0.937,1.401 -1.261,1.83 -0.431,0.571 -0.721,1.194 -1.079,2.311 -0.885,2.765 -1.339,3.593 -3.585,6.528 -1.284,1.678 -2.849,3.534 -4.325,5.127 -1.271,1.374 -2.813,3.077 -3.424,3.786 -0.611,0.708 -1.181,1.28 -1.266,1.27 -0.085,-0.01 -0.039,-0.17 0.103,-0.358 l 0.259,-0.34 -1.963,-1.486 c -1.08,-0.817 -5.494,-4.224 -9.81,-7.569 l -7.844,-6.082 4.66,3.815 c 2.563,2.098 5.449,4.376 6.413,5.062 0.963,0.685 1.72,1.289 1.681,1.34 -0.039,0.052 1.383,1.261 3.161,2.687 l 3.233,2.592 -0.312,0.412 0.352,-0.216 -2.671,-1.568 c -1.03,-1.127 -2.789,-1.701 -3.371,-2.199 l -1.059,-0.903 -0.563,0.668 c -6.655,7.898 -7.282,16.87 -3.9,18.976 2.049,1.276 5.59,0.846 9.72,-1.179 C -12.039,12.229 -5.963,7.05 0.001,0 Z"
                   style="fill:#231f20;fill-opacity:1;fill-rule:nonzero;stroke:none"
                   id="path188"
                   inkscape:connector-curvature="0" /></g></g></g></g><g
           id="g196"
           transform="translate(565.4061,514.3964)"><path
             d="m 0,0 c 4.423,-2.522 6.496,-4.968 7.287,-8.598 0.622,-2.851 0.041,-7.494 -1.134,-9.064 -1.56,-2.086 -25.399,-23.333 -72.118,-64.277 -14.217,-12.459 -26.079,-22.827 -26.359,-23.037 -0.339,-0.255 -2.884,2.698 -7.583,8.796 -3.891,5.05 -8.012,9.999 -9.159,10.999 l -2.085,1.819 14.643,11.158 c 10.073,7.675 19.034,15.012 28.707,23.505 21.227,18.637 54.923,48.547 57.191,50.763 1.941,1.897 2.083,1.931 4.407,1.035 1.32,-0.51 4.113,-1.903 6.206,-3.097 z"
             style="fill:#231f20;fill-opacity:1;fill-rule:nonzero;stroke:none"
             id="path198"
             inkscape:connector-curvature="0" /></g><g
           id="g200"
           transform="translate(565.4061,514.3964)"><path
             d="m 0,0 c 4.423,-2.522 6.496,-4.968 7.287,-8.598 0.622,-2.851 0.041,-7.494 -1.134,-9.064 -1.56,-2.086 -25.399,-23.333 -72.118,-64.277 -14.217,-12.459 -26.079,-22.827 -26.359,-23.037 -0.339,-0.255 -2.884,2.698 -7.583,8.796 -3.891,5.05 -8.012,9.999 -9.159,10.999 l -2.085,1.819 14.643,11.158 c 10.073,7.675 19.034,15.012 28.707,23.505 21.227,18.637 54.923,48.547 57.191,50.763 1.941,1.897 2.083,1.931 4.407,1.035 1.32,-0.51 4.113,-1.903 6.206,-3.097 z"
             style="fill:none;stroke:#ffffff;stroke-width:1;stroke-linecap:butt;stroke-linejoin:miter;stroke-miterlimit:10;stroke-dasharray:none;stroke-opacity:1"
             id="path202"
             inkscape:connector-curvature="0" /></g><g
           id="g204"><g
             id="g206" /><g
             id="g218"><g
               clip-path="url(#clipPath210)"
               id="g216"
               style="opacity:0.83627301"><g
                 transform="translate(463.2645,419.6615)"
                 id="g214"><path
                   d="M 0,0 C -1.005,1.216 18.288,18.816 43.092,39.312 67.896,59.807 88.816,75.437 89.821,74.221 90.825,73.005 71.533,55.405 46.729,34.909 21.926,14.414 1.005,-1.216 0,0"
                   style="fill:#58595b;fill-opacity:1;fill-rule:nonzero;stroke:none"
                   id="path212"
                   inkscape:connector-curvature="0" /></g></g></g></g><g
           id="g220"
           transform="translate(474.0399,429.5482)"><path
             d="m 0,0 1.638,-8.748 -7.643,4.192 -1.638,8.748 z"
             style="fill:#ececed;fill-opacity:1;fill-rule:nonzero;stroke:none"
             id="path222"
             inkscape:connector-curvature="0" /></g><g
           id="g224"
           transform="translate(482.3143,436.5706)"><path
             d="m 0,0 1.638,-8.749 -7.642,4.193 -1.639,8.748 z"
             style="fill:#ececed;fill-opacity:1;fill-rule:nonzero;stroke:none"
             id="path226"
             inkscape:connector-curvature="0" /></g><g
           id="g228"
           transform="translate(490.4666,442.7606)"><path
             d="m 0,0 1.638,-8.749 -7.643,4.193 -1.638,8.748 z"
             style="fill:#ececed;fill-opacity:1;fill-rule:nonzero;stroke:none"
             id="path230"
             inkscape:connector-curvature="0" /></g><g
           id="g232"
           transform="translate(498.2567,449.4315)"><path
             d="m 0,0 1.638,-8.749 -7.642,4.193 -1.639,8.748 z"
             style="fill:#ececed;fill-opacity:1;fill-rule:nonzero;stroke:none"
             id="path234"
             inkscape:connector-curvature="0" /></g><g
           id="g236"
           transform="translate(506.409,455.6214)"><path
             d="m 0,0 1.638,-8.749 -7.643,4.193 -1.638,8.748 z"
             style="fill:#ececed;fill-opacity:1;fill-rule:nonzero;stroke:none"
             id="path238"
             inkscape:connector-curvature="0" /></g><g
           id="g240"
           transform="translate(514.5613,461.8114)"><path
             d="m 0,0 1.638,-8.749 -7.643,4.193 -1.638,8.748 z"
             style="fill:#ececed;fill-opacity:1;fill-rule:nonzero;stroke:none"
             id="path242"
             inkscape:connector-curvature="0" /></g><g
           id="g244"
           transform="translate(522.1043,469.7997)"><path
             d="m 0,0 1.639,-8.749 -7.643,4.193 -1.639,8.748 z"
             style="fill:#ececed;fill-opacity:1;fill-rule:nonzero;stroke:none"
             id="path246"
             inkscape:connector-curvature="0" /></g><g
           id="g248"
           transform="translate(529.534,476.9437)"><path
             d="m 0,0 1.639,-8.749 -7.643,4.192 -1.639,8.749 z"
             style="fill:#ececed;fill-opacity:1;fill-rule:nonzero;stroke:none"
             id="path250"
             inkscape:connector-curvature="0" /></g><g
           id="g252"
           transform="translate(538.5096,486.035)"><path
             d="m 0,0 1.638,-8.748 -7.643,4.192 -1.638,8.748 z"
             style="fill:#ececed;fill-opacity:1;fill-rule:nonzero;stroke:none"
             id="path254"
             inkscape:connector-curvature="0" /></g><g
           id="g256"
           transform="translate(546.784,493.0575)"><path
             d="m 0,0 1.639,-8.749 -7.643,4.193 -1.639,8.748 z"
             style="fill:#ececed;fill-opacity:1;fill-rule:nonzero;stroke:none"
             id="path258"
             inkscape:connector-curvature="0" /></g><g
           id="g260"
           transform="translate(553.8445,500.6864)"><path
             d="m 0,0 1.638,-8.749 -7.642,4.193 -1.639,8.748 z"
             style="fill:#ececed;fill-opacity:1;fill-rule:nonzero;stroke:none"
             id="path262"
             inkscape:connector-curvature="0" /></g><g
           id="g264"
           transform="translate(562.8865,515.184)"><path
             d="m 0,0 c 6.304,-3.248 8.701,-5.771 9.449,-9.94 0.577,-3.219 -0.365,-7.923 -1.806,-9.017 -1.084,-0.822 -1.149,-0.77 -2.751,2.259 -1.945,3.675 -8.024,10.858 -11.881,14.039 l -2.745,2.263 4.247,3.223 z"
             style="fill:#231f20;fill-opacity:1;fill-rule:nonzero;stroke:none"
             id="path266"
             inkscape:connector-curvature="0" /></g><g
           id="g268"
           transform="translate(562.8865,515.184)"><path
             d="m 0,0 c 6.304,-3.248 8.701,-5.771 9.449,-9.94 0.577,-3.219 -0.365,-7.923 -1.806,-9.017 -1.084,-0.822 -1.149,-0.77 -2.751,2.259 -1.945,3.675 -8.024,10.858 -11.881,14.039 L -9.734,-0.396 -5.487,2.827 0,0 Z"
             style="fill:none;stroke:#ffffff;stroke-width:1;stroke-linecap:butt;stroke-linejoin:miter;stroke-miterlimit:10;stroke-dasharray:none;stroke-opacity:1"
             id="path270"
             inkscape:connector-curvature="0" /></g><g
           id="g272"
           transform="translate(194.6922,399.1898)"><path
             d="M 0,0 C 2.123,12.25 4.408,12.3 14.171,23.595"
             style="fill:#c2c5c9;fill-opacity:1;fill-rule:nonzero;stroke:none"
             id="path274"
             inkscape:connector-curvature="0" /></g><g
           id="g276"
           transform="translate(556.952,153.6503)"><path
             d="m 0,0 c -21.965,-0.545 -20.767,-0.958 -43.082,14.876 -41.53,29.467 -160.001,114.737 -215.553,155.145 -71.064,51.692 -97.599,71.669 -99.79,75.128 -1.48,2.338 -0.96,3.843 4.421,12.798 3.355,5.582 6.209,10.014 6.343,9.85 0.134,-0.164 18.562,-15.017 40.953,-33.005 C -238.145,179.707 -149.2,113.674 -52.647,46.176 -18.062,21.997 10.587,1.783 11.018,1.255 11.448,0.727 6.488,0.163 -0.003,0.002 Z"
             style="fill:#c7c8ca;fill-opacity:1;fill-rule:nonzero;stroke:none"
             id="path278"
             inkscape:connector-curvature="0" /></g><g
           id="g280"
           transform="translate(534.4041,153.4169)"><path
             d="M 0,0 0.711,1.658 C 1.026,2.421 1.427,3.142 1.86,3.843 2.312,4.487 2.731,5.147 3.088,5.85 3.417,6.482 3.711,7.133 4.049,7.762 4.303,8.236 4.53,8.726 4.585,9.266 4.615,9.692 4.337,9.93 4.038,10.185 3.575,10.551 3.101,10.9 2.65,11.283 c -0.693,0.546 -1.334,1.155 -1.998,1.735 -0.676,0.605 -1.375,1.184 -2.132,1.686 -0.707,0.436 -1.437,0.832 -2.208,1.143 -0.566,0.248 -1.262,0.388 -1.945,0.538 -0.817,0.177 -1.641,0.321 -2.472,0.414 -0.776,0.087 -1.552,0.17 -2.33,0.24 -0.735,0.027 -1.465,0.105 -2.195,0.194 -0.889,0.133 -1.741,0.426 -2.599,0.682 -0.946,0.284 -1.875,0.613 -2.794,0.971 -0.785,0.288 -1.527,0.664 -2.242,1.093 -0.747,0.457 -1.442,0.989 -2.117,1.543 -0.753,0.636 -1.46,1.322 -2.162,2.012 -0.73,0.674 -1.454,1.354 -2.166,2.047 -0.722,0.67 -1.452,1.33 -2.215,1.955 -0.772,0.603 -1.504,1.255 -2.263,1.874 -0.666,0.581 -1.397,1.072 -2.126,1.567 -0.766,0.508 -1.561,0.97 -2.333,1.468 -0.99,0.637 -1.972,1.284 -2.972,1.905 -0.97,0.596 -1.932,1.205 -2.919,1.772 -0.959,0.557 -1.931,1.092 -2.916,1.6 -1.056,0.555 -2.139,1.057 -3.207,1.588 -1.091,0.552 -2.142,1.178 -3.163,1.849 -1.232,0.842 -2.411,1.756 -3.561,2.706 -1.189,0.997 -2.34,2.041 -3.465,3.111 -1.124,1.079 -2.204,2.203 -3.281,3.329 -1.023,1.094 -2.042,2.192 -3.128,3.226 -1.135,1.076 -2.325,2.092 -3.554,3.058 -1.156,0.922 -2.367,1.768 -3.596,2.588 -1.027,0.707 -2.095,1.35 -3.185,1.955 -1.188,0.639 -2.405,1.22 -3.626,1.793 -1.348,0.618 -2.694,1.24 -4.035,1.874 -1.564,0.737 -3.106,1.517 -4.645,2.305 -1.3,0.654 -2.562,1.375 -3.798,2.141 -1.096,0.671 -2.129,1.431 -3.099,2.272 -1.008,0.898 -1.955,1.861 -2.891,2.832 -0.955,0.991 -1.883,2.005 -2.803,3.028 -0.93,1.033 -1.844,2.08 -2.755,3.13 -0.944,1.078 -1.938,2.112 -2.942,3.136 -0.922,0.879 -1.888,1.71 -2.893,2.494 -0.974,0.73 -2.019,1.357 -3.07,1.966 -1.219,0.722 -2.461,1.405 -3.723,2.049 -1.15,0.593 -2.296,1.197 -3.478,1.728 -0.978,0.418 -1.953,0.849 -2.946,1.231 -0.878,0.32 -1.759,0.637 -2.622,1.001 -1.008,0.373 -1.973,0.837 -2.926,1.329 -1.032,0.534 -2.048,1.092 -3.029,1.713 -0.912,0.584 -1.778,1.236 -2.628,1.908 -0.963,0.751 -1.83,1.612 -2.68,2.487 -1.163,1.223 -2.291,2.479 -3.461,3.697 -0.979,0.957 -1.954,1.92 -2.955,2.856 -0.861,0.791 -1.715,1.59 -2.586,2.373 -0.917,0.785 -1.826,1.579 -2.762,2.34 -1.042,0.869 -2.074,1.749 -3.127,2.604 -1.032,0.84 -2.036,1.714 -3.054,2.571 -0.968,0.837 -1.954,1.653 -2.938,2.469 -1.169,0.967 -2.384,1.873 -3.569,2.82 -1.169,0.945 -2.357,1.863 -3.569,2.75 -1.027,0.806 -2.133,1.488 -3.281,2.102 -1.225,0.617 -2.526,1.059 -3.809,1.536 -1.5,0.531 -2.993,1.08 -4.474,1.666 -1.312,0.557 -2.583,1.207 -3.881,1.796 -1.069,0.464 -2.103,0.996 -3.112,1.576 -0.928,0.477 -1.804,1.034 -2.651,1.643 -1.03,0.753 -1.961,1.629 -2.879,2.511 -0.981,0.952 -1.936,1.93 -2.883,2.914 -0.817,0.851 -1.62,1.716 -2.416,2.586 -0.964,1.053 -1.89,2.14 -2.816,3.226 -1.123,1.32 -2.24,2.646 -3.353,3.974 -1.032,1.231 -2.06,2.466 -3.087,3.702 -0.883,1.102 -1.819,2.156 -2.797,3.174 -0.821,0.869 -1.671,1.709 -2.531,2.54 -0.751,0.707 -1.571,1.334 -2.393,1.954 -0.923,0.655 -1.884,1.245 -2.879,1.782 -1.083,0.578 -2.154,1.18 -3.261,1.712 -1.212,0.571 -2.459,1.064 -3.702,1.56 -0.965,0.378 -1.946,0.706 -2.934,1.018 -1.02,0.315 -2.034,0.648 -3.055,0.963 -1.016,0.309 -2.042,0.58 -3.058,0.886 -0.955,0.288 -1.901,0.606 -2.836,0.951 -1.001,0.342 -1.969,0.761 -2.902,1.255 -0.824,0.477 -1.609,1.018 -2.382,1.573 -0.848,0.607 -1.641,1.282 -2.412,1.983 -0.825,0.762 -1.621,1.555 -2.409,2.355 -0.751,0.769 -1.483,1.555 -2.209,2.346 -0.731,0.793 -1.443,1.602 -2.149,2.415 -0.791,0.899 -1.547,1.829 -2.348,2.719 -0.741,0.804 -1.485,1.606 -2.222,2.414 -0.678,0.755 -1.403,1.466 -2.11,2.192 -0.682,0.724 -1.38,1.433 -2.115,2.105 -0.684,0.591 -1.335,1.221 -2.016,1.816 -0.608,0.519 -1.243,1.01 -1.918,1.438 -0.707,0.487 -1.502,0.803 -2.289,1.13 -0.932,0.405 -1.878,0.779 -2.827,1.142 -0.728,0.294 -1.485,0.507 -2.229,0.759 -0.831,0.279 -1.654,0.578 -2.481,0.867 -0.899,0.312 -1.779,0.68 -2.638,1.091 -0.802,0.419 -1.569,0.902 -2.314,1.415 -0.842,0.562 -1.657,1.16 -2.448,1.79 -0.798,0.64 -1.552,1.331 -2.295,2.032 -0.734,0.695 -1.441,1.419 -2.141,2.15 -0.677,0.711 -1.34,1.435 -1.999,2.163 -0.625,0.692 -1.239,1.393 -1.851,2.095 -0.722,0.846 -1.436,1.696 -2.187,2.515 -0.71,0.737 -1.491,1.401 -2.285,2.044 -0.679,0.598 -1.424,1.108 -2.165,1.625 -0.672,0.444 -1.367,0.853 -2.075,1.238 -0.628,0.362 -1.301,0.632 -1.957,0.936 -0.752,0.334 -1.508,0.66 -2.255,1.007 -0.541,0.234 -0.271,0.117 -0.808,0.352 l 0.416,-0.089 c 0.536,-0.235 0.267,-0.117 0.807,-0.353 0.748,-0.345 1.504,-0.672 2.255,-1.007 0.657,-0.303 1.329,-0.576 1.957,-0.939 0.707,-0.387 1.403,-0.795 2.074,-1.242 0.741,-0.517 1.484,-1.031 2.164,-1.628 0.794,-0.645 1.575,-1.31 2.283,-2.05 0.751,-0.82 1.464,-1.672 2.187,-2.516 0.612,-0.703 1.227,-1.403 1.851,-2.094 0.659,-0.728 1.322,-1.452 2,-2.162 0.699,-0.73 1.406,-1.454 2.141,-2.148 0.743,-0.701 1.498,-1.39 2.296,-2.029 0.792,-0.628 1.608,-1.225 2.448,-1.787 0.746,-0.511 1.513,-0.993 2.317,-1.408 0.618,-0.294 1.242,-0.576 1.853,-0.791 0.827,-0.287 1.65,-0.589 2.481,-0.867 1.007,-0.344 2.032,-0.639 3.014,-1.056 0.948,-0.365 1.894,-0.737 2.826,-1.143 0.789,-0.327 1.581,-0.65 2.289,-1.137 0.673,-0.432 1.308,-0.923 1.915,-1.444 0.68,-0.597 1.334,-1.224 2.017,-1.817 0.733,-0.674 1.431,-1.384 2.114,-2.108 0.708,-0.726 1.432,-1.438 2.109,-2.193 0.737,-0.808 1.482,-1.61 2.223,-2.414 0.798,-0.892 1.557,-1.82 2.347,-2.72 0.707,-0.813 1.419,-1.622 2.149,-2.413 0.727,-0.791 1.459,-1.577 2.21,-2.345 0.788,-0.8 1.584,-1.592 2.409,-2.353 0.772,-0.699 1.566,-1.373 2.414,-1.979 0.773,-0.553 1.558,-1.094 2.383,-1.567 0.685,-0.36 1.385,-0.697 2.117,-0.951 0.935,-0.348 1.882,-0.665 2.836,-0.954 1.016,-0.308 2.042,-0.578 3.058,-0.886 1.02,-0.315 2.036,-0.647 3.056,-0.962 1.254,-0.397 2.495,-0.83 3.718,-1.316 1.244,-0.495 2.491,-0.99 3.702,-1.562 1.106,-0.535 2.177,-1.136 3.261,-1.714 0.994,-0.539 1.956,-1.131 2.877,-1.788 0.823,-0.622 1.642,-1.251 2.392,-1.96 0.861,-0.831 1.709,-1.672 2.532,-2.541 0.976,-1.019 1.912,-2.075 2.794,-3.177 1.028,-1.236 2.055,-2.47 3.087,-3.702 1.115,-1.327 2.231,-2.653 3.353,-3.973 0.927,-1.086 1.853,-2.172 2.817,-3.225 0.797,-0.87 1.599,-1.734 2.416,-2.585 0.948,-0.984 1.903,-1.961 2.883,-2.912 0.919,-0.881 1.851,-1.755 2.881,-2.506 0.848,-0.606 1.727,-1.159 2.653,-1.638 1.009,-0.579 2.044,-1.108 3.112,-1.572 1.297,-0.591 2.568,-1.24 3.882,-1.794 1.202,-0.527 2.467,-0.894 3.69,-1.368 1.545,-0.574 3.112,-1.104 4.591,-1.839 1.148,-0.616 2.253,-1.303 3.28,-2.107 1.212,-0.888 2.399,-1.809 3.569,-2.752 1.185,-0.947 2.4,-1.854 3.568,-2.821 0.985,-0.817 1.97,-1.632 2.938,-2.469 1.018,-0.858 2.022,-1.732 3.055,-2.572 1.053,-0.854 2.084,-1.735 3.126,-2.602 0.936,-0.763 1.847,-1.557 2.763,-2.344 0.87,-0.782 1.724,-1.582 2.585,-2.374 1,-0.936 1.977,-1.897 2.955,-2.857 1.169,-1.218 2.296,-2.474 3.461,-3.697 0.85,-0.873 1.717,-1.732 2.681,-2.482 0.85,-0.671 1.716,-1.32 2.629,-1.902 0.982,-0.621 1.998,-1.176 3.029,-1.709 0.955,-0.492 1.921,-0.953 2.928,-1.328 0.863,-0.362 1.747,-0.667 2.622,-0.999 0.992,-0.384 1.968,-0.814 2.945,-1.233 1.181,-0.534 2.327,-1.137 3.478,-1.729 1.261,-0.647 2.503,-1.331 3.722,-2.052 1.051,-0.611 2.096,-1.239 3.069,-1.973 1.004,-0.785 1.971,-1.617 2.892,-2.499 1.004,-1.024 1.996,-2.059 2.941,-3.139 0.911,-1.049 1.825,-2.095 2.755,-3.128 0.92,-1.022 1.85,-2.037 2.803,-3.027 0.936,-0.971 1.883,-1.931 2.892,-2.829 0.972,-0.838 2.005,-1.595 3.101,-2.265 1.236,-0.763 2.499,-1.484 3.798,-2.137 1.539,-0.787 3.082,-1.567 4.646,-2.304 1.341,-0.633 2.687,-1.256 4.035,-1.874 1.221,-0.573 2.438,-1.156 3.626,-1.796 1.089,-0.605 2.157,-1.251 3.183,-1.959 1.23,-0.819 2.439,-1.668 3.596,-2.591 1.228,-0.968 2.419,-1.983 3.553,-3.06 1.084,-1.036 2.103,-2.135 3.127,-3.23 1.077,-1.126 2.157,-2.249 3.282,-3.327 1.125,-1.067 2.275,-2.111 3.465,-3.107 1.151,-0.949 2.329,-1.863 3.563,-2.702 1.021,-0.668 2.073,-1.294 3.164,-1.844 1.069,-0.53 2.15,-1.033 3.207,-1.589 0.985,-0.509 1.956,-1.045 2.915,-1.601 0.986,-0.569 1.949,-1.177 2.919,-1.774 1,-0.62 1.981,-1.27 2.972,-1.905 0.773,-0.497 1.568,-0.959 2.333,-1.47 0.73,-0.494 1.458,-0.99 2.125,-1.57 0.757,-0.621 1.492,-1.271 2.263,-1.874 0.761,-0.626 1.492,-1.287 2.214,-1.958 0.712,-0.694 1.438,-1.373 2.166,-2.048 0.702,-0.689 1.409,-1.374 2.163,-2.007 0.676,-0.554 1.371,-1.084 2.118,-1.538 0.716,-0.427 1.46,-0.799 2.244,-1.087 0.611,-0.233 1.341,-0.461 2.007,-0.674 0.858,-0.255 1.708,-0.551 2.596,-0.687 0.73,-0.091 1.46,-0.171 2.194,-0.197 0.778,-0.069 1.554,-0.153 2.331,-0.239 0.832,-0.09 1.656,-0.235 2.474,-0.41 0.935,-0.204 1.86,-0.426 2.734,-0.832 0.768,-0.316 1.5,-0.712 2.205,-1.152 0.755,-0.504 1.454,-1.086 2.13,-1.691 C 1.729,12.335 2.371,11.729 3.063,11.182 3.516,10.801 3.991,10.453 4.452,10.083 4.757,9.817 5.021,9.561 4.987,9.124 4.928,8.58 4.702,8.085 4.444,7.605 4.105,6.978 3.813,6.327 3.484,5.694 3.127,4.991 2.707,4.329 2.255,3.684 1.822,2.985 1.423,2.267 1.107,1.506 0.872,0.953 0.635,0.401 0.398,-0.15 Z"
             style="fill:#e6e6e6;fill-opacity:1;fill-rule:nonzero;stroke:none"
             id="path282"
             inkscape:connector-curvature="0" /></g><g
           id="g284"
           transform="translate(240.7083,374.7645)"><path
             d="m 0,0 c -0.312,0.15 -0.622,0.303 -0.935,0.45 -0.416,0.205 -0.837,0.397 -1.263,0.582 -0.309,0.125 -0.644,0.212 -0.98,0.291 -0.431,0.101 -0.863,0.198 -1.296,0.288 -0.439,0.101 -0.883,0.181 -1.322,0.284 -0.458,0.09 -0.899,0.231 -1.337,0.392 -0.488,0.189 -0.976,0.381 -1.449,0.605 -0.41,0.218 -0.801,0.469 -1.189,0.724 -0.388,0.261 -0.776,0.521 -1.153,0.798 -0.378,0.283 -0.755,0.568 -1.121,0.866 -0.358,0.292 -0.699,0.603 -1.035,0.919 -0.351,0.334 -0.686,0.684 -1.018,1.036 -0.33,0.35 -0.653,0.705 -0.973,1.064 -0.31,0.363 -0.575,0.762 -0.826,1.167 -0.249,0.416 -0.511,0.824 -0.791,1.22 -1.313,1.715 -2.668,3.398 -4.016,5.086 -1.383,1.762 -2.815,3.483 -4.32,5.141 -0.977,1.051 -2,2.062 -3.073,3.015 -0.758,0.637 -1.556,1.221 -2.377,1.774 -0.609,0.412 -1.262,0.748 -1.926,1.059 -0.509,0.241 -1.026,0.461 -1.553,0.659 -0.538,0.2 -1.086,0.369 -1.628,0.558 -0.466,0.161 -0.942,0.293 -1.411,0.446 -0.423,0.135 -0.846,0.264 -1.269,0.399 -0.468,0.128 -0.92,0.306 -1.354,0.519 -0.366,0.185 -0.707,0.414 -1.039,0.654 -0.221,0.161 -0.43,0.337 -0.639,0.513 l 0.206,-0.051 c 0.209,-0.176 0.419,-0.35 0.64,-0.511 0.332,-0.239 0.673,-0.467 1.04,-0.65 0.313,-0.152 0.616,-0.288 0.961,-0.369 0.423,-0.135 0.847,-0.264 1.269,-0.399 0.469,-0.154 0.945,-0.285 1.412,-0.446 0.541,-0.189 1.09,-0.358 1.628,-0.558 0.656,-0.249 1.312,-0.501 1.944,-0.809 0.664,-0.312 1.318,-0.65 1.926,-1.062 0.82,-0.554 1.619,-1.139 2.375,-1.777 1.073,-0.955 2.096,-1.965 3.073,-3.017 1.505,-1.658 2.935,-3.381 4.319,-5.142 1.348,-1.688 2.703,-3.372 4.017,-5.088 0.279,-0.397 0.542,-0.804 0.791,-1.221 0.251,-0.404 0.516,-0.802 0.827,-1.164 0.32,-0.358 0.643,-0.713 0.972,-1.062 0.333,-0.352 0.668,-0.703 1.019,-1.036 0.336,-0.315 0.678,-0.625 1.035,-0.917 0.367,-0.297 0.744,-0.582 1.122,-0.865 0.377,-0.277 0.765,-0.536 1.154,-0.797 0.387,-0.254 0.778,-0.506 1.188,-0.721 0.348,-0.163 0.704,-0.305 1.058,-0.455 0.437,-0.161 0.877,-0.304 1.335,-0.394 0.439,-0.104 0.883,-0.184 1.323,-0.284 0.432,-0.09 0.864,-0.187 1.295,-0.288 0.469,-0.108 0.93,-0.249 1.374,-0.439 0.425,-0.184 0.846,-0.378 1.263,-0.583 0.313,-0.146 0.623,-0.3 0.935,-0.448 z"
             style="fill:#e6e6e6;fill-opacity:1;fill-rule:nonzero;stroke:none"
             id="path286"
             inkscape:connector-curvature="0" /></g><g
           id="g288"
           transform="translate(375.2254,272.0995)"><path
             d="m 0,0 -2.616,-2.057 -8.852,6.38 c -44.367,31.98 -100.864,73.127 -125.544,91.434 -24.667,18.297 -34.403,25.832 -38.736,29.979 -1.551,1.484 -1.855,3.004 -1.041,5.205 0.76,2.056 0.853,2.124 1.936,1.436 0.515,-0.327 2.218,-1.013 3.787,-1.524 6.802,-2.22 9.158,-4.171 16.826,-13.935 5.868,-7.471 6.175,-7.834 7.659,-9.048 2.144,-1.753 3.625,-2.582 5.594,-3.131 1.035,-0.289 3.245,-1.145 4.909,-1.903 4.821,-2.194 7.374,-4.153 11.372,-8.721 7.264,-8.302 10.714,-10.914 17.533,-13.278 3.752,-1.3 6.571,-2.446 7.567,-3.076 2.461,-1.556 5.919,-4.887 11.053,-10.647 6.416,-7.197 8.427,-9.211 11.345,-11.361 2.339,-1.724 4.124,-2.482 10.418,-4.43 9.9,-3.063 15.379,-5.823 19.434,-9.787 0.715,-0.7 3.976,-4.408 7.246,-8.239 6.375,-7.47 7.334,-8.539 10.825,-12.049 2.414,-2.429 4.39,-4.052 6.109,-5.017 2.392,-1.341 7.27,-3.554 10.57,-4.794 1.931,-0.726 4.226,-1.66 5.101,-2.076 1.458,-0.692 4.538,-2.877 8.623,-6.115 L 2.617,2.058 0.001,0 Z"
             style="fill:#e6e6e6;fill-opacity:1;fill-rule:nonzero;stroke:none"
             id="path290"
             inkscape:connector-curvature="0" /></g><g
           id="g292"
           transform="translate(538.1033,161.0858)"><path
             d="m 0,0 c -0.411,-0.932 -1.274,-2.607 -1.919,-3.724 l -1.172,-2.029 -1.34,0.581 c -2.434,1.058 -6.178,3.388 -12.578,7.829 -7.49,5.197 -102.76,73.459 -128.878,92.342 -10.017,7.242 -18.481,13.35 -18.808,13.572 -0.522,0.354 -0.281,0.626 1.94,2.197 1.394,0.986 2.627,1.79 2.74,1.786 0.324,-0.011 11.48,-9.369 14.089,-11.82 1.292,-1.212 3.963,-3.855 5.935,-5.874 4.444,-4.547 7.397,-6.458 15.005,-9.71 10.642,-4.548 14.058,-7.008 22.021,-15.862 5.993,-6.663 7.913,-7.989 19.944,-13.78 3.304,-1.591 7.5,-3.98 9.324,-5.308 3.149,-2.294 4.399,-3.425 11.606,-10.49 4.207,-4.123 7.605,-6.608 12.672,-9.268 7.087,-3.717 13.403,-7.921 17.734,-11.798 8.498,-7.609 10.137,-8.456 18.662,-9.648 C -7.365,8.204 -6.386,7.803 -2.59,4.715 0.884,1.89 0.857,1.937 0.003,-0.002 Z"
             style="fill:#e6e6e6;fill-opacity:1;fill-rule:nonzero;stroke:none"
             id="path294"
             inkscape:connector-curvature="0" /></g><g
           id="g296"
           transform="translate(375.2078,272.162)"><path
             d="m 0,0 -2.405,-1.961 -2.081,1.463 c -1.145,0.804 -2.354,1.61 -2.687,1.792 -0.333,0.182 -0.667,0.445 -0.741,0.585 -0.144,0.268 -3.59,2.724 -4.616,3.288 -0.332,0.183 -0.665,0.446 -0.74,0.586 -0.143,0.268 -3.589,2.724 -4.616,3.288 -0.332,0.183 -0.665,0.446 -0.739,0.586 -0.144,0.269 -3.59,2.724 -4.616,3.288 -0.332,0.183 -0.665,0.446 -0.739,0.586 -0.144,0.269 -3.591,2.724 -4.617,3.288 -0.332,0.183 -0.665,0.446 -0.739,0.586 -0.143,0.267 -3.576,2.714 -4.614,3.29 -0.331,0.183 -0.742,0.466 -0.913,0.628 -1.573,1.493 -3.189,2.62 -3.451,2.406 -0.177,-0.144 -0.344,-0.082 -0.374,0.138 -0.057,0.438 -4.38,3.786 -4.906,3.799 -0.179,0.004 -0.449,0.156 -0.597,0.336 -0.792,0.964 -4.59,3.675 -4.851,3.462 -0.167,-0.136 -0.328,-0.068 -0.356,0.151 -0.058,0.439 -4.382,3.787 -4.907,3.799 -0.18,0.004 -0.449,0.156 -0.598,0.337 -0.792,0.964 -4.589,3.674 -4.85,3.462 -0.167,-0.137 -0.332,-0.039 -0.365,0.217 -0.074,0.563 -4.454,3.743 -4.953,3.597 -0.194,-0.057 -0.378,0.087 -0.408,0.32 -0.07,0.533 -4.47,3.694 -4.948,3.554 -0.194,-0.057 -0.377,0.087 -0.408,0.32 -0.07,0.533 -4.47,3.694 -4.947,3.554 -0.194,-0.057 -0.378,0.088 -0.408,0.32 -0.065,0.499 -4.454,3.697 -4.9,3.572 -0.168,-0.047 -0.467,0.266 -0.662,0.696 -0.205,0.448 -0.523,0.646 -0.746,0.466 -0.213,-0.174 -0.414,-0.113 -0.446,0.136 -0.074,0.557 -5.869,4.807 -6.36,4.662 -0.195,-0.057 -0.381,0.097 -0.413,0.343 -0.07,0.536 -5.822,4.755 -6.286,4.612 -0.177,-0.054 -0.483,0.253 -0.679,0.683 -0.205,0.448 -0.523,0.646 -0.745,0.465 -0.213,-0.174 -0.417,-0.096 -0.452,0.175 -0.079,0.599 -5.822,4.799 -6.339,4.636 -0.203,-0.065 -0.395,0.073 -0.426,0.307 -0.081,0.623 -7.428,6.015 -7.792,5.719 -0.169,-0.139 -0.337,-0.034 -0.372,0.233 -0.073,0.554 -21.014,16.031 -21.497,15.887 -0.174,-0.052 -0.477,0.257 -0.673,0.687 -0.196,0.429 -0.509,0.657 -0.694,0.506 -0.186,-0.151 -0.503,0.085 -0.704,0.525 -0.201,0.44 -0.517,0.677 -0.703,0.525 -0.186,-0.151 -0.502,0.085 -0.703,0.526 -0.213,0.465 -0.529,0.668 -0.754,0.484 -0.213,-0.174 -0.415,-0.107 -0.449,0.149 -0.077,0.585 -17.367,13.553 -17.863,13.398 -0.202,-0.063 -0.392,0.078 -0.423,0.314 -0.066,0.505 -3.156,2.908 -3.986,3.1 -0.315,0.072 -0.558,0.282 -0.539,0.465 0.031,0.311 -2.288,2.184 -3.643,2.941 -0.33,0.184 -0.801,0.542 -1.048,0.794 -1.501,1.538 -3.601,3.107 -3.867,2.89 -0.171,-0.14 -0.34,-0.038 -0.375,0.227 -0.035,0.264 -1.34,1.587 -2.902,2.94 -3.295,2.856 -3.711,3.786 -2.896,6.475 0.531,1.753 0.92,2.31 1.291,1.854 0.123,-0.15 2.28,-1.103 4.793,-2.118 6.876,-2.775 7.273,-3.11 15.847,-13.383 4.419,-5.294 8.037,-9.335 8.956,-10.002 0.848,-0.616 3.778,-2.06 6.511,-3.21 6.899,-2.904 8.757,-4.147 13.254,-8.872 5.769,-6.062 10.173,-10.083 12.565,-11.475 1.183,-0.687 4.512,-2.168 7.397,-3.29 2.886,-1.122 6.066,-2.594 7.068,-3.272 1.97,-1.331 5.691,-5.046 13.193,-13.171 7.265,-7.87 8.973,-9.093 16.307,-11.673 18.445,-6.49 18.101,-6.251 32.556,-22.654 10.756,-12.204 11.916,-13.078 24.078,-18.133 6.2,-2.577 6.768,-2.9 11.752,-6.685 L 2.406,1.962 0.001,0 Z"
             style="fill:#e6e6e6;fill-opacity:1;fill-rule:nonzero;stroke:none"
             id="path298"
             inkscape:connector-curvature="0" /></g><g
           id="g300"
           transform="translate(572.9461,152.6766)"><path
             d="m 0,0 c 0,0 -0.032,-2.146 -2.005,1.112 -2.304,3.805 -9.413,5.719 -14.441,9.679 -5.613,-1.875 -15.379,2.669 -17.538,0.296 -0.595,-0.654 -0.844,-4.772 -5.579,-9.417"
             style="fill:#989898;fill-opacity:1;fill-rule:nonzero;stroke:none"
             id="path302"
             inkscape:connector-curvature="0" /></g><g
           id="g304"
           transform="translate(538.5692,163.8133)"><path
             d="m 0,0 c 0.062,0.363 0.127,0.727 0.198,1.088 0.1,0.512 0.22,1.017 0.379,1.514 0.192,0.528 0.401,1.05 0.617,1.568 0.193,0.472 0.449,0.913 0.7,1.355 0.229,0.41 0.491,0.8 0.74,1.198 0.199,0.365 0.425,0.714 0.64,1.069 0.198,0.341 0.421,0.665 0.657,0.98 L 4.053,8.929 4.249,8.847 4.127,8.691 C 3.892,8.377 3.669,8.054 3.471,7.713 3.256,7.357 3.029,7.009 2.831,6.644 2.582,6.246 2.321,5.855 2.091,5.447 1.84,5.005 1.585,4.565 1.393,4.094 1.176,3.576 0.967,3.055 0.776,2.527 0.617,2.032 0.498,1.526 0.398,1.017 0.326,0.655 0.262,0.293 0.201,-0.07 Z"
             style="fill:#ececed;fill-opacity:1;fill-rule:nonzero;stroke:none"
             id="path306"
             inkscape:connector-curvature="0" /></g><g
           id="g308"
           transform="translate(555.3182,163.2938)"><path
             d="m 0,0 c -1.412,-0.291 -4.713,-0.063 -8.741,0.604 -4.405,0.729 -5.306,0.786 -6.825,0.428 l -0.821,-0.193 0.348,1.39 c 0.191,0.765 0.525,1.785 0.742,2.267 0.587,1.307 2.776,4.795 2.967,4.728 C -12.175,9.169 -1.033,1.319 0.062,0.493 0.543,0.13 0.541,0.112 0,0"
             style="fill:#ffffff;fill-opacity:1;fill-rule:nonzero;stroke:none"
             id="path310"
             inkscape:connector-curvature="0" /></g><g
           id="g312"
           transform="translate(538.7029,168.1766)"><path
             d="m 0,0 c 0,0 -315.441,226.797 -324.051,237.359 l -8.609,10.561"
             style="fill:none;stroke:#989898;stroke-width:1.79999995;stroke-linecap:butt;stroke-linejoin:miter;stroke-miterlimit:4;stroke-dasharray:none;stroke-opacity:1"
             id="path314"
             inkscape:connector-curvature="0" /></g></g></g><g
       id="g316"><g
         id="g318"
         clip-path="url(#clipPath322)"><g
           id="g324"><g
             id="g326"><path
               d="m 190.706,402.818 17.083,-13.208 15.828,21.993 -17.082,13.208 z"
               style="fill:url(#linearGradient332);stroke:none"
               id="path334"
               inkscape:connector-curvature="0" /></g></g></g></g><g
       id="g336"><g
         id="g338"
         clip-path="url(#clipPath342)"><g
           id="g344"><g
             id="g346" /><g
             id="g358"><g
               clip-path="url(#clipPath350)"
               id="g356"
               style="opacity:0.83627301"><g
                 transform="translate(192.5237,422.0326)"
                 id="g354"><path
                   d="m 0,0 c 5.964,7.051 12.04,12.229 17.476,14.895 4.131,2.025 7.672,2.455 9.721,1.179 3.382,-2.105 2.755,-11.078 -3.9,-18.975 l -0.563,-0.668 -1.059,0.903 c -0.583,0.497 -2.342,1.071 -3.371,2.199 l -2.672,1.568 0.353,0.216 -0.312,-0.412 3.233,-2.593 c 1.778,-1.426 3.2,-2.635 3.161,-2.687 -0.039,-0.051 0.718,-0.654 1.681,-1.34 0.964,-0.686 3.85,-2.963 6.413,-5.061 l 4.66,-3.815 -7.845,6.082 c -4.315,3.345 -8.729,6.751 -9.809,7.568 l -1.963,1.487 0.258,0.34 c 0.142,0.187 0.189,0.348 0.104,0.358 C 15.481,1.253 14.911,0.682 14.299,-0.027 13.688,-0.735 12.147,-2.438 10.875,-3.813 9.401,-5.406 7.835,-7.262 6.551,-8.94 4.305,-11.875 3.85,-12.703 2.966,-15.467 2.608,-16.585 2.318,-17.208 1.887,-17.778 1.562,-18.208 0.995,-19.031 0.626,-19.609 l -0.67,-1.05 0.784,-0.595 c 1.587,-2.239 4.859,-2.593 4.691,-4.481 -1.702,-1.102 -2.624,-2.679 -3.63,-3.807 -1.287,-1.443 -2.542,-2.403 -3.913,-3.383 -3.717,-2.656 -8.203,-3.13 -12.97,0.344 l -0.068,0.806 c -0.462,5.389 0.341,7.985 1.93,11.383 1.011,2.16 2.769,6.109 3.088,6.151 0.324,0.042 0.735,0.68 0.536,0.831 -0.122,0.093 -0.038,0.359 0.276,0.877 C -8.788,-11.657 -0.992,-1.173 0,0 Z"
                   style="fill:#231f20;fill-opacity:1;fill-rule:nonzero;stroke:none"
                   id="path352"
                   inkscape:connector-curvature="0" /></g></g></g></g><g
           id="g360"
           transform="translate(90.2376,514.3988)"><path
             d="m 0,0 c 2.093,1.193 4.885,2.586 6.206,3.096 2.324,0.896 2.466,0.863 4.407,-1.034 2.268,-2.217 35.964,-32.126 57.19,-50.764 9.674,-8.493 18.634,-15.83 28.707,-23.505 l 14.644,-11.157 -2.085,-1.819 c -1.147,-1.001 -5.269,-5.95 -9.159,-10.999 -4.699,-6.098 -7.244,-9.051 -7.583,-8.797 -0.28,0.211 -12.142,10.578 -26.36,23.038 -46.718,40.944 -70.557,62.191 -72.118,64.276 -1.175,1.571 -1.755,6.213 -1.134,9.065 0.792,3.629 2.865,6.075 7.288,8.598 z"
             style="fill:#231f20;fill-opacity:1;fill-rule:nonzero;stroke:none"
             id="path362"
             inkscape:connector-curvature="0" /></g><g
           id="g364"
           transform="translate(90.2376,514.3988)"><path
             d="m 0,0 c 2.093,1.193 4.885,2.586 6.206,3.096 2.324,0.896 2.466,0.863 4.407,-1.034 2.268,-2.217 35.964,-32.126 57.19,-50.764 9.674,-8.493 18.634,-15.83 28.707,-23.505 l 14.644,-11.157 -2.085,-1.819 c -1.147,-1.001 -5.269,-5.95 -9.159,-10.999 -4.699,-6.098 -7.244,-9.051 -7.583,-8.797 -0.28,0.211 -12.142,10.578 -26.36,23.038 -46.718,40.944 -70.557,62.191 -72.118,64.276 -1.175,1.571 -1.755,6.213 -1.134,9.065 0.792,3.629 2.865,6.075 7.288,8.598 z"
             style="fill:none;stroke:#ffffff;stroke-width:1;stroke-linecap:butt;stroke-linejoin:miter;stroke-miterlimit:10;stroke-dasharray:none;stroke-opacity:1"
             id="path366"
             inkscape:connector-curvature="0" /></g><g
           id="g368"><g
             id="g370" /><g
             id="g382"><g
               clip-path="url(#clipPath374)"
               id="g380"
               style="opacity:0.83627301"><g
                 transform="translate(145.6526,454.5706)"
                 id="g378"><path
                   d="M 0,0 C -24.803,20.496 -44.096,38.096 -43.092,39.312 -42.087,40.527 -21.166,24.898 3.638,4.402 28.441,-16.093 47.734,-33.693 46.729,-34.909 45.725,-36.125 24.803,-20.496 0,0"
                   style="fill:#58595b;fill-opacity:1;fill-rule:nonzero;stroke:none"
                   id="path376"
                   inkscape:connector-curvature="0" /></g></g></g></g><g
           id="g384"
           transform="translate(189.2493,433.7406)"><path
             d="m 0,0 -1.638,-8.749 -7.642,-4.191 1.638,8.748 z"
             style="fill:#ececed;fill-opacity:1;fill-rule:nonzero;stroke:none"
             id="path386"
             inkscape:connector-curvature="0" /></g><g
           id="g388"
           transform="translate(180.9744,440.7625)"><path
             d="m 0,0 -1.638,-8.748 -7.642,-4.192 1.638,8.748 z"
             style="fill:#ececed;fill-opacity:1;fill-rule:nonzero;stroke:none"
             id="path390"
             inkscape:connector-curvature="0" /></g><g
           id="g392"
           transform="translate(172.8226,446.9525)"><path
             d="m 0,0 -1.638,-8.748 -7.643,-4.192 1.638,8.748 z"
             style="fill:#ececed;fill-opacity:1;fill-rule:nonzero;stroke:none"
             id="path394"
             inkscape:connector-curvature="0" /></g><g
           id="g396"
           transform="translate(165.032,453.6239)"><path
             d="m 0,0 -1.638,-8.749 -7.642,-4.192 1.638,8.749 z"
             style="fill:#ececed;fill-opacity:1;fill-rule:nonzero;stroke:none"
             id="path398"
             inkscape:connector-curvature="0" /></g><g
           id="g400"
           transform="translate(156.8802,459.8133)"><path
             d="m 0,0 -1.638,-8.748 -7.643,-4.192 1.638,8.748 z"
             style="fill:#ececed;fill-opacity:1;fill-rule:nonzero;stroke:none"
             id="path402"
             inkscape:connector-curvature="0" /></g><g
           id="g404"
           transform="translate(148.7278,466.0033)"><path
             d="m 0,0 -1.638,-8.748 -7.642,-4.192 1.637,8.748 z"
             style="fill:#ececed;fill-opacity:1;fill-rule:nonzero;stroke:none"
             id="path406"
             inkscape:connector-curvature="0" /></g><g
           id="g408"
           transform="translate(141.1844,473.992)"><path
             d="m 0,0 -1.638,-8.749 -7.643,-4.192 1.638,8.749 z"
             style="fill:#ececed;fill-opacity:1;fill-rule:nonzero;stroke:none"
             id="path410"
             inkscape:connector-curvature="0" /></g><g
           id="g412"
           transform="translate(133.7547,481.1356)"><path
             d="m 0,0 -1.638,-8.749 -7.643,-4.191 1.638,8.748 z"
             style="fill:#ececed;fill-opacity:1;fill-rule:nonzero;stroke:none"
             id="path414"
             inkscape:connector-curvature="0" /></g><g
           id="g416"
           transform="translate(124.7796,490.2274)"><path
             d="m 0,0 -1.638,-8.749 -7.642,-4.191 1.637,8.748 z"
             style="fill:#ececed;fill-opacity:1;fill-rule:nonzero;stroke:none"
             id="path418"
             inkscape:connector-curvature="0" /></g><g
           id="g420"
           transform="translate(116.5047,497.2498)"><path
             d="m 0,0 -1.638,-8.749 -7.642,-4.192 1.637,8.749 z"
             style="fill:#ececed;fill-opacity:1;fill-rule:nonzero;stroke:none"
             id="path422"
             inkscape:connector-curvature="0" /></g><g
           id="g424"
           transform="translate(109.4442,504.8788)"><path
             d="m 0,0 -1.638,-8.749 -7.642,-4.192 1.638,8.749 z"
             style="fill:#ececed;fill-opacity:1;fill-rule:nonzero;stroke:none"
             id="path426"
             inkscape:connector-curvature="0" /></g><g
           id="g428"
           transform="translate(92.7596,515.1835)"><path
             d="M 0,0 5.487,2.828 9.735,-0.396 6.99,-2.659 C 3.132,-5.84 -2.947,-13.023 -4.892,-16.698 c -1.602,-3.028 -1.667,-3.081 -2.75,-2.259 -1.441,1.094 -2.384,5.799 -1.807,9.018 C -8.701,-5.77 -6.303,-3.248 0,0 Z"
             style="fill:#231f20;fill-opacity:1;fill-rule:nonzero;stroke:none"
             id="path430"
             inkscape:connector-curvature="0" /></g><g
           id="g432"
           transform="translate(92.7596,515.1835)"><path
             d="M 0,0 5.487,2.828 9.735,-0.396 6.99,-2.659 C 3.132,-5.84 -2.947,-13.023 -4.892,-16.698 c -1.602,-3.028 -1.667,-3.081 -2.75,-2.259 -1.441,1.094 -2.384,5.799 -1.807,9.018 C -8.701,-5.77 -6.303,-3.248 0,0 Z"
             style="fill:none;stroke:#ffffff;stroke-width:1;stroke-linecap:butt;stroke-linejoin:miter;stroke-miterlimit:10;stroke-dasharray:none;stroke-opacity:1"
             id="path434"
             inkscape:connector-curvature="0" /></g></g></g></g></svg>